<svg xmlns="http://www.w3.org/2000/svg" viewBox="0 0 100 100"><path fill="#ee3e54" d="M13 27A2 2 0 1 0 13 31A2 2 0 1 0 13 27Z"/><path fill="#f1bc19" d="M77 12A1 1 0 1 0 77 14A1 1 0 1 0 77 12Z"/><path fill="#fce0a2" d="M50 13A37 37 0 1 0 50 87A37 37 0 1 0 50 13Z"/><path fill="#f1bc19" d="M83 11A4 4 0 1 0 83 19A4 4 0 1 0 83 11Z"/><path fill="#ee3e54" d="M87 22A2 2 0 1 0 87 26A2 2 0 1 0 87 22Z"/><path fill="#fbcd59" d="M81 74A2 2 0 1 0 81 78 2 2 0 1 0 81 74zM15 59A4 4 0 1 0 15 67 4 4 0 1 0 15 59z"/><path fill="#ee3e54" d="M25 85A2 2 0 1 0 25 89A2 2 0 1 0 25 85Z"/><path fill="#fff" d="M18.5 51A2.5 2.5 0 1 0 18.5 56A2.5 2.5 0 1 0 18.5 51Z"/><path fill="#f1bc19" d="M21 66A1 1 0 1 0 21 68A1 1 0 1 0 21 66Z"/><path fill="#fff" d="M80 33A1 1 0 1 0 80 35A1 1 0 1 0 80 33Z"/><g><path fill="#f15b6c" d="M35,72.3c-4.025,0-7.3-3.274-7.3-7.3V35c0-4.025,3.274-7.3,7.3-7.3h30c4.025,0,7.3,3.274,7.3,7.3 v30c0,4.025-3.274,7.3-7.3,7.3H35z"/><path fill="#472b29" d="M65,28.4c3.639,0,6.6,2.961,6.6,6.6v30c0,3.639-2.961,6.6-6.6,6.6H35c-3.639,0-6.6-2.961-6.6-6.6 V35c0-3.639,2.961-6.6,6.6-6.6H65 M65,27H35c-4.4,0-8,3.6-8,8v30c0,4.4,3.6,8,8,8h30c4.4,0,8-3.6,8-8V35C73,30.6,69.4,27,65,27 L65,27z"/></g><g><path fill="#fff" d="M63.542,69H36.458C33.456,69,31,66.544,31,63.542V36.458C31,33.456,33.456,31,36.458,31h27.083 C66.544,31,69,33.456,69,36.458v27.083C69,66.544,66.544,69,63.542,69z"/></g><g><path fill="#472b29" d="M68.5,47.375c-0.276,0-0.5-0.224-0.5-0.5V43c0-0.276,0.224-0.5,0.5-0.5S69,42.724,69,43v3.875 C69,47.151,68.776,47.375,68.5,47.375z"/></g><g><path fill="#472b29" d="M68.5,40.5c-0.276,0-0.5-0.224-0.5-0.5v-2c0-0.276,0.224-0.5,0.5-0.5S69,37.724,69,38v2 C69,40.276,68.776,40.5,68.5,40.5z"/></g><g><path fill="#472b29" d="M64,69H36c-2.757,0-5-2.243-5-5V36c0-2.757,2.243-5,5-5h25.375c0.276,0,0.5,0.224,0.5,0.5 s-0.224,0.5-0.5,0.5H36c-2.206,0-4,1.794-4,4v28c0,2.206,1.794,4,4,4h28c2.206,0,4-1.794,4-4V49.625c0-0.276,0.224-0.5,0.5-0.5 s0.5,0.224,0.5,0.5V64C69,66.757,66.757,69,64,69z"/></g><g><path fill="#8f9eb6" d="M40.286,62.171c-0.699,0-1.401-0.284-1.877-0.761c-0.99-0.99-1.067-2.622-0.215-3.475 L49.911,46.22l-0.118-0.304c-0.886-2.283-0.343-4.881,1.417-6.78c1.114-1.201,2.772-1.863,4.668-1.863 c0.72,0,1.44,0.097,2.139,0.286l-3.522,3.629c-0.403,0.402-0.705,0.999-0.809,1.595c-0.126,0.727,0.045,1.367,0.482,1.804 l1.014,1.014c0.342,0.342,0.809,0.522,1.352,0.522c0.728,0,1.531-0.334,2.047-0.85l3.478-3.479 c0.031-0.012,0.061-0.019,0.087-0.019c0.043,0,0.076,0.019,0.088,0.063c0.512,1.965,0.409,4.715-1.418,6.541 c-1.309,1.309-2.979,2.03-4.703,2.03c0,0,0,0,0,0c-0.773,0-1.534-0.146-2.261-0.432l-0.305-0.12L41.831,61.572 C41.444,61.958,40.896,62.171,40.286,62.171z"/><path fill="#472b29" d="M55.878,37.772L55.878,37.772c0.41,0,0.82,0.033,1.225,0.099l-2.963,2.963 c-1.048,1.048-1.44,2.992-0.326,4.106l1.014,1.013c0.437,0.437,1.027,0.668,1.705,0.668c0.853,0,1.796-0.391,2.401-0.996 l2.963-2.963c0.285,1.742,0.038,3.891-1.435,5.364c-1.214,1.214-2.759,1.883-4.349,1.883c-0.71,0-1.41-0.133-2.078-0.397 l-0.61-0.241l-0.464,0.464L41.477,61.219c-0.291,0.292-0.714,0.452-1.191,0.452c-0.569,0-1.139-0.23-1.522-0.613l-0.053-0.053 c-0.361-0.361-0.584-0.876-0.612-1.413c-0.027-0.522,0.132-0.985,0.449-1.302l11.486-11.486l0.461-0.461l-0.236-0.608 c-0.816-2.103-0.311-4.501,1.317-6.258C52.595,38.377,54.122,37.772,55.878,37.772 M55.878,36.772 c-1.865,0-3.731,0.617-5.035,2.024c-1.878,2.026-2.48,4.814-1.516,7.3L37.841,57.583c-1.091,1.091-0.938,3.028,0.163,4.129 l0.052,0.052c0.589,0.589,1.419,0.907,2.23,0.907c0.703,0,1.392-0.239,1.898-0.745l11.483-11.483 c0.796,0.314,1.623,0.467,2.445,0.467c1.827,0,3.635-0.754,5.056-2.176c1.812-1.812,2.173-4.625,1.548-7.021 c-0.074-0.284-0.327-0.449-0.587-0.449c-0.151,0-0.304,0.056-0.425,0.177l-3.478,3.478c-0.405,0.405-1.076,0.703-1.694,0.703 c-0.376,0-0.733-0.111-0.998-0.375l-1.014-1.013c-0.7-0.7-0.324-2.041,0.327-2.692l3.542-3.542 c0.298-0.298,0.165-0.812-0.242-0.923C57.418,36.877,56.648,36.772,55.878,36.772L55.878,36.772z"/><path fill="#fff" d="M39.725,60.042L39.725,60.042c-0.398-0.398-0.398-1.05,0-1.448l0,0c0.398-0.398,1.05-0.398,1.448,0 l0,0c0.398,0.398,0.398,1.05,0,1.448l0,0C40.774,60.44,40.123,60.44,39.725,60.042z"/><path fill="#472b29" d="M40.449 60.591c-.326 0-.652-.124-.901-.372l0 0c-.496-.497-.496-1.305 0-1.802.497-.496 1.305-.496 1.802 0 .496.497.496 1.305 0 1.802C41.101 60.467 40.775 60.591 40.449 60.591zM39.901 59.865c.302.301.793.301 1.095 0 .301-.302.301-.793 0-1.095-.302-.303-.793-.303-1.095 0C39.6 59.072 39.6 59.563 39.901 59.865zM45.992 53.06c-.064 0-.128-.024-.177-.073-.098-.098-.098-.256 0-.354l5.309-5.31c.098-.098.256-.098.354 0s.098.256 0 .354l-5.309 5.31C46.12 53.035 46.056 53.06 45.992 53.06z"/><g><path fill="#472b29" d="M43.579,55.473c-0.064,0-0.128-0.024-0.177-0.073c-0.098-0.098-0.098-0.256,0-0.354l1.448-1.448 c0.098-0.098,0.256-0.098,0.354,0s0.098,0.256,0,0.354l-1.448,1.448C43.707,55.448,43.643,55.473,43.579,55.473z"/></g><g><path fill="#472b29" d="M41.648,57.402c-0.064,0-0.128-0.024-0.177-0.073c-0.098-0.098-0.098-0.256,0-0.354l0.965-0.965 c0.098-0.098,0.256-0.098,0.354,0s0.098,0.256,0,0.354l-0.965,0.965C41.776,57.378,41.712,57.402,41.648,57.402z"/></g></g></svg>