<svg xmlns="http://www.w3.org/2000/svg" viewBox="0 0 100 100"><path fill="#f1bc19" d="M77 12A1 1 0 1 0 77 14A1 1 0 1 0 77 12Z"/><path fill="#e6edb7" d="M50 13A37 37 0 1 0 50 87A37 37 0 1 0 50 13Z"/><path fill="#f1bc19" d="M83 11A4 4 0 1 0 83 19A4 4 0 1 0 83 11Z"/><path fill="#88ae45" d="M87 22A2 2 0 1 0 87 26A2 2 0 1 0 87 22Z"/><path fill="#fbcd59" d="M81 74A2 2 0 1 0 81 78 2 2 0 1 0 81 74zM15 59A4 4 0 1 0 15 67 4 4 0 1 0 15 59z"/><path fill="#88ae45" d="M25 85A2 2 0 1 0 25 89A2 2 0 1 0 25 85Z"/><path fill="#fff" d="M18.5 49A2.5 2.5 0 1 0 18.5 54 2.5 2.5 0 1 0 18.5 49zM79.5 32A1.5 1.5 0 1 0 79.5 35 1.5 1.5 0 1 0 79.5 32z"/><g><path fill="#8889b9" d="M52.701,70.906H36.388c-3.116,0-5.666-2.549-5.666-5.666V40.451 c0-3.116,2.549-5.666,5.666-5.666H51.97c3.116,0,5.666,2.549,5.666,5.666v23.087"/><path fill="#472b29" d="M45.619,72h-9.23C32.866,72,30,69.091,30,65.517V40.362c0-3.575,2.866-6.483,6.389-6.483h15.582 c3.523,0,6.389,2.909,6.389,6.483c0,0.405-0.323,0.733-0.723,0.733c-0.4,0-0.723-0.328-0.723-0.733 c0-2.766-2.217-5.017-4.943-5.017H36.388c-2.727,0-4.944,2.249-4.944,5.017v25.154c0,2.766,2.217,5.017,4.944,5.017h9.23 c0.4,0,0.723,0.328,0.723,0.733S46.017,72,45.619,72z"/><path fill="#472b29" d="M55.157,41.009H33.201c-0.214,0-0.387-0.173-0.387-0.387s0.173-0.387,0.387-0.387h21.956 c0.214,0,0.387,0.173,0.387,0.387S55.371,41.009,55.157,41.009z"/><path fill="#fdfcee" d="M34.972 40.267L34.972 25.68 38.035 27.978 40.958 25.68 44.142 27.978 47.327 25.68 50.25 27.978 53.386 25.68 53.386 40.267"/><path fill="#472b29" d="M53.386,40.991c-0.4,0-0.723-0.323-0.723-0.723V27.106l-1.986,1.456 c-0.263,0.192-0.62,0.186-0.875-0.014l-2.496-1.962l-2.743,1.979c-0.252,0.182-0.592,0.182-0.846,0l-2.742-1.979l-2.495,1.962 c-0.256,0.202-0.618,0.208-0.881,0.01l-1.907-1.431v13.142c0,0.4-0.323,0.723-0.723,0.723c-0.4,0-0.723-0.323-0.723-0.723V25.68 c0-0.274,0.155-0.523,0.401-0.646c0.244-0.123,0.538-0.096,0.756,0.068l2.619,1.965l2.486-1.956 c0.254-0.199,0.608-0.208,0.87-0.018l2.761,1.993l2.763-1.994c0.26-0.189,0.615-0.181,0.869,0.019l2.491,1.959l2.693-1.974 c0.221-0.161,0.512-0.184,0.754-0.062c0.243,0.124,0.396,0.373,0.396,0.645v14.587C54.109,40.667,53.786,40.991,53.386,40.991z"/><path fill="#edf7f5" d="M36.034 43.455H52.324V49.83H36.034z"/><path fill="#472b29" d="M52.324 50.165h-16.29c-.186 0-.336-.151-.336-.336v-6.375c0-.186.151-.336.336-.336h16.29c.186 0 .336.151.336.336v6.374C52.66 50.014 52.509 50.165 52.324 50.165zM36.371 49.493h15.618V43.79H36.371V49.493zM45.949 54.465h-3.54c-.214 0-.387-.173-.387-.387 0-.214.173-.387.387-.387h3.54c.214 0 .387.173.387.387C46.336 54.292 46.163 54.465 45.949 54.465zM39.576 54.465h-3.542c-.214 0-.387-.173-.387-.387 0-.214.173-.387.387-.387h3.542c.214 0 .387.173.387.387C39.963 54.292 39.789 54.465 39.576 54.465zM52.324 54.465h-3.542c-.214 0-.387-.173-.387-.387 0-.214.173-.387.387-.387h3.542c.214 0 .387.173.387.387C52.711 54.292 52.538 54.465 52.324 54.465zM45.949 58.716h-3.54c-.214 0-.387-.173-.387-.387 0-.214.173-.387.387-.387h3.54c.214 0 .387.173.387.387C46.336 58.543 46.163 58.716 45.949 58.716zM39.576 58.715h-3.542c-.214 0-.387-.173-.387-.387s.173-.387.387-.387h3.542c.214 0 .387.173.387.387S39.789 58.715 39.576 58.715zM52.324 58.716h-3.542c-.214 0-.387-.173-.387-.387 0-.214.173-.387.387-.387h3.542c.214 0 .387.173.387.387C52.711 58.543 52.538 58.716 52.324 58.716zM45.949 62.965h-3.542c-.214 0-.387-.173-.387-.387s.173-.387.387-.387h3.542c.214 0 .387.173.387.387S46.163 62.965 45.949 62.965zM39.576 62.965h-3.542c-.214 0-.387-.173-.387-.387s.173-.387.387-.387h3.542c.214 0 .387.173.387.387S39.789 62.965 39.576 62.965zM52.324 62.965h-3.542c-.214 0-.387-.173-.387-.387s.173-.387.387-.387h3.542c.214 0 .387.173.387.387S52.538 62.965 52.324 62.965z"/><g><path fill="#472b29" d="M50.907,32.458h-8.748c-0.186,0-0.336-0.151-0.336-0.336c0-0.185,0.151-0.336,0.336-0.336h8.748 c0.186,0,0.336,0.151,0.336,0.336C51.243,32.308,51.092,32.458,50.907,32.458z"/></g><g><path fill="#472b29" d="M40.004,32.458H37.45c-0.186,0-0.336-0.151-0.336-0.336c0-0.185,0.151-0.336,0.336-0.336h2.554 c0.186,0,0.336,0.151,0.336,0.336C40.34,32.308,40.19,32.458,40.004,32.458z"/></g><g><path fill="#472b29" d="M45.241,35.315L45.241,35.315l-7.792-0.024c-0.186-0.001-0.335-0.151-0.335-0.337 c0.001-0.185,0.151-0.335,0.336-0.335h0.001l7.791,0.024c0.186,0.001,0.335,0.151,0.335,0.337 C45.576,35.166,45.426,35.315,45.241,35.315z"/></g><g><path fill="#f1bc19" d="M53.637,68.471v2.865c0,0.788,3.804,1.426,8.497,1.426s8.497-0.638,8.497-1.426v-2.865H53.637z"/><path fill="#472b29" d="M62.134,73.15c-0.91,0-8.884-0.051-8.884-1.813v-2.864c0-0.214,0.173-0.387,0.387-0.387H70.63 c0.214,0,0.387,0.173,0.387,0.387v2.864C71.018,73.098,63.043,73.15,62.134,73.15z M54.024,68.859v2.477 c0.219,0.315,2.917,1.039,8.109,1.039s7.891-0.725,8.122-1.094l-0.01-2.422H54.024V68.859z"/><path fill="#ffd683" d="M62.134 67.05199999999999A8.497 1.426 0 1 0 62.134 69.904A8.497 1.426 0 1 0 62.134 67.05199999999999Z"/><path fill="#472b29" d="M62.134,70.291c-0.91,0-8.884-0.051-8.884-1.813s7.974-1.813,8.884-1.813 c0.91,0,8.884,0.051,8.884,1.813C71.018,70.24,63.043,70.291,62.134,70.291z M54.062,68.478 c0.443,0.382,3.125,1.039,8.071,1.039c4.947,0,7.63-0.657,8.072-1.039c-0.443-0.382-3.125-1.039-8.072-1.039 C57.188,67.439,54.505,68.097,54.062,68.478z M70.256,68.532h0.01H70.256z"/><path fill="#f1bc19" d="M53.637,63.736v2.865c0,0.788,3.804,1.426,8.497,1.426s8.497-0.639,8.497-1.427v-2.865H53.637 V63.736z"/><path fill="#472b29" d="M62.134,68.414c-0.91,0-8.884-0.051-8.884-1.813v-2.864c0-0.214,0.173-0.387,0.387-0.387H70.63 c0.214,0,0.387,0.173,0.387,0.387v2.864C71.018,68.363,63.043,68.414,62.134,68.414z M54.024,64.124v2.477 c0.219,0.315,2.917,1.039,8.109,1.039s7.891-0.724,8.122-1.093l-0.01-2.422H54.024z"/><path fill="#ffd683" d="M62.134 62.317A8.497 1.426 0 1 0 62.134 65.169A8.497 1.426 0 1 0 62.134 62.317Z"/><path fill="#472b29" d="M62.134,65.556c-0.91,0-8.884-0.051-8.884-1.813s7.974-1.813,8.884-1.813 c0.91,0,8.884,0.051,8.884,1.813S63.043,65.556,62.134,65.556z M54.062,63.743c0.443,0.382,3.125,1.039,8.071,1.039 c4.947,0,7.63-0.658,8.072-1.039c-0.443-0.382-3.125-1.039-8.072-1.039C57.188,62.704,54.505,63.36,54.062,63.743z M70.256,63.797h0.01H70.256z"/><path fill="#f1bc19" d="M53.637,59.001v2.865c0,0.788,3.804,1.426,8.497,1.426s8.497-0.638,8.497-1.426v-2.865H53.637z"/><path fill="#472b29" d="M62.134,63.679c-0.91,0-8.884-0.051-8.884-1.813v-2.864c0-0.214,0.173-0.387,0.387-0.387H70.63 c0.214,0,0.387,0.173,0.387,0.387v2.864C71.018,63.628,63.043,63.679,62.134,63.679z M54.024,59.387v2.477 c0.219,0.315,2.917,1.039,8.109,1.039s7.891-0.724,8.122-1.093l-0.01-2.423H54.024V59.387z"/><g><path fill="#ffd683" d="M62.134 57.580999999999996A8.497 1.426 0 1 0 62.134 60.433A8.497 1.426 0 1 0 62.134 57.580999999999996Z"/><path fill="#472b29" d="M62.134,60.821c-0.91,0-8.884-0.051-8.884-1.813s7.974-1.813,8.884-1.813 c0.91,0,8.884,0.051,8.884,1.813C71.018,60.769,63.043,60.821,62.134,60.821z M54.062,59.007 c0.443,0.382,3.125,1.039,8.071,1.039c4.947,0,7.63-0.657,8.072-1.039c-0.443-0.382-3.125-1.039-8.072-1.039 C57.188,57.968,54.505,58.625,54.062,59.007z M70.256,59.062h0.01H70.256z"/></g><g><path fill="#f1bc19" d="M53.637,54.265v2.865c0,0.788,3.804,1.426,8.497,1.426s8.497-0.638,8.497-1.426v-2.865H53.637z"/><path fill="#472b29" d="M62.134,58.943c-0.91,0-8.884-0.051-8.884-1.813v-2.865c0-0.214,0.173-0.387,0.387-0.387H70.63 c0.214,0,0.387,0.173,0.387,0.387v2.864C71.018,58.893,63.043,58.943,62.134,58.943z M54.024,54.652v2.477 c0.219,0.315,2.917,1.039,8.109,1.039s7.891-0.725,8.122-1.094l-0.01-2.422H54.024V54.652z"/><g><path fill="#ffd683" d="M62.134 52.846A8.497 1.426 0 1 0 62.134 55.698A8.497 1.426 0 1 0 62.134 52.846Z"/><path fill="#472b29" d="M62.134,56.085c-0.91,0-8.884-0.051-8.884-1.813s7.974-1.813,8.884-1.813 c0.91,0,8.884,0.051,8.884,1.813C71.018,56.034,63.043,56.085,62.134,56.085z M54.062,54.271 c0.442,0.382,3.124,1.039,8.071,1.039c4.948,0,7.631-0.658,8.072-1.039c-0.443-0.382-3.125-1.039-8.072-1.039 C57.188,53.233,54.505,53.89,54.062,54.271z M70.256,54.327h0.01H70.256z"/></g></g><g><path fill="#f1bc19" d="M45.616,70.322v2.865c0,0.788,3.804,1.426,8.497,1.426s8.497-0.638,8.497-1.426v-2.865H45.616z"/><path fill="#472b29" d="M54.111,75c-0.91,0-8.884-0.051-8.884-1.813v-2.865c0-0.214,0.173-0.387,0.387-0.387h16.993 c0.214,0,0.387,0.173,0.387,0.387v2.865C62.996,74.948,55.021,75,54.111,75z M46.003,70.709v2.478 c0.219,0.315,2.917,1.039,8.109,1.039s7.891-0.724,8.122-1.093l-0.01-2.423H46.003z"/><g><path fill="#ffd683" d="M54.112 68.902A8.497 1.426 0 1 0 54.112 71.754A8.497 1.426 0 1 0 54.112 68.902Z"/><path fill="#472b29" d="M54.111,72.141c-0.91,0-8.884-0.051-8.884-1.813c0-1.762,7.974-1.813,8.884-1.813 c0.91,0,8.884,0.051,8.884,1.813C62.996,72.09,55.021,72.141,54.111,72.141z M46.04,70.328 c0.443,0.382,3.125,1.039,8.071,1.039c4.947,0,7.63-0.658,8.072-1.039c-0.443-0.382-3.125-1.039-8.072-1.039 C49.165,69.289,46.482,69.946,46.04,70.328z M62.233,70.383h0.01H62.233z"/></g></g><g><path fill="#f1bc19" d="M45.616,65.586v2.865c0,0.788,3.804,1.426,8.497,1.426s8.497-0.638,8.497-1.426v-2.865 C62.609,65.586,45.616,65.586,45.616,65.586z"/><path fill="#472b29" d="M54.111,70.263c-0.91,0-8.884-0.051-8.884-1.813v-2.864c0-0.214,0.173-0.387,0.387-0.387h16.993 c0.214,0,0.387,0.173,0.387,0.387v2.864C62.996,70.212,55.021,70.263,54.111,70.263z M46.003,65.973v2.477 c0.219,0.315,2.917,1.039,8.109,1.039s7.891-0.724,8.122-1.093l-0.01-2.422H46.003z"/><g><path fill="#ffd683" d="M54.112 64.166A8.497 1.426 0 1 0 54.112 67.018A8.497 1.426 0 1 0 54.112 64.166Z"/><path fill="#472b29" d="M54.111,67.405c-0.91,0-8.884-0.051-8.884-1.813s7.974-1.813,8.884-1.813 c0.91,0,8.884,0.051,8.884,1.813C62.996,67.354,55.021,67.405,54.111,67.405z M46.04,65.592 c0.443,0.382,3.125,1.039,8.071,1.039c4.947,0,7.63-0.658,8.072-1.039c-0.443-0.382-3.125-1.039-8.072-1.039 C49.165,64.553,46.482,65.21,46.04,65.592z M62.233,65.646h0.01H62.233z"/></g></g><g><path fill="#f1bc19" d="M45.616,61.07v2.865c0,0.788,3.804,1.426,8.497,1.426s8.497-0.638,8.497-1.426V61.07H45.616z"/><path fill="#472b29" d="M54.111,65.748c-0.91,0-8.884-0.051-8.884-1.813V61.07c0-0.214,0.173-0.387,0.387-0.387h16.993 c0.214,0,0.387,0.173,0.387,0.387v2.864C62.996,65.697,55.021,65.748,54.111,65.748z M46.003,61.458v2.477 c0.219,0.315,2.917,1.039,8.109,1.039s7.891-0.724,8.122-1.093l-0.01-2.422L46.003,61.458z"/><g><path fill="#ffd683" d="M54.112 59.650999999999996A8.497 1.426 0 1 0 54.112 62.503A8.497 1.426 0 1 0 54.112 59.650999999999996Z"/><path fill="#472b29" d="M54.111,62.89c-0.91,0-8.884-0.051-8.884-1.813c0-1.763,7.974-1.813,8.884-1.813 c0.91,0,8.884,0.051,8.884,1.813C62.996,62.839,55.021,62.89,54.111,62.89z M46.04,61.077c0.443,0.382,3.125,1.039,8.071,1.039 c4.947,0,7.63-0.658,8.072-1.039c-0.443-0.382-3.125-1.039-8.072-1.039C49.165,60.038,46.482,60.695,46.04,61.077z M62.233,61.131h0.01H62.233z"/></g></g><g><path fill="#f1bc19" d="M53.637,49.53v2.865c0,0.788,3.804,1.426,8.497,1.426s8.497-0.638,8.497-1.426V49.53H53.637z"/><path fill="#472b29" d="M62.134,54.208c-0.91,0-8.884-0.051-8.884-1.813V49.53c0-0.214,0.173-0.387,0.387-0.387H70.63 c0.214,0,0.387,0.173,0.387,0.387v2.865C71.018,54.158,63.043,54.208,62.134,54.208z M54.024,49.917v2.478 c0.219,0.315,2.917,1.039,8.109,1.039s7.891-0.724,8.122-1.093l-0.01-2.423H54.024z"/><g><path fill="#ffd683" d="M62.134 48.11A8.497 1.426 0 1 0 62.134 50.962A8.497 1.426 0 1 0 62.134 48.11Z"/><path fill="#472b29" d="M62.134,51.349c-0.91,0-8.884-0.051-8.884-1.813c0-1.762,7.974-1.813,8.884-1.813 c0.91,0,8.884,0.051,8.884,1.813C71.018,51.299,63.043,51.349,62.134,51.349z M54.062,49.536 c0.443,0.382,3.125,1.039,8.071,1.039c4.947,0,7.63-0.657,8.072-1.039c-0.443-0.382-3.125-1.039-8.072-1.039 C57.188,48.499,54.505,49.155,54.062,49.536z M70.256,49.592h0.01H70.256z"/></g></g><g><path fill="#f1bc19" d="M53.637,44.795v2.865c0,0.788,3.804,1.426,8.497,1.426s8.497-0.638,8.497-1.426v-2.865H53.637z"/><path fill="#472b29" d="M62.134,49.473c-0.91,0-8.884-0.051-8.884-1.813v-2.864c0-0.214,0.173-0.387,0.387-0.387H70.63 c0.214,0,0.387,0.173,0.387,0.387v2.864C71.018,49.423,63.043,49.473,62.134,49.473z M54.024,45.182v2.477 c0.219,0.315,2.917,1.039,8.109,1.039s7.891-0.725,8.122-1.094l-0.01-2.422H54.024V45.182z"/><g><path fill="#ffd683" d="M62.134 43.375A8.497 1.426 0 1 0 62.134 46.227000000000004A8.497 1.426 0 1 0 62.134 43.375Z"/><path fill="#472b29" d="M62.134,46.614c-0.91,0-8.884-0.051-8.884-1.813c0-1.762,7.974-1.813,8.884-1.813 c0.91,0,8.884,0.051,8.884,1.813C71.018,46.564,63.043,46.614,62.134,46.614z M54.062,44.801 c0.443,0.382,3.125,1.039,8.071,1.039c4.947,0,7.63-0.657,8.072-1.039c-0.442-0.382-3.124-1.039-8.072-1.039 C57.187,43.762,54.504,44.42,54.062,44.801z M70.256,44.856h0.01H70.256z"/></g></g></g><g><path fill="#472b29" d="M47.661,35.303h-1.129c-0.186,0-0.336-0.151-0.336-0.336c0-0.185,0.151-0.336,0.336-0.336h1.129 c0.186,0,0.336,0.151,0.336,0.336C47.997,35.152,47.847,35.303,47.661,35.303z"/></g><g><path fill="#472b29" d="M36.034,47.496c-0.039,0-0.08-0.01-0.116-0.031c-0.11-0.064-0.15-0.207-0.085-0.318l2.249-3.888 c0.064-0.112,0.207-0.149,0.317-0.085c0.11,0.064,0.15,0.207,0.085,0.318l-2.249,3.888C36.193,47.455,36.114,47.496,36.034,47.496 z"/></g><g><path fill="#472b29" d="M36.508,50.078c-0.039,0-0.08-0.01-0.116-0.031c-0.11-0.064-0.15-0.207-0.085-0.318l3.695-6.391 c0.064-0.11,0.207-0.149,0.317-0.085c0.11,0.064,0.15,0.207,0.085,0.318l-3.695,6.391C36.667,50.037,36.587,50.078,36.508,50.078z"/></g><g><path fill="#472b29" d="M38.712,50.078c-0.039,0-0.08-0.01-0.116-0.031c-0.11-0.064-0.15-0.207-0.085-0.318l3.695-6.391 c0.063-0.11,0.207-0.149,0.317-0.085c0.11,0.064,0.15,0.207,0.085,0.318l-3.695,6.391C38.87,50.037,38.792,50.078,38.712,50.078z"/></g><g><path fill="#472b29" d="M41.049,50.078c-0.039,0-0.08-0.01-0.116-0.031c-0.112-0.064-0.15-0.207-0.085-0.318l3.696-6.391 c0.063-0.11,0.207-0.149,0.317-0.085c0.112,0.064,0.15,0.207,0.085,0.318l-3.696,6.391C41.207,50.037,41.128,50.078,41.049,50.078 z"/></g><g><path fill="#472b29" d="M44.69,47.496c-0.039,0-0.08-0.01-0.116-0.031c-0.11-0.064-0.15-0.207-0.085-0.318l2.202-3.808 c0.064-0.11,0.208-0.149,0.317-0.085c0.11,0.064,0.15,0.207,0.085,0.318l-2.202,3.808C44.848,47.454,44.769,47.496,44.69,47.496z"/></g></g></svg>