<svg xmlns="http://www.w3.org/2000/svg" viewBox="0 0 100 100"><path fill="#f1bc19" d="M77 12A1 1 0 1 0 77 14A1 1 0 1 0 77 12Z"/><path fill="#e6edb7" d="M50 13A37 37 0 1 0 50 87A37 37 0 1 0 50 13Z"/><path fill="#f1bc19" d="M83 11A4 4 0 1 0 83 19A4 4 0 1 0 83 11Z"/><path fill="#88ae45" d="M87 22A2 2 0 1 0 87 26A2 2 0 1 0 87 22Z"/><path fill="#fbcd59" d="M81 74A2 2 0 1 0 81 78 2 2 0 1 0 81 74zM15 59A4 4 0 1 0 15 67 4 4 0 1 0 15 59z"/><path fill="#88ae45" d="M25 85A2 2 0 1 0 25 89A2 2 0 1 0 25 85Z"/><path fill="#fff" d="M18.5 49A2.5 2.5 0 1 0 18.5 54 2.5 2.5 0 1 0 18.5 49zM79.5 32A1.5 1.5 0 1 0 79.5 35 1.5 1.5 0 1 0 79.5 32z"/><path fill="#fdfcee" d="M35.7,73.3V29c0-1.269,1.032-2.3,2.3-2.3h31c1.268,0,2.3,1.031,2.3,2.3v37.926 c0,3.515-2.859,6.374-6.374,6.374H35.7z"/><path fill="#472b29" d="M69,27.4c0.882,0,1.6,0.718,1.6,1.6v37.926c0,3.129-2.545,5.674-5.674,5.674H36.4V29 c0-0.882,0.718-1.6,1.6-1.6H69 M69,26H38c-1.657,0-3,1.343-3,3v45h29.926C68.833,74,72,70.833,72,66.926V29 C72,27.343,70.657,26,69,26L69,26z"/><path fill="#fdfcee" d="M32.125,73.3c-3.543,0-6.425-2.882-6.425-6.425V66c0-1.269,1.032-2.3,2.3-2.3h29 c1.268,0,2.3,1.031,2.3,2.3v0.875c0,3.295,2.044,5.945,4.797,6.425H32.125z"/><path fill="#472b29" d="M57 64.4c.882 0 1.6.718 1.6 1.6v.875c0 2.359.959 4.419 2.472 5.725H32.125c-3.157 0-5.725-2.568-5.725-5.725V66c0-.882.718-1.6 1.6-1.6H57M57 63H28c-1.657 0-3 1.343-3 3v.875C25 70.81 28.19 74 32.125 74H65v-1.323c-2.875 0-5-2.608-5-5.802V66C60 64.343 58.657 63 57 63L57 63zM61.5 34h-3c-.276 0-.5-.224-.5-.5s.224-.5.5-.5h3c.276 0 .5.224.5.5S61.776 34 61.5 34zM55.5 34h-9c-.276 0-.5-.224-.5-.5s.224-.5.5-.5h9c.276 0 .5.224.5.5S55.776 34 55.5 34zM43.5 34h-3.997c-.276 0-.501-.224-.501-.5S39.223 33 39.5 33h4c.276 0 .5.224.5.5S43.776 34 43.5 34zM68 40H46.5c-.276 0-.5-.224-.5-.5s.224-.5.5-.5H68c.276 0 .5.224.5.5S68.276 40 68 40zM43.5 40h-3.997c-.276 0-.501-.224-.501-.5S39.223 39 39.5 39h4c.276 0 .5.224.5.5S43.776 40 43.5 40z"/><g><path fill="#472b29" d="M59,46H46.5c-0.276,0-0.5-0.224-0.5-0.5s0.224-0.5,0.5-0.5H59c0.276,0,0.5,0.224,0.5,0.5 S59.276,46,59,46z"/></g><g><path fill="#472b29" d="M43.5,46h-3.997c-0.276,0-0.501-0.224-0.501-0.5S39.223,45,39.5,45h4c0.276,0,0.5,0.224,0.5,0.5 S43.776,46,43.5,46z"/></g><g><path fill="#472b29" d="M68,52H46.5c-0.276,0-0.5-0.224-0.5-0.5s0.224-0.5,0.5-0.5H68c0.276,0,0.5,0.224,0.5,0.5 S68.276,52,68,52z"/></g><g><path fill="#472b29" d="M43.5,52h-3.997c-0.276,0-0.501-0.224-0.501-0.5S39.223,51,39.5,51h4c0.276,0,0.5,0.224,0.5,0.5 S43.776,52,43.5,52z"/></g><g><path fill="#472b29" d="M68,34h-3.5c-0.276,0-0.5-0.224-0.5-0.5s0.224-0.5,0.5-0.5H68c0.276,0,0.5,0.224,0.5,0.5 S68.276,34,68,34z"/></g><g><path fill="#472b29" d="M61.5,58h-3c-0.276,0-0.5-0.224-0.5-0.5s0.224-0.5,0.5-0.5h3c0.276,0,0.5,0.224,0.5,0.5 S61.776,58,61.5,58z"/></g><g><path fill="#472b29" d="M55.5,58h-9c-0.276,0-0.5-0.224-0.5-0.5s0.224-0.5,0.5-0.5h9c0.276,0,0.5,0.224,0.5,0.5 S55.776,58,55.5,58z"/></g><g><path fill="#472b29" d="M43.5,58h-3.997c-0.276,0-0.501-0.224-0.501-0.5S39.223,57,39.5,57h4c0.276,0,0.5,0.224,0.5,0.5 S43.776,58,43.5,58z"/></g><g><path fill="#472b29" d="M68,58h-3.5c-0.276,0-0.5-0.224-0.5-0.5s0.224-0.5,0.5-0.5H68c0.276,0,0.5,0.224,0.5,0.5 S68.276,58,68,58z"/></g><g><path fill="#472b29" d="M68,46h-6c-0.276,0-0.5-0.224-0.5-0.5S61.724,45,62,45h6c0.276,0,0.5,0.224,0.5,0.5S68.277,46,68,46 z"/></g></svg>