<svg xmlns="http://www.w3.org/2000/svg" viewBox="0 0 100 100"><path fill="#f1bc19" d="M77 12A1 1 0 1 0 77 14A1 1 0 1 0 77 12Z"/><path fill="#e6edb7" d="M50 13A37 37 0 1 0 50 87A37 37 0 1 0 50 13Z"/><path fill="#f1bc19" d="M83 11A4 4 0 1 0 83 19A4 4 0 1 0 83 11Z"/><path fill="#88ae45" d="M87 22A2 2 0 1 0 87 26A2 2 0 1 0 87 22Z"/><path fill="#fbcd59" d="M81 74A2 2 0 1 0 81 78 2 2 0 1 0 81 74zM15 59A4 4 0 1 0 15 67 4 4 0 1 0 15 59z"/><path fill="#88ae45" d="M25 85A2 2 0 1 0 25 89A2 2 0 1 0 25 85Z"/><path fill="#fff" d="M18.5 49A2.5 2.5 0 1 0 18.5 54 2.5 2.5 0 1 0 18.5 49zM79.5 32A1.5 1.5 0 1 0 79.5 35 1.5 1.5 0 1 0 79.5 32z"/><path fill="#afabd4" d="M36.835,62.985c-1.648-0.433-3.231-1.078-4.718-1.924c0.804-2.294,0.344-4.36-1.347-6.004 c-1.1-1.07-2.369-1.612-3.772-1.612c-0.698,0-1.429,0.137-2.18,0.408c-0.865-1.476-1.529-3.044-1.978-4.676 c2.254-1.069,3.411-2.884,3.354-5.282c-0.055-2.301-1.235-4.024-3.425-5.016c0.428-1.646,1.07-3.226,1.912-4.711 c0.779,0.292,1.537,0.439,2.258,0.438c1.441,0,2.739-0.575,3.855-1.712c1.661-1.688,2.062-3.778,1.174-6.077 c1.452-0.847,3.027-1.507,4.695-1.967c1.03,2.266,2.793,3.458,5.132,3.458c0.174,0,0.352-0.006,0.534-0.02 c2.183-0.161,3.801-1.354,4.713-3.462c1.642,0.437,3.221,1.088,4.708,1.942c-0.878,2.336-0.453,4.441,1.246,6.117 c1.111,1.097,2.39,1.652,3.803,1.652c0.734,0,1.501-0.153,2.286-0.456c0.656,1.068,1.621,3.414,1.931,4.696 c-2.278,1.063-3.452,2.883-3.401,5.294c0.048,2.273,1.209,3.994,3.37,5.009c-0.441,1.635-1.097,3.206-1.955,4.687 c-0.752-0.261-1.48-0.392-2.17-0.392c-1.597,0-2.995,0.685-4.156,2.036c-1.361,1.586-1.68,3.512-0.935,5.599 c-1.478,0.851-3.061,1.506-4.711,1.95c-0.971-2.084-2.877-3.314-5.166-3.314C39.697,59.676,37.782,60.97,36.835,62.985z M41.89,39.705c-2.312,0-4.201,1.872-4.211,4.174c-0.005,1.123,0.428,2.181,1.22,2.978c0.792,0.797,1.848,1.238,2.974,1.243 c2.298-0.013,4.144-1.803,4.209-4.074c0.033-1.139-0.383-2.217-1.171-3.036c-0.787-0.817-1.845-1.273-2.979-1.284 C41.929,39.705,41.892,39.705,41.89,39.705z"/><path fill="#472b29" d="M47.423,25.663c1.2,0.359,2.364,0.84,3.478,1.437c-0.712,2.382-0.168,4.537,1.604,6.287 c1.246,1.231,2.691,1.855,4.295,1.855c0.637,0,1.293-0.102,1.959-0.304c0.484,0.935,1.104,2.417,1.432,3.477 c-2.201,1.213-3.328,3.154-3.276,5.675c0.05,2.368,1.163,4.199,3.238,5.355c-0.365,1.205-0.853,2.373-1.458,3.49 c-0.629-0.171-1.244-0.257-1.837-0.257c-1.785,0-3.405,0.789-4.686,2.281c-1.412,1.646-1.833,3.604-1.244,5.721 c-1.116,0.599-2.291,1.086-3.511,1.453c-1.15-2.011-3.154-3.184-5.523-3.184l-0.088,0c-2.201,0.028-4.196,1.256-5.328,3.21 c-1.219-0.358-2.398-0.838-3.525-1.436c0.622-2.325,0.04-4.48-1.694-6.167c-1.235-1.202-2.668-1.811-4.26-1.811 c-0.601,0-1.221,0.09-1.853,0.268c-0.61-1.114-1.103-2.278-1.474-3.481c2.145-1.219,3.279-3.189,3.221-5.653 c-0.056-2.358-1.215-4.227-3.297-5.367c0.354-1.208,0.828-2.377,1.418-3.494c0.657,0.193,1.3,0.29,1.923,0.29 c1.636,0,3.102-0.646,4.355-1.921c1.732-1.761,2.25-3.901,1.528-6.246c1.096-0.594,2.26-1.081,3.478-1.454 c1.178,2.154,3.092,3.323,5.496,3.323c0.191,0,0.386-0.007,0.586-0.022C44.647,28.821,46.368,27.679,47.423,25.663 M41.875,48.799 c0.002,0,0.005,0,0.007,0c2.671-0.015,4.822-2.103,4.898-4.754c0.038-1.328-0.447-2.585-1.367-3.541 c-0.918-0.954-2.153-1.486-3.524-1.499c-2.696,0-4.899,2.185-4.911,4.87c-0.013,2.702,2.181,4.911,4.89,4.924 C41.871,48.799,41.873,48.799,41.875,48.799 M46.614,24c-0.725,2.108-2.131,3.43-4.335,3.592 c-0.164,0.012-0.325,0.018-0.483,0.018c-2.34,0-3.879-1.328-4.718-3.589c-2.144,0.524-4.141,1.353-5.994,2.513 c1.02,2.153,0.888,4.167-0.789,5.871c-1.013,1.03-2.145,1.503-3.357,1.503c-0.818,0-1.672-0.215-2.551-0.62 c-1.136,1.869-1.952,3.869-2.441,6.011c2.179,0.799,3.493,2.294,3.548,4.613c0.057,2.412-1.243,3.989-3.482,4.86 c0.516,2.125,1.356,4.102,2.515,5.953c0.85-0.378,1.677-0.58,2.471-0.58c1.181,0,2.287,0.445,3.283,1.415 c1.698,1.651,1.903,3.646,0.965,5.803c1.87,1.137,3.86,1.95,5.988,2.442c0.032-0.063,0.056-0.101,0.071-0.142 c0.769-2.005,2.517-3.288,4.517-3.313c0.023,0,0.047,0,0.071,0c2.106,0,3.847,1.188,4.657,3.202 c0.06,0.149,0.126,0.196,0.22,0.196c0.046,0,0.099-0.011,0.162-0.027c1.926-0.487,3.743-1.237,5.449-2.254 c0.093-0.056,0.182-0.119,0.255-0.167c-0.867-1.957-0.788-3.812,0.598-5.427c1.053-1.227,2.277-1.792,3.623-1.792 c0.785,0,1.611,0.192,2.469,0.558c1.15-1.859,1.979-3.84,2.483-5.961c-2.147-0.823-3.448-2.294-3.496-4.614 c-0.051-2.446,1.273-3.995,3.49-4.854c-0.135-1.336-1.691-5.091-2.478-5.985c-0.866,0.405-1.713,0.621-2.528,0.621 c-1.187,0-2.306-0.458-3.311-1.451c-1.724-1.701-1.859-3.737-0.858-5.91C50.761,25.329,48.757,24.498,46.614,24L46.614,24z M41.875,47.399c-1.942-0.009-3.506-1.582-3.497-3.518c0.009-1.927,1.571-3.476,3.511-3.476c0.012,0,0.023,0,0.035,0 c1.954,0.019,3.514,1.638,3.457,3.599C45.329,45.829,43.847,47.389,41.875,47.399L41.875,47.399z"/><path fill="#7777ab" d="M54.15,40.779c-1.725-6.776-8.617-10.871-15.393-9.146s-10.871,8.617-9.146,15.393 s8.617,10.871,15.393,9.146C51.78,54.447,55.875,47.555,54.15,40.779z M44.375,53.7c-5.411,1.378-10.915-1.893-12.292-7.304 c-1.378-5.411,1.893-10.915,7.304-12.292c5.411-1.378,10.915,1.893,12.292,7.304C53.056,46.819,49.786,52.323,44.375,53.7z"/><path fill="#472b29" d="M41.926 54.432c-4.589 0-8.782-3.099-9.964-7.746-1.399-5.494 1.933-11.101 7.427-12.5 5.488-1.399 11.101 1.933 12.5 7.427 1.399 5.494-1.933 11.101-7.427 12.5l0 0C43.614 54.329 42.763 54.432 41.926 54.432zM41.923 34.451c-.79 0-1.592.098-2.392.301-5.182 1.319-8.324 6.609-7.005 11.791 1.32 5.182 6.61 8.323 11.791 7.005l0 0c5.182-1.319 8.324-6.609 7.005-11.791C50.207 37.375 46.251 34.451 41.923 34.451zM44.389 53.831h.006H44.389zM29.903 39.949c-.033 0-.066-.006-.099-.017-.152-.055-.23-.222-.176-.373 1.467-4.084 4.851-7.161 9.051-8.23.159-.039.315.055.354.21.039.156-.055.314-.21.354-4.012 1.021-7.244 3.96-8.646 7.862C30.135 39.875 30.022 39.949 29.903 39.949z"/><path fill="#472b29" d="M42.193 56.798c-1.31 0-2.644-.192-3.967-.585-4.51-1.339-7.858-4.721-8.957-9.047-.039-.156.055-.314.21-.354.159-.041.315.055.354.21 1.047 4.124 4.247 7.35 8.558 8.631 4.343 1.291 8.822.323 11.98-2.587.118-.109.303-.102.412.017.109.118.102.303-.017.412C48.42 55.658 45.382 56.798 42.193 56.798zM53.068 50.06c-.263.481-.555.946-.877 1.391"/><path fill="#472b29" d="M52.192 51.742c-.06 0-.119-.018-.171-.055-.13-.095-.159-.277-.065-.407.312-.43.6-.888.858-1.359.078-.142.257-.192.396-.116.142.078.193.254.116.396-.269.494-.571.972-.896 1.422C52.371 51.701 52.282 51.742 52.192 51.742zM54.314 46.778c-.175.764-.42 1.512-.731 2.231"/><path fill="#472b29" d="M53.583 49.3c-.039 0-.078-.008-.116-.024-.148-.063-.216-.236-.152-.383.304-.701.544-1.435.715-2.18.036-.158.191-.256.349-.219.158.036.256.192.219.349-.178.78-.43 1.548-.748 2.282C53.802 49.235 53.695 49.3 53.583 49.3zM54.234 41.103c-.13 0-.249-.088-.282-.22-1.033-4.057-4.013-7.304-7.972-8.685-.152-.053-.233-.219-.18-.371.053-.153.221-.233.371-.18 4.145 1.446 7.263 4.845 8.344 9.093.039.156-.055.314-.21.354C54.282 41.1 54.258 41.103 54.234 41.103zM46.421 34.913L49.806 34.094"/><path fill="#472b29" d="M46.421 35.205c-.132 0-.251-.089-.283-.223-.038-.156.059-.314.215-.352l3.385-.819c.158-.036.313.059.352.215.038.156-.059.314-.215.352l-3.385.819C46.466 35.202 46.443 35.205 46.421 35.205zM49.372 36.858L51.918 36.437M49.371 37.15c-.14 0-.263-.101-.287-.244-.026-.159.081-.309.24-.335l2.546-.421c.154-.03.309.081.335.24.026.159-.081.309-.24.335l-2.546.421C49.403 37.149 49.387 37.15 49.371 37.15zM51.022 39.47L53.605 39.192M51.022 39.762c-.147 0-.273-.11-.289-.26-.017-.159.099-.304.259-.321l2.583-.279c.149-.019.304.098.321.259.017.159-.099.304-.259.321l-2.583.279C51.043 39.761 51.033 39.762 51.022 39.762zM37.044 32.336L37.299 34.701M37.299 34.992c-.147 0-.273-.11-.289-.26l-.255-2.363c-.017-.159.099-.304.259-.321.148-.016.304.098.321.259l.255 2.363c.017.159-.099.304-.259.321C37.32 34.991 37.309 34.992 37.299 34.992zM34.533 33.661L35.312 36.274M35.312 36.566c-.126 0-.242-.082-.28-.208l-.779-2.613c-.046-.155.042-.317.196-.363.155-.044.317.041.363.196l.779 2.613c.046.155-.042.317-.196.363C35.368 36.561 35.34 36.566 35.312 36.566zM32.012 35.97L33.548 38.245M33.548 38.536c-.093 0-.185-.045-.242-.129l-1.535-2.275c-.09-.133-.055-.314.079-.404.133-.091.314-.056.404.079l1.535 2.275c.09.133.055.314-.079.404C33.661 38.52 33.604 38.536 33.548 38.536zM30.178 48.719L32.797 48.583M30.178 49.011c-.155 0-.283-.12-.291-.277-.009-.16.115-.298.276-.306l2.618-.136c.179-.009.298.115.306.276.009.16-.115.298-.276.306l-2.618.136C30.188 49.011 30.183 49.011 30.178 49.011zM31.756 51.561L34.297 50.804M31.756 51.854c-.126 0-.242-.082-.28-.208-.046-.155.042-.317.196-.363l2.541-.758c.153-.045.317.042.363.196s-.042.317-.196.363l-2.541.758C31.812 51.849 31.783 51.854 31.756 51.854z"/><g><path fill="#472b29" d="M34.489 53.939L36.635 52.837M34.489 54.231c-.106 0-.208-.058-.259-.159-.073-.143-.017-.319.126-.393l2.145-1.102c.141-.072.319-.017.393.126.073.143.017.319-.126.393l-2.145 1.102C34.58 54.22 34.535 54.231 34.489 54.231z"/></g><g><path fill="#472b29" d="M37.989 55.575L39.574 54.06M37.989 55.867c-.077 0-.153-.031-.21-.09-.111-.116-.108-.301.009-.412l1.585-1.516c.116-.111.301-.107.412.009.111.116.108.301-.009.412l-1.585 1.516C38.134 55.84 38.061 55.867 37.989 55.867z"/></g><g><path fill="#472b29" d="M41.765 56.493L42.996 54.2M41.765 56.784c-.047 0-.094-.011-.138-.035-.142-.076-.195-.253-.119-.395l1.231-2.293c.077-.143.255-.195.395-.119.142.076.195.253.119.395l-1.231 2.293C41.969 56.729 41.869 56.784 41.765 56.784z"/></g><g><path fill="#472b29" d="M45.84 55.837L46.033 53.426M45.841 56.128c-.008 0-.016-.001-.024-.001-.16-.012-.28-.153-.267-.314l.193-2.411c.012-.16.157-.278.314-.267.16.012.28.153.267.314L46.13 55.86C46.119 56.012 45.991 56.128 45.841 56.128z"/></g><g><path fill="#472b29" d="M40.051 31.323c.776-.106 1.563-.14 2.346-.102M40.05 31.615c-.143 0-.268-.106-.288-.252-.022-.159.089-.306.249-.329.791-.109 1.598-.144 2.399-.105.16.008.284.144.277.306-.008.16-.122.297-.306.277-.764-.037-1.536-.003-2.291.1C40.077 31.614 40.064 31.615 40.05 31.615z"/></g><g><path fill="#fffef4" d="M47.53,71.3c-2.664,0-4.83-2.167-4.83-4.83V48.53c0-2.663,2.167-4.83,4.83-4.83H71.47 c2.664,0,4.83,2.167,4.83,4.83V66.47c0,2.663-2.167,4.83-4.83,4.83H47.53z"/></g><g><path fill="#472b29" d="M71.5,55h-15c-0.276,0-0.5-0.224-0.5-0.5s0.224-0.5,0.5-0.5h15c0.276,0,0.5,0.224,0.5,0.5 S71.776,55,71.5,55z"/></g><g><path fill="#472b29" d="M64.5,58h-8c-0.276,0-0.5-0.224-0.5-0.5s0.224-0.5,0.5-0.5h8c0.276,0,0.5,0.224,0.5,0.5 S64.776,58,64.5,58z"/></g><g><path fill="#472b29" d="M64.5,63h-8c-0.276,0-0.5-0.224-0.5-0.5s0.224-0.5,0.5-0.5h8c0.276,0,0.5,0.224,0.5,0.5 S64.776,63,64.5,63z"/></g><g><path fill="#472b29" d="M71.5,63h-5c-0.276,0-0.5-0.224-0.5-0.5s0.224-0.5,0.5-0.5h5c0.276,0,0.5,0.224,0.5,0.5 S71.776,63,71.5,63z"/></g><g><path fill="#472b29" d="M64.5,66h-8c-0.276,0-0.5-0.224-0.5-0.5s0.224-0.5,0.5-0.5h8c0.276,0,0.5,0.224,0.5,0.5 S64.776,66,64.5,66z"/></g><g><path fill="#472b29" d="M48.4,59.2c-0.132,0-0.259-0.053-0.354-0.146l-2.4-2.4c-0.195-0.195-0.195-0.512,0-0.707 s0.512-0.195,0.707,0l1.992,1.992l3.254-4.338c0.166-0.221,0.479-0.266,0.7-0.101c0.221,0.166,0.266,0.479,0.1,0.7L48.8,59 c-0.087,0.116-0.22,0.188-0.364,0.199C48.423,59.2,48.412,59.2,48.4,59.2z"/></g><g><path fill="#472b29" d="M48.4,67.2c-0.132,0-0.259-0.053-0.354-0.146l-2.4-2.4c-0.195-0.195-0.195-0.512,0-0.707 s0.512-0.195,0.707,0l1.992,1.992l3.254-4.338c0.166-0.221,0.479-0.266,0.7-0.101c0.221,0.166,0.266,0.479,0.1,0.7L48.8,67 c-0.087,0.116-0.22,0.188-0.364,0.199C48.423,67.2,48.412,67.2,48.4,67.2z"/></g><g><path fill="#d6d3c5" d="M77,51v-2.47c0-3.054-2.476-5.53-5.53-5.53H47.53C44.476,43,42,45.476,42,48.53V51H77z"/></g><g><path fill="#472b29" d="M71.47,44.4c2.278,0,4.13,1.853,4.13,4.13V66.47c0,2.277-1.853,4.13-4.13,4.13H47.53 c-2.278,0-4.13-1.853-4.13-4.13V48.53c0-2.277,1.853-4.13,4.13-4.13H71.47 M71.47,43H47.53C44.476,43,42,45.476,42,48.53V66.47 c0,3.054,2.476,5.53,5.53,5.53H71.47c3.054,0,5.53-2.476,5.53-5.53V48.53C77,45.476,74.524,43,71.47,43L71.47,43z"/></g><g><path fill="#472b29" d="M58.5,51h-15c-0.276,0-0.5-0.224-0.5-0.5s0.224-0.5,0.5-0.5h15c0.276,0,0.5,0.224,0.5,0.5 S58.776,51,58.5,51z"/></g><g><path fill="#472b29" d="M66.5,51h-5c-0.276,0-0.5-0.224-0.5-0.5s0.224-0.5,0.5-0.5h5c0.276,0,0.5,0.224,0.5,0.5 S66.776,51,66.5,51z"/></g><g><path fill="#472b29" d="M76.5,51h-7c-0.276,0-0.5-0.224-0.5-0.5s0.224-0.5,0.5-0.5h7c0.276,0,0.5,0.224,0.5,0.5 S76.776,51,76.5,51z"/></g></svg>