<svg xmlns="http://www.w3.org/2000/svg" viewBox="0 0 100 100"><path fill="#ee3e54" d="M13,27c-1.105,0-2,0.895-2,2s0.895,2,2,2s2-0.895,2-2S14.105,27,13,27z"/><path fill="#f1bc19" d="M77,12c-0.551,0-1,0.449-1,1s0.449,1,1,1s1-0.449,1-1S77.551,12,77,12z"/><path fill="#fce0a2" d="M50,13c-20.434,0-37,16.566-37,37s16.566,37,37,37s37-16.566,37-37S70.434,13,50,13z"/><path fill="#f1bc19" d="M83,11c-2.211,0-4,1.789-4,4s1.789,4,4,4s4-1.789,4-4S85.211,11,83,11z"/><path fill="#ee3e54" d="M87,22c-1.105,0-2,0.895-2,2s0.895,2,2,2s2-0.895,2-2S88.105,22,87,22z"/><path fill="#fbcd59" d="M81,74c-1.105,0-2,0.895-2,2s0.895,2,2,2s2-0.895,2-2S82.105,74,81,74z M15,59 c-2.211,0-4,1.789-4,4s1.789,4,4,4s4-1.789,4-4S17.211,59,15,59z"/><path fill="#ee3e54" d="M25,85c-1.105,0-2,0.895-2,2s0.895,2,2,2s2-0.895,2-2S26.105,85,25,85z"/><path fill="#fff" d="M21.5,34c-1.379,0-2.5,1.121-2.5,2.5s1.121,2.5,2.5,2.5s2.5-1.121,2.5-2.5S22.879,34,21.5,34z"/><path fill="#f1bc19" d="M21,66c-0.551,0-1,0.449-1,1s0.449,1,1,1s1-0.449,1-1S21.551,66,21,66z"/><path fill="#fff" d="M80,33c-0.551,0-1,0.449-1,1s0.449,1,1,1s1-0.449,1-1S80.551,33,80,33z"/><path fill="#472b29" d="M39.5,73L39.5,73c-0.828,0-1.5-0.672-1.5-1.5v-1c0-0.828,0.672-1.5,1.5-1.5l0,0 c0.828,0,1.5,0.672,1.5,1.5v1C41,72.328,40.328,73,39.5,73z"/><path fill="#472b29" d="M69.5,73L69.5,73c-0.828,0-1.5-0.672-1.5-1.5v-1c0-0.828,0.672-1.5,1.5-1.5l0,0 c0.828,0,1.5,0.672,1.5,1.5v1C71,72.328,70.328,73,69.5,73z"/><rect width="5.6" height="17.6" x="37.7" y="30.7" fill="#cbc9bc"/><path fill="#472b29" d="M42.6,31.4v16.2h-4.2V31.4H42.6 M44,30h-7v19h7V30L44,30z"/><rect width="22.6" height="8.6" x="27.7" y="46.7" fill="#cbc9bc"/><path fill="#472b29" d="M49.6,47.4v7.2H28.4v-7.2H49.6 M51,46H27v10h24V46L51,46z"/><path fill="#cbc9bc" d="M32.75,32.3c-1.682,0-3.05-1.368-3.05-3.05V27.7h28.6v1.55c0,1.682-1.368,3.05-3.05,3.05H32.75z"/><path fill="#472b29" d="M57.6,28.4v0.85c0,1.296-1.054,2.35-2.35,2.35h-22.5c-1.296,0-2.35-1.054-2.35-2.35V28.4H57.6 M59,27H29v2.25c0,2.071,1.679,3.75,3.75,3.75h22.5c2.071,0,3.75-1.679,3.75-3.75V27L59,27z"/><path fill="#a1a1ca" d="M36.395,70.3c-0.383,0-0.695-0.312-0.695-0.695v-5.91c0-0.23,0.121-0.446,0.323-0.578 c7.953-5.178,14.25-15.831,14.647-24.779c0.016-0.352,0.326-0.638,0.691-0.638h21.243c0.383,0,0.695,0.312,0.695,0.695v31.21 c0,0.383-0.312,0.695-0.695,0.695H36.395z"/><path fill="#472b29" d="M72.6,38.4l0.005,31.2L36.4,69.605l0.005-5.901C44.53,58.414,50.964,47.522,51.362,38.4H72.6 M72.605,37H51.362c-0.736,0-1.358,0.572-1.391,1.307c-0.405,9.125-7.049,19.483-14.33,24.224C35.245,62.789,35,63.223,35,63.695 v5.91C35,70.375,35.625,71,36.395,71h36.21C73.375,71,74,70.375,74,69.605v-31.21C74,37.625,73.375,37,72.605,37L72.605,37z"/><path fill="#cbc9bc" d="M29.175,57.5h-2.35c-0.732,0-1.325-0.593-1.325-1.325v-10.35c0-0.732,0.593-1.325,1.325-1.325h2.35 c0.732,0,1.325,0.593,1.325,1.325v10.35C30.5,56.907,29.907,57.5,29.175,57.5z"/><path fill="#472b29" d="M29.175,58h-2.35C25.819,58,25,57.181,25,56.175v-10.35C25,44.819,25.819,44,26.825,44h2.35 C30.181,44,31,44.819,31,45.825v10.35C31,57.181,30.181,58,29.175,58z M26.825,45C26.37,45,26,45.37,26,45.825v10.35 C26,56.63,26.37,57,26.825,57h2.35C29.63,57,30,56.63,30,56.175v-10.35C30,45.37,29.63,45,29.175,45H26.825z"/><path fill="#e1e0d8" d="M29.5,47.5h-3c-0.552,0-1-0.448-1-1l0,0c0-0.552,0.448-1,1-1h3c0.552,0,1,0.448,1,1l0,0 C30.5,47.052,30.052,47.5,29.5,47.5z"/><path fill="#472b29" d="M29.5,47.75h-3c-0.689,0-1.25-0.561-1.25-1.25s0.561-1.25,1.25-1.25h3c0.689,0,1.25,0.561,1.25,1.25 S30.189,47.75,29.5,47.75z M26.5,45.75c-0.414,0-0.75,0.336-0.75,0.75s0.336,0.75,0.75,0.75h3c0.414,0,0.75-0.336,0.75-0.75 s-0.336-0.75-0.75-0.75H26.5z"/><path fill="#e1e0d8" d="M29.5,50.5h-3c-0.552,0-1-0.448-1-1l0,0c0-0.552,0.448-1,1-1h3c0.552,0,1,0.448,1,1l0,0 C30.5,50.052,30.052,50.5,29.5,50.5z"/><path fill="#472b29" d="M29.5,50.75h-3c-0.689,0-1.25-0.561-1.25-1.25s0.561-1.25,1.25-1.25h3c0.689,0,1.25,0.561,1.25,1.25 S30.189,50.75,29.5,50.75z M26.5,48.75c-0.414,0-0.75,0.336-0.75,0.75s0.336,0.75,0.75,0.75h3c0.414,0,0.75-0.336,0.75-0.75 s-0.336-0.75-0.75-0.75H26.5z"/><g><path fill="#e1e0d8" d="M29.5,53.5h-3c-0.552,0-1-0.448-1-1l0,0c0-0.552,0.448-1,1-1h3c0.552,0,1,0.448,1,1l0,0 C30.5,53.052,30.052,53.5,29.5,53.5z"/><path fill="#472b29" d="M29.5,53.75h-3c-0.689,0-1.25-0.561-1.25-1.25s0.561-1.25,1.25-1.25h3c0.689,0,1.25,0.561,1.25,1.25 S30.189,53.75,29.5,53.75z M26.5,51.75c-0.414,0-0.75,0.336-0.75,0.75s0.336,0.75,0.75,0.75h3c0.414,0,0.75-0.336,0.75-0.75 s-0.336-0.75-0.75-0.75H26.5z"/></g><g><path fill="#e1e0d8" d="M29.5,56.5h-3c-0.552,0-1-0.448-1-1l0,0c0-0.552,0.448-1,1-1h3c0.552,0,1,0.448,1,1l0,0 C30.5,56.052,30.052,56.5,29.5,56.5z"/><path fill="#472b29" d="M29.5,56.75h-3c-0.689,0-1.25-0.561-1.25-1.25s0.561-1.25,1.25-1.25h3c0.689,0,1.25,0.561,1.25,1.25 S30.189,56.75,29.5,56.75z M26.5,54.75c-0.414,0-0.75,0.336-0.75,0.75s0.336,0.75,0.75,0.75h3c0.414,0,0.75-0.336,0.75-0.75 s-0.336-0.75-0.75-0.75H26.5z"/></g><g><path fill="#cbc9bc" d="M61,50c-0.047,0-0.088,0.021-0.133,0.027c-0.096-0.383-0.248-0.742-0.446-1.072 c0.037-0.028,0.081-0.042,0.115-0.076c0.391-0.391,0.391-1.024,0-1.415c-0.391-0.391-1.024-0.391-1.414,0 c-0.034,0.034-0.048,0.078-0.076,0.115c-0.33-0.198-0.689-0.35-1.072-0.446C57.979,47.087,58,47.047,58,47c0-0.552-0.448-1-1-1 s-1,0.448-1,1c0,0.047,0.021,0.087,0.027,0.133c-0.383,0.097-0.742,0.249-1.072,0.446c-0.028-0.037-0.042-0.081-0.076-0.115 c-0.391-0.391-1.024-0.391-1.414,0c-0.391,0.391-0.391,1.024,0,1.415c0.034,0.034,0.078,0.048,0.115,0.076 c-0.198,0.33-0.35,0.688-0.446,1.072C53.088,50.021,53.047,50,53,50c-0.552,0-1,0.448-1,1s0.448,1,1,1 c0.047,0,0.088-0.021,0.133-0.027c0.096,0.383,0.248,0.742,0.446,1.072c-0.037,0.028-0.081,0.042-0.115,0.076 c-0.391,0.391-0.391,1.024,0,1.415c0.391,0.391,1.024,0.391,1.414,0c0.034-0.034,0.048-0.078,0.076-0.115 c0.33,0.198,0.689,0.35,1.072,0.446C56.021,54.913,56,54.953,56,55c0,0.552,0.448,1,1,1s1-0.448,1-1 c0-0.047-0.021-0.087-0.027-0.133c0.383-0.097,0.742-0.249,1.072-0.446c0.028,0.037,0.042,0.081,0.076,0.115 c0.391,0.391,1.024,0.391,1.414,0c0.391-0.391,0.391-1.024,0-1.415c-0.034-0.034-0.078-0.048-0.115-0.076 c0.198-0.33,0.35-0.688,0.446-1.072C60.912,51.979,60.953,52,61,52c0.552,0,1-0.448,1-1S61.552,50,61,50z"/><path fill="#472b29" d="M57,56.25c-0.673,0-1.223-0.534-1.249-1.201c-0.251-0.078-0.495-0.18-0.729-0.304 c-0.491,0.454-1.258,0.443-1.734-0.033c-0.476-0.476-0.487-1.244-0.033-1.734c-0.124-0.234-0.226-0.479-0.304-0.729 C52.284,52.223,51.75,51.673,51.75,51s0.534-1.223,1.201-1.249c0.078-0.251,0.18-0.495,0.304-0.73 c-0.455-0.491-0.443-1.258,0.033-1.734c0.476-0.477,1.245-0.487,1.734-0.033c0.234-0.124,0.479-0.226,0.729-0.304 c0.026-0.667,0.576-1.201,1.249-1.201s1.223,0.534,1.249,1.201c0.251,0.078,0.495,0.18,0.729,0.304 c0.491-0.454,1.258-0.443,1.734,0.033c0.476,0.476,0.487,1.244,0.033,1.734c0.124,0.234,0.226,0.479,0.304,0.729 c0.667,0.026,1.201,0.576,1.201,1.249s-0.534,1.223-1.201,1.249c-0.078,0.251-0.18,0.495-0.304,0.73 c0.455,0.491,0.443,1.258-0.033,1.734c-0.477,0.477-1.244,0.487-1.734,0.033c-0.234,0.124-0.479,0.226-0.729,0.304 C58.223,55.716,57.673,56.25,57,56.25z M54.892,54.092l0.191,0.115c0.316,0.189,0.654,0.33,1.004,0.418l0.218,0.055l-0.051,0.309 C56.25,55.414,56.586,55.75,57,55.75s0.75-0.336,0.75-0.75l-0.056-0.32l0.218-0.055c0.351-0.089,0.688-0.229,1.004-0.418 l0.191-0.115l0.186,0.255c0.297,0.305,0.772,0.304,1.065,0.012c0.292-0.292,0.292-0.769,0-1.061l-0.267-0.19l0.115-0.192 c0.189-0.316,0.33-0.653,0.418-1.004l0.055-0.218l0.309,0.051c0.003,0,0.006,0,0.009,0c0.42,0,0.752-0.335,0.752-0.745 c0-0.411-0.333-0.747-0.744-0.75l-0.327,0.056l-0.055-0.218c-0.089-0.351-0.229-0.689-0.418-1.004l-0.115-0.192l0.255-0.185 c0.305-0.297,0.305-0.773,0.012-1.066c-0.293-0.293-0.769-0.292-1.061,0l-0.054,0.09l-0.136,0.178l-0.191-0.115 c-0.316-0.189-0.654-0.33-1.004-0.418l-0.218-0.055l0.051-0.309C57.75,46.586,57.414,46.25,57,46.25s-0.75,0.336-0.75,0.75 l0.056,0.32l-0.218,0.055c-0.351,0.089-0.688,0.229-1.004,0.418l-0.191,0.115l-0.186-0.255c-0.297-0.305-0.773-0.304-1.065-0.012 c-0.292,0.292-0.292,0.769,0,1.061l0.267,0.19l-0.115,0.192c-0.189,0.316-0.33,0.653-0.418,1.004l-0.055,0.218l-0.309-0.051 c-0.003,0-0.006,0-0.009,0c-0.42,0-0.752,0.335-0.752,0.745c0,0.414,0.336,0.75,0.75,0.75l0.098-0.024l0.222-0.031l0.055,0.218 c0.089,0.351,0.229,0.689,0.418,1.004l0.115,0.192l-0.255,0.185c-0.305,0.297-0.305,0.773-0.012,1.066 c0.293,0.293,0.768,0.292,1.061,0l0.054-0.09L54.892,54.092z"/></g><g><path fill="#472b29" d="M43.5,52.75h-4c-0.138,0-0.25-0.112-0.25-0.25s0.112-0.25,0.25-0.25h4c0.138,0,0.25,0.112,0.25,0.25 S43.638,52.75,43.5,52.75z"/></g><g><path fill="#472b29" d="M37.5,52.75h-7c-0.138,0-0.25-0.112-0.25-0.25s0.112-0.25,0.25-0.25h7c0.138,0,0.25,0.112,0.25,0.25 S37.638,52.75,37.5,52.75z"/></g><g><path fill="#472b29" d="M41.5,44.75c-0.138,0-0.25-0.112-0.25-0.25v-3c0-0.138,0.112-0.25,0.25-0.25s0.25,0.112,0.25,0.25v3 C41.75,44.638,41.638,44.75,41.5,44.75z"/></g><g><path fill="#472b29" d="M41.5,39.75c-0.138,0-0.25-0.112-0.25-0.25v-5c0-0.138,0.112-0.25,0.25-0.25s0.25,0.112,0.25,0.25v5 C41.75,39.638,41.638,39.75,41.5,39.75z"/></g><g><path fill="#472b29" d="M57,53.75c-0.138,0-0.25-0.112-0.25-0.25s0.112-0.25,0.25-0.25c0.816,0,1.57-0.443,1.968-1.157 c0.067-0.121,0.22-0.164,0.34-0.097c0.121,0.067,0.164,0.219,0.097,0.34C58.918,53.208,57.997,53.75,57,53.75z"/></g><g><path fill="#472b29" d="M59.5,51.25c-0.138,0-0.25-0.112-0.25-0.25c0-1.241-1.009-2.25-2.25-2.25 c-0.138,0-0.25-0.112-0.25-0.25s0.112-0.25,0.25-0.25c1.517,0,2.75,1.234,2.75,2.75C59.75,51.138,59.638,51.25,59.5,51.25z"/></g><g><path fill="#472b29" d="M55.363,53.139c-0.058,0-0.116-0.02-0.164-0.061c-0.604-0.523-0.949-1.28-0.949-2.078 c0-0.774,0.329-1.516,0.902-2.037c0.102-0.093,0.261-0.085,0.353,0.017c0.093,0.102,0.085,0.26-0.017,0.353 C55.019,49.759,54.75,50.367,54.75,51c0,0.653,0.283,1.273,0.776,1.7c0.104,0.09,0.116,0.248,0.025,0.353 C55.502,53.11,55.433,53.139,55.363,53.139z"/></g><g><path fill="#472b29" d="M70.5,67.75h-5c-0.138,0-0.25-0.112-0.25-0.25s0.112-0.25,0.25-0.25h5c0.138,0,0.25,0.112,0.25,0.25 S70.638,67.75,70.5,67.75z"/></g><g><path fill="#472b29" d="M63.5,67.75h-12c-0.138,0-0.25-0.112-0.25-0.25s0.112-0.25,0.25-0.25h12 c0.138,0,0.25,0.112,0.25,0.25S63.638,67.75,63.5,67.75z"/></g><g><path fill="#472b29" d="M70.5,67.75c-0.138,0-0.25-0.112-0.25-0.25v-12c0-0.138,0.112-0.25,0.25-0.25s0.25,0.112,0.25,0.25 v12C70.75,67.638,70.638,67.75,70.5,67.75z"/></g><g><path fill="#472b29" d="M70.5,53.75c-0.138,0-0.25-0.112-0.25-0.25v-13c0-0.138,0.112-0.25,0.25-0.25s0.25,0.112,0.25,0.25 v13C70.75,53.638,70.638,53.75,70.5,53.75z"/></g><g><path fill="#472b29" d="M49.5,67.75h-11c-0.138,0-0.25-0.112-0.25-0.25s0.112-0.25,0.25-0.25h11 c0.138,0,0.25,0.112,0.25,0.25S49.638,67.75,49.5,67.75z"/></g></svg>