<svg xmlns="http://www.w3.org/2000/svg" viewBox="0 0 100 100"><circle cx="77" cy="13" r="1" fill="#f1bc19"/><circle cx="50" cy="50" r="37" fill="#e4e4f9"/><circle cx="83" cy="15" r="4" fill="#f1bc19"/><circle cx="87" cy="24" r="2" fill="#8889b9"/><circle cx="81" cy="76" r="2" fill="#fbcd59"/><circle cx="15" cy="63" r="4" fill="#fbcd59"/><circle cx="25" cy="87" r="2" fill="#8889b9"/><circle cx="18.5" cy="51.5" r="2.5" fill="#fff"/><circle cx="79.5" cy="33.5" r="1.5" fill="#fff"/><path fill="#be7841" d="M32,75.3c-1.269,0-2.3-1.031-2.3-2.3V28c0-1.269,1.031-2.3,2.3-2.3h35c1.269,0,2.3,1.031,2.3,2.3 v45c0,1.269-1.031,2.3-2.3,2.3H32z"/><path fill="#472b29" d="M67,26.4c0.882,0,1.6,0.718,1.6,1.6v45c0,0.882-0.718,1.6-1.6,1.6H32c-0.882,0-1.6-0.718-1.6-1.6 V28c0-0.882,0.718-1.6,1.6-1.6H67 M67,25H32c-1.657,0-3,1.343-3,3v45c0,1.657,1.343,3,3,3h35c1.657,0,3-1.343,3-3V28 C70,26.343,68.657,25,67,25L67,25z"/><polygon fill="#fffef4" points="33.7,70.3 33.7,29.7 65.3,29.7 65.3,63.018 58.018,70.3"/><path fill="#472b29" d="M64.6,30.4v32.328L57.728,69.6H34.4V30.4H64.6 M66,29H33v42h25.308L66,63.308V29L66,29z"/><polygon fill="#88cdd7" points="64.437,63.003 58.037,69.219 58,63.003"/><g><path fill="#f2df5e" d="M43.484,32.3c-0.984,0-1.784-0.677-1.784-1.508v-3.584c0-0.841,0.415-0.978,0.551-1.022 c0.035-0.012,0.069-0.026,0.103-0.044l4.396-2.28c1.2-0.578,2.243-0.852,3.263-0.852c1.024,0,2.093,0.275,3.363,0.865l4.356,2.562 c0.033,0.02,0.067,0.036,0.103,0.05c0.453,0.175,0.466,0.666,0.466,0.722v3.584c0,0.831-0.8,1.508-1.784,1.508H43.484z"/><path fill="#472b29" d="M50.012,23.71c0.903,0,1.86,0.246,3.008,0.772l4.356,2.559c0.066,0.039,0.129,0.063,0.2,0.091 c0.01,0.014,0.022,0.055,0.023,0.077v3.583c0,0.438-0.497,0.809-1.084,0.809H43.484c-0.588,0-1.084-0.37-1.084-0.809v-3.583 c0-0.225,0.047-0.341,0.07-0.358c0.071-0.023,0.14-0.052,0.206-0.087l4.358-2.262C48.155,23.961,49.101,23.71,50.012,23.71 M50.012,22.31c-1.155,0-2.299,0.31-3.585,0.93l-4.396,2.281C41.211,25.792,41,26.559,41,27.208v3.583 C41,32.011,42.112,33,43.484,33h13.031C57.888,33,59,32.011,59,30.792v-3.583c0-0.43-0.211-1.104-0.914-1.375L53.67,23.24 C52.335,22.62,51.167,22.31,50.012,22.31L50.012,22.31z"/></g><g><circle cx="50" cy="26" r="1" fill="#472b29"/></g><g><path fill="#472b29" d="M59.2,70h-1.4v-6.5c0-0.387,0.313-0.7,0.7-0.7H65v1.4h-5.8V70z"/></g><g><polyline fill="#fffef4" points="54.069,51.603 51.342,58.352 58.091,55.625"/><path fill="#472b29" d="M51.342,59.053c-0.182,0-0.361-0.071-0.495-0.205c-0.198-0.199-0.259-0.497-0.154-0.758 l2.728-6.749l1.299,0.525l-2.11,5.22l5.22-2.11l0.525,1.299l-6.749,2.728C51.52,59.036,51.43,59.053,51.342,59.053z"/><path fill="#ef7d99" d="M71.062,41.429c-0.751,0-1.454-0.29-1.98-0.816s-0.816-1.229-0.816-1.979 c0-0.751,0.29-1.454,0.816-1.98l2.121-2.121c0.526-0.526,1.229-0.816,1.98-0.816c0.75,0,1.453,0.29,1.979,0.816 s0.816,1.229,0.816,1.979c0,0.751-0.29,1.454-0.816,1.979l-2.121,2.122C72.516,41.139,71.812,41.429,71.062,41.429z"/><path fill="#472b29" d="M73.183,34.415c0.564,0,1.091,0.217,1.485,0.611c0.819,0.819,0.819,2.151,0,2.97l-2.121,2.121 c-0.394,0.394-0.921,0.611-1.485,0.611c-0.564,0-1.091-0.217-1.485-0.611c-0.819-0.819-0.819-2.151,0-2.97l2.121-2.121 C72.092,34.632,72.62,34.415,73.183,34.415 M73.183,33.015c-0.897,0-1.794,0.34-2.475,1.021l-2.121,2.121 c-1.361,1.361-1.361,3.588,0,4.95c0.681,0.68,1.578,1.021,2.475,1.021c0.897,0,1.794-0.34,2.475-1.021l2.121-2.121 c1.361-1.361,1.361-3.589,0-4.95C74.978,33.355,74.08,33.015,73.183,33.015L73.183,33.015z"/><g><rect width="20.6" height="5.6" x="53.337" y="43.257" fill="#f2df5e" transform="rotate(-45.001 63.637 46.058)"/><path fill="#472b29" d="M68.941,37.784l2.97,2.97L58.334,54.33l-2.97-2.97L68.941,37.784 M68.941,35.804L53.384,51.36 l4.95,4.95L73.89,40.754L68.941,35.804L68.941,35.804z"/></g><g><rect width="3.599" height="5.6" x="69.262" y="35.832" fill="#88cdd7" transform="rotate(-45.001 71.062 38.633)"/><path fill="#472b29" d="M70.355,36.37l2.97,2.97l-1.556,1.556l-2.97-2.97L70.355,36.37 M70.355,34.39l-3.536,3.535 l4.95,4.95l3.536-3.536L70.355,34.39L70.355,34.39z"/></g></g><g><path fill="#472b29" d="M37.5,55.75c-0.138,0-0.25-0.112-0.25-0.25v-4c0-0.138,0.112-0.25,0.25-0.25s0.25,0.112,0.25,0.25v4 C37.75,55.638,37.638,55.75,37.5,55.75z"/></g><g><path fill="#472b29" d="M37.5,49.75c-0.138,0-0.25-0.112-0.25-0.25v-15c0-0.138,0.112-0.25,0.25-0.25s0.25,0.112,0.25,0.25 v15C37.75,49.638,37.638,49.75,37.5,49.75z"/></g><g><path fill="#472b29" d="M41.5,66.75h-4c-0.138,0-0.25-0.112-0.25-0.25s0.112-0.25,0.25-0.25h4c0.138,0,0.25,0.112,0.25,0.25 S41.638,66.75,41.5,66.75z"/></g><g><path fill="#472b29" d="M45.5,66.75h-2c-0.138,0-0.25-0.112-0.25-0.25s0.112-0.25,0.25-0.25h2c0.138,0,0.25,0.112,0.25,0.25 S45.638,66.75,45.5,66.75z"/></g><g><path fill="#472b29" d="M52.5,66.75h-5c-0.138,0-0.25-0.112-0.25-0.25s0.112-0.25,0.25-0.25h5c0.138,0,0.25,0.112,0.25,0.25 S52.638,66.75,52.5,66.75z"/></g><g><path fill="#472b29" d="M37.5,66.75c-0.138,0-0.25-0.112-0.25-0.25v-8c0-0.138,0.112-0.25,0.25-0.25s0.25,0.112,0.25,0.25v8 C37.75,66.638,37.638,66.75,37.5,66.75z"/></g></svg>