<svg xmlns="http://www.w3.org/2000/svg" viewBox="0 0 100 100"><path fill="#f1bc19" d="M79 12A1 1 0 1 0 79 14A1 1 0 1 0 79 12Z"/><path fill="#c0e5e4" d="M50 13A37 37 0 1 0 50 87A37 37 0 1 0 50 13Z"/><path fill="#f1bc19" d="M85 11A4 4 0 1 0 85 19A4 4 0 1 0 85 11Z"/><path fill="#00a5a5" d="M13 27A2 2 0 1 0 13 31A2 2 0 1 0 13 27Z"/><path fill="#fbcd59" d="M80 76A2 2 0 1 0 80 80 2 2 0 1 0 80 76zM26 72A4 4 0 1 0 26 80 4 4 0 1 0 26 72z"/><path fill="#00a5a5" d="M27 85A2 2 0 1 0 27 89A2 2 0 1 0 27 85Z"/><path fill="#fff" d="M58.5 78A2.5 2.5 0 1 0 58.5 83 2.5 2.5 0 1 0 58.5 78zM23.029 68A.971.971 0 1 0 23.029 69.94200000000001.971.971 0 1 0 23.029 68z"/><path fill="#f1bc19" d="M85 30A1 1 0 1 0 85 32A1 1 0 1 0 85 30Z"/><path fill="#fff" d="M78 66A2 2 0 1 0 78 70 2 2 0 1 0 78 66zM79 33A1 1 0 1 0 79 35 1 1 0 1 0 79 33z"/><path fill="#ee3e54" d="M50 27A23 23 0 1 0 50 73A23 23 0 1 0 50 27Z"/><path fill="#472b29" d="M70.69,60c-0.29,0-0.54,0.17-0.65,0.43C66.27,67.66,58.7,72.6,50,72.6c-12.46,0-22.6-10.14-22.6-22.6 c0-12.46,10.14-22.6,22.6-22.6c8.7,0,16.27,4.94,20.04,12.17C70.15,39.82,70.4,40,70.69,40c0.38,0,0.69-0.32,0.69-0.7 c0-0.1-0.02-0.19-0.05-0.27C67.36,31.3,59.29,26,50,26c-13.23,0-24,10.77-24,24c0,13.23,10.77,24,24,24 c9.29,0,17.36-5.3,21.33-13.03c0.03-0.08,0.05-0.17,0.05-0.27c0-0.1-0.02-0.19-0.05-0.27C71.22,60.17,70.98,60,70.69,60z"/><path fill="#fdfcef" d="M71.307,42.557c-0.843-0.819-2.242-0.717-2.948,0.295c-0.554,0.795-0.367,1.897,0.334,2.565 L71.402,48H53c-1.105,0-2,0.895-2,2v0c0,1.105,0.895,2,2,2h18.398l-2.702,2.571c-0.702,0.668-0.891,1.768-0.34,2.564 c0.702,1.013,2.103,1.119,2.948,0.3L79,50L71.307,42.557z"/><path fill="#472b29" d="M71.307,42.557c-0.376-0.365-0.863-0.547-1.349-0.547c-0.604,0-1.208,0.281-1.599,0.842 c-0.554,0.795-0.367,1.897,0.334,2.565L71.402,48H53c-1.105,0-2,0.895-2,2s0.895,2,2,2h18.398l-2.702,2.571 c-0.702,0.668-0.891,1.768-0.34,2.564c0.39,0.563,0.995,0.846,1.602,0.846c0.485,0,0.971-0.181,1.347-0.545L79,50L71.307,42.557z M70.783,56.896c-0.223,0.215-0.516,0.334-0.825,0.334c-0.396,0-0.755-0.191-0.985-0.523c-0.325-0.469-0.221-1.154,0.24-1.593 l2.702-2.571c0.222-0.211,0.293-0.537,0.179-0.822c-0.114-0.285-0.39-0.472-0.696-0.472H53c-0.689,0-1.25-0.561-1.25-1.25 s0.561-1.25,1.25-1.25h18.402c0.307,0,0.582-0.187,0.696-0.471c0.114-0.285,0.043-0.61-0.179-0.822l-2.709-2.583 c-0.454-0.433-0.558-1.133-0.237-1.594c0.231-0.331,0.589-0.521,0.984-0.521c0.31,0,0.604,0.119,0.828,0.336L77.921,50 L70.783,56.896z"/></svg>