<svg xmlns="http://www.w3.org/2000/svg" viewBox="0 0 100 100"><path fill="#ee3e54" d="M13 27A2 2 0 1 0 13 31A2 2 0 1 0 13 27Z"/><path fill="#f1bc19" d="M77 12A1 1 0 1 0 77 14A1 1 0 1 0 77 12Z"/><path fill="#fce0a2" d="M50 13A37 37 0 1 0 50 87A37 37 0 1 0 50 13Z"/><path fill="#f1bc19" d="M83 11A4 4 0 1 0 83 19A4 4 0 1 0 83 11Z"/><path fill="#ee3e54" d="M87 22A2 2 0 1 0 87 26A2 2 0 1 0 87 22Z"/><path fill="#fbcd59" d="M81 74A2 2 0 1 0 81 78 2 2 0 1 0 81 74zM15 59A4 4 0 1 0 15 67 4 4 0 1 0 15 59z"/><path fill="#ee3e54" d="M25 85A2 2 0 1 0 25 89A2 2 0 1 0 25 85Z"/><path fill="#fff" d="M18.5 51A2.5 2.5 0 1 0 18.5 56A2.5 2.5 0 1 0 18.5 51Z"/><path fill="#f1bc19" d="M21 66A1 1 0 1 0 21 68A1 1 0 1 0 21 66Z"/><path fill="#fff" d="M80 33A1 1 0 1 0 80 35A1 1 0 1 0 80 33Z"/><path fill="#fdfcee" d="M30.81,37.369c-1.552,0-2.81,3.893-2.81,8.694s1.258,8.694,2.81,8.694"/><path fill="#472b29" d="M30.81,55.257c-2.173,0-3.31-4.625-3.31-9.193c0-4.569,1.137-9.194,3.31-9.194v1 c-0.964,0-2.31,3.117-2.31,8.194c0,5.076,1.345,8.193,2.31,8.193V55.257z"/><path fill="#58589c" d="M60.189,54.046l-4.829,12.07c-0.648,1.542-0.104,3.2,1.209,3.684l0,0 c1.313,0.484,2.917-0.382,3.565-1.924l6.744-15.619"/><path fill="#472b29" d="M57.327,70.632c-0.338,0-0.676-0.057-1-0.177c-0.737-0.271-1.324-0.837-1.653-1.593 c-0.397-0.912-0.382-2.013,0.04-3.019l4.825-12.058l1.3,0.52L56.01,66.375c-0.28,0.667-0.297,1.365-0.052,1.929 c0.124,0.285,0.372,0.661,0.853,0.838c0.952,0.351,2.179-0.353,2.677-1.538l6.747-15.625l1.285,0.555l-6.744,15.619 C60.141,69.666,58.723,70.632,57.327,70.632z"/><path fill="#afabd4" d="M33.346,66.3c-0.908,0-1.646-0.664-1.646-1.481V26.182c0-0.817,0.738-1.481,1.646-1.481 c0.907,0,1.646,0.664,1.646,1.481l0.161,1.3c0.03,0.233,0.176,0.438,0.388,0.54l17.235,8.399c0.097,0.048,0.202,0.071,0.307,0.071 c0.056,0,0.112-0.007,0.166-0.021l17.645,1.459c0.084,0.052,0.18,0.084,0.281,0.09c1.51,0.092,3.126,3.069,3.126,7.356 c0,4.341-1.686,7.366-3.198,7.366L53.207,54.28c-0.05-0.012-0.101-0.018-0.152-0.018c-0.091,0-0.182,0.019-0.267,0.058 l-17.235,7.961c-0.229,0.106-0.384,0.327-0.404,0.579l-0.155,1.901C34.992,65.636,34.253,66.3,33.346,66.3z"/><path fill="#472b29" d="M33.346,25.4c0.513,0,0.946,0.358,0.946,0.781c0,0.059,0.004,0.118,0.011,0.177l0.155,1.212 c0.06,0.468,0.351,0.875,0.775,1.081l17.235,8.399c0.186,0.091,0.386,0.134,0.586,0.134c0.06,0,0.121-0.004,0.18-0.012 l17.445,1.442c0.14,0.058,0.292,0.094,0.452,0.104c0.983,0.06,2.468,2.745,2.468,6.657c0,4.008-1.504,6.667-2.499,6.667 c-0.04,0-0.08,0.001-0.12,0.005L53.279,53.57c-0.065-0.009-0.131-0.014-0.198-0.014c-0.2,0-0.4,0.042-0.587,0.129l-17.235,7.96 c-0.459,0.212-0.767,0.654-0.808,1.158l-0.155,1.902c-0.003,0.038-0.005,0.075-0.005,0.113c0,0.423-0.433,0.781-0.946,0.781 c-0.513,0-0.946-0.358-0.946-0.781V26.181C32.4,25.758,32.833,25.4,33.346,25.4 M33.346,24C32.055,24,31,24.981,31,26.181v38.638 c0,1.2,1.056,2.181,2.346,2.181c1.29,0,2.346-0.982,2.346-2.181l0.155-1.902l17.235-7.96v0.036l18.02-1.549 c2.153,0,3.899-3.612,3.899-8.067c0-4.375-1.684-7.928-3.784-8.055v-0.067l-18.135-1.5v0.037l-17.235-8.399l-0.155-1.212 C35.692,24.982,34.636,24,33.346,24L33.346,24z"/><path fill="#7979b6" d="M70.438 38.798l.473.18c1.499.104 2.812 3.103 2.812 6.691 0 3.654-1.247 6.617-2.784 6.617l-.501.05L70.438 38.798 70.438 38.798zM33.369 25.204c.603 0 1.095.932 1.095 2.071l.039.624v35.083l-.039.979c0 1.139-.493 2.071-1.095 2.071-.603 0-1.095-.932-1.095-2.071V27.275C32.274 26.136 32.767 25.204 33.369 25.204z"/><path fill="#472b29" d="M70.5 52.75c-.138 0-.25-.112-.25-.25v-7c0-.138.112-.25.25-.25s.25.112.25.25v7C70.75 52.638 70.638 52.75 70.5 52.75zM70.5 43.75c-.138 0-.25-.112-.25-.25v-5c0-.138.112-.25.25-.25s.25.112.25.25v5C70.75 43.638 70.638 43.75 70.5 43.75zM53.501 40.75c-.138 0-.25-.112-.25-.25v-4c0-.138.112-.25.25-.25s.25.112.25.25v4C53.751 40.638 53.639 40.75 53.501 40.75z"/><g><path fill="#472b29" d="M67.5,41h-10c-0.276,0-0.5-0.224-0.5-0.5s0.224-0.5,0.5-0.5h10c0.276,0,0.5,0.224,0.5,0.5 S67.776,41,67.5,41z"/></g><g><path fill="#472b29" d="M67.5,44h-10c-0.276,0-0.5-0.224-0.5-0.5s0.224-0.5,0.5-0.5h10c0.276,0,0.5,0.224,0.5,0.5 S67.776,44,67.5,44z"/></g><g><path fill="#472b29" d="M67.833,47.022H57.322c-0.276,0-0.5-0.224-0.5-0.5s0.224-0.5,0.5-0.5h10.511 c0.276,0,0.5,0.224,0.5,0.5S68.11,47.022,67.833,47.022z"/></g><g><path fill="#472b29" d="M67.833,49.889H57.322c-0.276,0-0.5-0.224-0.5-0.5s0.224-0.5,0.5-0.5h10.511 c0.276,0,0.5,0.224,0.5,0.5S68.11,49.889,67.833,49.889z"/></g><g><path fill="#472b29" d="M53.5,54.75c-0.138,0-0.25-0.112-0.25-0.25v-9c0-0.138,0.112-0.25,0.25-0.25s0.25,0.112,0.25,0.25v9 C53.75,54.638,53.638,54.75,53.5,54.75z"/></g><g><path fill="#472b29" d="M35.5,48c-0.276,0-0.5-0.224-0.5-0.5v-20c0-0.276,0.224-0.5,0.5-0.5s0.5,0.224,0.5,0.5v20 C36,47.776,35.776,48,35.5,48z"/></g><g><path fill="#472b29" d="M35.5,54c-0.276,0-0.5-0.224-0.5-0.5v-3c0-0.276,0.224-0.5,0.5-0.5s0.5,0.224,0.5,0.5v3 C36,53.776,35.776,54,35.5,54z"/></g><g><path fill="#472b29" d="M35.5,64c-0.276,0-0.5-0.224-0.5-0.5v-7c0-0.276,0.224-0.5,0.5-0.5s0.5,0.224,0.5,0.5v7 C36,63.776,35.776,64,35.5,64z"/></g><g><path fill="#472b29" d="M53.5,44.75c-0.138,0-0.25-0.112-0.25-0.25v-3c0-0.138,0.112-0.25,0.25-0.25s0.25,0.112,0.25,0.25v3 C53.75,44.638,53.638,44.75,53.5,44.75z"/></g><g><path fill="#472b29" d="M58.701,58.967c-0.475,0-1.834-0.095-2.904-1.089c-0.905-0.84-1.363-2.089-1.363-3.711h1 c0,1.333,0.351,2.335,1.044,2.979c0.976,0.906,2.305,0.823,2.321,0.818l0.073,0.998C58.859,58.963,58.799,58.967,58.701,58.967z"/></g><g><path fill="#472b29" d="M28.699,58.697c-3.023,0-5.392-5.38-5.392-12.247s2.368-12.247,5.392-12.247 c0.152,0,0.275,0.123,0.275,0.275s-0.123,0.275-0.275,0.275c-2.625,0-4.842,5.356-4.842,11.696s2.217,11.696,4.842,11.696 c0.152,0,0.275,0.123,0.275,0.275S28.851,58.697,28.699,58.697z"/></g><g><path fill="#472b29" d="M27.136,60.697c-3.047,0-6.392-7.457-6.392-14.247s3.345-14.247,6.392-14.247 c0.152,0,0.275,0.123,0.275,0.275s-0.123,0.275-0.275,0.275c-2.443,0-5.842,6.901-5.842,13.696s3.399,13.696,5.842,13.696 c0.152,0,0.275,0.123,0.275,0.275S27.288,60.697,27.136,60.697z"/></g><g><path fill="#f1bc19" d="M76.267,61.89v-0.764l-9.238,2.465l-0.001,9.243c-0.631-0.112-1.569,0.025-2.535,0.416 c-1.525,0.618-2.535,1.631-2.256,2.264c0.279,0.633,1.741,0.645,3.266,0.027c1.262-0.511,2.158-1.29,2.276-1.903h0.01v-0.042 c0.007-0.052,0.005-0.1,0-0.149v-9.229l7.716-2.009v8.296c-0.631-0.112-1.569,0.025-2.535,0.416 c-1.525,0.618-2.535,1.631-2.256,2.264s1.741,0.645,3.266,0.027c1.262-0.511,2.158-1.29,2.276-1.903h0.01v-0.042 c0.007-0.052,0.005-0.1,0-0.149L76.267,61.89L76.267,61.89z"/><path fill="#472b29" d="M76.267,61.126v0.764v9.228c0.005,0.049,0.007,0.098,0,0.149v0.042h-0.01 c-0.118,0.613-1.015,1.392-2.276,1.903c-0.751,0.304-1.486,0.456-2.072,0.456c-0.605,0-1.052-0.161-1.194-0.482 c-0.279-0.633,0.731-1.646,2.256-2.264c0.749-0.304,1.482-0.454,2.068-0.454c0.169,0,0.326,0.013,0.468,0.038V62.21l-7.716,2.009 v9.228c0.005,0.049,0.007,0.098,0,0.149v0.042h-0.01c-0.118,0.613-1.015,1.392-2.276,1.903c-0.751,0.304-1.486,0.455-2.072,0.455 c-0.605,0-1.052-0.161-1.194-0.482c-0.279-0.633,0.731-1.646,2.256-2.264c0.749-0.304,1.482-0.454,2.068-0.454 c0.169,0,0.326,0.013,0.468,0.038l0.001-9.243L76.267,61.126 M76.267,60.376c-0.065,0-0.13,0.008-0.193,0.025l-9.238,2.465 c-0.328,0.088-0.557,0.385-0.557,0.725l-0.001,8.465c-0.64,0.04-1.363,0.214-2.067,0.5c-1.334,0.54-2.324,1.343-2.65,2.147 c-0.199,0.49-0.115,0.877-0.01,1.115c0.153,0.347,0.601,0.93,1.88,0.93c0.706,0,1.542-0.181,2.354-0.51 c1.13-0.458,2.402-1.296,2.696-2.311c0.038-0.089,0.059-0.186,0.059-0.288l0,0c0.008-0.088,0.005-0.164,0-0.224v-8.616 l6.216-1.618v6.547c-0.64,0.041-1.362,0.214-2.067,0.5c-1.334,0.54-2.324,1.343-2.65,2.147c-0.199,0.49-0.115,0.877-0.01,1.115 c0.153,0.347,0.601,0.93,1.88,0.93c0.706,0,1.542-0.181,2.354-0.51c1.13-0.458,2.402-1.296,2.696-2.311 c0.038-0.089,0.059-0.186,0.059-0.288l0,0c0.008-0.088,0.005-0.165,0-0.224V61.89v-0.764c0-0.233-0.108-0.453-0.293-0.595 C76.592,60.43,76.431,60.376,76.267,60.376L76.267,60.376z"/><g><path fill="none" d="M67.972 66.129L75.228 64.241"/><path fill="#472b29" d="M67.972,66.379c-0.111,0-0.213-0.074-0.242-0.188c-0.035-0.133,0.045-0.27,0.179-0.305 l7.256-1.889c0.136-0.032,0.271,0.046,0.305,0.18c0.035,0.133-0.045,0.27-0.179,0.305l-7.256,1.889 C68.014,66.377,67.992,66.379,67.972,66.379z"/></g></g></svg>