<svg xmlns="http://www.w3.org/2000/svg" viewBox="0 0 100 100"><path fill="#ee3e54" d="M13 27A2 2 0 1 0 13 31A2 2 0 1 0 13 27Z"/><path fill="#f1bc19" d="M77 12A1 1 0 1 0 77 14A1 1 0 1 0 77 12Z"/><path fill="#fce0a2" d="M50 13A37 37 0 1 0 50 87A37 37 0 1 0 50 13Z"/><path fill="#f1bc19" d="M83 11A4 4 0 1 0 83 19A4 4 0 1 0 83 11Z"/><path fill="#ee3e54" d="M87 22A2 2 0 1 0 87 26A2 2 0 1 0 87 22Z"/><path fill="#fbcd59" d="M81 74A2 2 0 1 0 81 78 2 2 0 1 0 81 74zM15 59A4 4 0 1 0 15 67 4 4 0 1 0 15 59z"/><path fill="#ee3e54" d="M25 85A2 2 0 1 0 25 89A2 2 0 1 0 25 85Z"/><path fill="#fff" d="M18.5 51A2.5 2.5 0 1 0 18.5 56A2.5 2.5 0 1 0 18.5 51Z"/><path fill="#f1bc19" d="M21 66A1 1 0 1 0 21 68A1 1 0 1 0 21 66Z"/><path fill="#fff" d="M80 33A1 1 0 1 0 80 35A1 1 0 1 0 80 33Z"/><g><path fill="#e5ac80" d="M68.121,70.526c-0.405-2.146-1.28-3.403-3.342-4.026c-0.09-0.027-0.21-0.071-0.345-0.123 c-0.156-0.068-0.354-0.148-0.586-0.238c-1.249-0.528-8.673-3.267-8.673-3.267c-0.612-0.155-1.01-0.591-1.24-1.082 c-0.38-0.811-0.233-2.914-0.233-2.914s-3.104,1.062-5.041,1.424c-1.9,0.185-5.983-2.272-5.983-2.272s-0.096,3.037-0.225,3.712 c-0.102,0.53-0.672,0.978-1.284,1.133l-7.124,2.583c-0.788,0.206-1.544,0.5-2.209,0.911c-1.793,1.107-2.701,2.769-3.163,4.16 c0,0-0.469,3.316-0.45,3.435c-0.044,0.464-0.09,0.975-0.137,1.512c7.764,5.257,14,6.73,24.699,6.262 c4.861-0.213,12.099-2.613,15.891-4.527C68.475,72.984,68.121,70.526,68.121,70.526z"/><path fill="#fdfcef" d="M64.779,66.678c-0.09-0.027-0.21-0.071-0.345-0.123c-0.156-0.068-0.354-0.148-0.586-0.238 c-0.773-0.327-3.905-1.498-6.184-2.345l-0.107-0.028c-2.516,1.29-6.096,3.226-9.384,3.226c-3.288,0-6.585-1.75-9.384-3.226 l-0.314,0.083l-4.431,1.606c-0.788,0.206-1.544,0.5-2.209,0.911c-1.793,1.107-2.701,2.769-3.163,4.16c0,0-0.469,3.316-0.45,3.435 c-0.044,0.464-0.09,5.444-0.137,5.981c7.764,5.257,14,6.73,24.699,6.262c4.861-0.213,12.099-2.613,15.891-4.527 c-0.201-4.224-0.554-11.151-0.554-11.151C67.716,68.558,66.841,67.301,64.779,66.678z"/><path fill="#e1e0d8" d="M34.903 84.351c-.166 0-.3-.134-.3-.3v-3.949c0-.166.134-.3.3-.3s.3.134.3.3v3.949C35.203 84.217 35.069 84.351 34.903 84.351zM61.231 85.045c-.166 0-.3-.134-.3-.3v-4.644c0-.166.134-.3.3-.3s.3.134.3.3v4.644C61.531 84.911 61.397 85.045 61.231 85.045z"/><path fill="#66798f" d="M50.114,72.792l2.109,13.671h-8.446l2.109-13.671C46.826,71.088,49.174,71.088,50.114,72.792z"/><path fill="#97aec7" d="M46.046,70.881l-1.95-4.255h7.808l-1.95,4.255C49.086,72.385,46.914,72.385,46.046,70.881z"/><path fill="#eaeae8" d="M40.936,62.676l-2.388,1.649l5.12,7.726l4.749-5.89C48.417,66.161,41.287,64.325,40.936,62.676z"/><path fill="#eaeae8" d="M55.064,62.676l2.388,1.649l-5.12,7.726l-4.749-5.89C47.583,66.161,54.713,64.325,55.064,62.676z"/><path fill="#edbc94" d="M60.418,44.174c-0.117-0.008-0.236-0.009-0.36-0.009c-0.965-0.046-1.24,0.334-1.196-0.256 c0.078-1.046-0.07-5.29-0.07-5.504c0-4.398-4.653-7.984-10.466-8.183v-0.013c-0.039,0.001-0.077,0.005-0.117,0.006 c-0.039-0.001-0.077-0.006-0.117-0.006v0.013c-5.814,0.199-10.466,3.785-10.466,8.183c0,0.214-0.148,4.458-0.07,5.504 c0.044,0.589-0.231,0.209-1.196,0.256c-0.124,0-0.243,0.001-0.36,0.009c-1.058,0.07-1.914,0.734-2.097,1.557 c0.13,0.078,0.611,3.682,1.391,5.102c0.436,0.793,1.116,0.903,1.815,1.415c0.387,0.284,0.462,0.603,0.568,1.027 c0.392,1.569,1.481,2.903,2.674,4.042c0.589,0.562,4.499,4.675,7.858,4.467c3.375-0.125,7.269-3.905,7.858-4.467 c1.193-1.139,2.282-2.473,2.674-4.042c0.106-0.424,0.18-0.744,0.568-1.027c0.699-0.512,1.379-0.622,1.815-1.415 c0.78-1.42,1.262-5.024,1.391-5.102C62.332,44.908,61.476,44.243,60.418,44.174z"/><path fill="#512c2b" d="M48.269 52.059c.683 0 1.345-.298 1.771-.797.043-.05.037-.126-.013-.169l0 0c-.05-.043-.125-.038-.169.012-.347.397-.927.625-1.589.625-.663 0-1.242-.228-1.589-.625-.024-.027-.057-.041-.091-.041-.028 0-.056.01-.078.029-.05.043-.056.119-.013.169C46.924 51.761 47.586 52.059 48.269 52.059zM46.091 41.833l.433-.832c-1.832-.429-3.941-.361-5.682.179l.546.811C42.819 41.519 44.579 41.459 46.091 41.833zM55.262 41.833l.433-.832c-1.832-.429-3.941-.361-5.682.179l.546.811C51.991 41.519 53.751 41.459 55.262 41.833zM43.454 43.007c-.44 0-.826.291-1.049.731.056-.017.113-.029.174-.029.361 0 .653.327.653.729 0 .403-.293.729-.653.729-.118 0-.227-.038-.323-.099.154.661.632 1.142 1.199 1.142.691 0 1.252-.717 1.252-1.602C44.706 43.725 44.145 43.007 43.454 43.007zM53.031 43.007c-.376 0-.712.213-.941.548.072-.03.149-.049.23-.049.361 0 .653.327.653.729 0 .403-.293.729-.653.729-.224 0-.421-.126-.539-.318.016.867.569 1.563 1.25 1.563.691 0 1.252-.717 1.252-1.602C54.282 43.725 53.722 43.007 53.031 43.007zM53.562 53.915c.051-.042.059-.117.018-.168l0 0c-.041-.051-.117-.06-.169-.018-1.128.899-3.002 1.415-5.141 1.415s-4.013-.516-5.142-1.416c-.022-.018-.048-.026-.075-.026-.035 0-.07.015-.094.045-.041.051-.034.127.017.169 1.274 1.041 3.253 1.663 5.293 1.663C50.309 55.578 52.287 54.957 53.562 53.915z"/><path fill="#472b29" d="M49.327,86.862c-8.887,0-14.621-1.776-21.466-6.411c-0.12-0.081-0.187-0.221-0.174-0.365 c0.009-0.109,0.014-0.479,0.022-1.014c0.032-2.178,0.1-6.709,0.578-8.473c0.646-2.385,1.591-3.317,3.339-4.396 c0.654-0.403,1.434-0.725,2.318-0.956l7.088-2.572c0.537-0.139,0.962-0.491,1.027-0.832c0.03-0.153,0.088-0.63,0.157-2.107 c-1.049-0.739-1.903-1.407-2.145-1.644c-1.547-1.513-2.431-2.89-2.783-4.333c-0.108-0.443-0.164-0.637-0.419-0.829 c-0.21-0.157-0.42-0.274-0.62-0.387c-0.471-0.266-0.958-0.54-1.307-1.192c-0.832-1.552-1.439-4.482-1.439-5.418 c0.235-1.127,1.247-1.912,2.47-1.995c0.125-0.008,0.253-0.01,0.386-0.01c0.333-0.015,0.599,0.018,0.79,0.047 c-0.05-1.01,0.028-3.805,0.063-5.027c0.008-0.289,0.014-0.48,0.014-0.521c0-4.688,4.716-8.532,10.755-8.783 c0.036-0.011,0.073-0.017,0.111-0.017c0.01,0,0.093,0.005,0.104,0.006l0.13-0.006c0.04,0,0.079,0.006,0.115,0.018 c6.037,0.252,10.751,4.095,10.751,8.782c0,0.041,0.005,0.232,0.014,0.521c0.034,1.223,0.112,4.018,0.063,5.027 c0.192-0.028,0.462-0.063,0.81-0.046c0.11,0.002,0.24,0.001,0.366,0.009c1.224,0.083,2.235,0.868,2.461,1.91 c0.009,1.164-0.636,4.021-1.43,5.502c-0.35,0.653-0.836,0.928-1.307,1.193c-0.2,0.112-0.41,0.229-0.621,0.388 c-0.255,0.191-0.312,0.387-0.414,0.808c-0.357,1.464-1.241,2.841-2.788,4.354c-0.256,0.25-1.173,0.996-2.272,1.787 c-0.006,0.908,0.073,1.602,0.223,1.92c0.149,0.319,0.44,0.729,0.977,0.864c0.343,0.124,7.487,2.76,8.731,3.287 c0.226,0.087,0.428,0.169,0.587,0.238c0.11,0.041,0.222,0.082,0.305,0.107c2.081,0.628,3.163,1.924,3.618,4.334 c0.003,0.018,0.005,0.036,0.006,0.054c0,0,0.354,6.928,0.554,11.152c0.008,0.157-0.078,0.305-0.219,0.376 c-4.034,2.036-11.318,4.362-16.054,4.569C51.589,86.834,50.433,86.862,49.327,86.862z M28.494,79.913 c7.451,5.001,13.608,6.535,24.273,6.069c4.541-0.199,11.495-2.399,15.497-4.369c-0.194-4.083-0.517-10.396-0.54-10.861 c-0.404-2.113-1.264-3.148-3.06-3.69c-0.097-0.029-0.227-0.076-0.373-0.132c-0.168-0.072-0.361-0.15-0.587-0.238 c-1.238-0.524-8.593-3.238-8.667-3.266c-0.615-0.153-1.149-0.615-1.464-1.287c-0.219-0.469-0.319-1.301-0.295-2.475 c0.002-0.127,0.065-0.244,0.168-0.318c1.218-0.867,2.14-1.629,2.342-1.826c1.435-1.403,2.25-2.658,2.565-3.95 c0.115-0.476,0.22-0.906,0.716-1.278c0.241-0.181,0.479-0.316,0.708-0.445c0.422-0.238,0.755-0.426,0.995-0.874 c0.776-1.448,1.344-4.172,1.344-5.039c-0.139-0.601-0.868-1.139-1.724-1.196c-0.108-0.008-0.218-0.008-0.333-0.008 c-0.333-0.015-0.559,0.02-0.74,0.048c-0.234,0.038-0.478,0.076-0.678-0.108c-0.208-0.191-0.187-0.488-0.177-0.631 c0.061-0.846-0.025-3.912-0.057-5.067c-0.008-0.302-0.014-0.501-0.014-0.544c0-4.28-4.428-7.788-10.081-7.987 c-0.023,0-0.046-0.003-0.069-0.008c-0.028,0.001-0.054-0.001-0.053,0.002l-0.001-0.006c-0.026,0.007-0.054,0.011-0.082,0.012 c-5.653,0.199-10.081,3.707-10.081,7.987c0,0.043-0.005,0.242-0.014,0.544c-0.032,1.155-0.118,4.222-0.057,5.067 c0.01,0.143,0.032,0.438-0.177,0.631c-0.201,0.185-0.443,0.146-0.679,0.108c-0.181-0.028-0.403-0.063-0.72-0.049 c-0.134,0.001-0.245,0.001-0.353,0.009c-0.856,0.058-1.584,0.597-1.733,1.281c0.009,0.76,0.59,3.531,1.353,4.955 c0.24,0.447,0.573,0.635,0.995,0.873c0.228,0.129,0.466,0.265,0.707,0.444c0.495,0.372,0.6,0.802,0.71,1.257 c0.321,1.314,1.136,2.569,2.571,3.973c0.198,0.194,1.082,0.889,2.224,1.687c0.112,0.078,0.177,0.209,0.17,0.346 c-0.058,1.297-0.119,2.118-0.18,2.441c-0.146,0.759-0.898,1.272-1.579,1.445L34.18,66.01c-0.842,0.223-1.549,0.513-2.135,0.875 c-1.629,1.005-2.404,1.772-2.986,3.924c-0.452,1.667-0.521,6.298-0.55,8.275C28.503,79.437,28.499,79.721,28.494,79.913z"/><path fill="#d3a47d" d="M60.48 48.881l-.597-.066.201-1.779-1.011.438-.238-.551 1.486-.644c.097-.042.211-.029.297.034s.132.168.12.274L60.48 48.881zM36.262 48.538l-.258-2.294c-.012-.106.034-.211.12-.274.086-.063.2-.079.298-.034l1.486.644-.238.551-1.011-.438.201 1.779L36.262 48.538z"/><g><path fill="#472b29" d="M37.602,52.98c-0.001,0-0.002,0-0.004,0c-0.11-0.002-0.198-0.094-0.196-0.204l0.165-8.647 c0.002-0.11,0.071-0.209,0.204-0.196c0.11,0.002,0.198,0.094,0.196,0.204l-0.165,8.647C37.799,52.894,37.71,52.98,37.602,52.98z"/></g><g><path fill="#472b29" d="M58.981,52.98c-0.109,0-0.198-0.087-0.2-0.196l-0.164-8.647c-0.002-0.11,0.086-0.202,0.196-0.204 c0.001,0,0.003,0,0.004,0c0.109,0,0.198,0.087,0.2,0.196l0.164,8.647c0.002,0.11-0.086,0.202-0.196,0.204 C58.983,52.98,58.982,52.98,58.981,52.98z"/></g><g><path fill="#472b29" d="M54.731,58.4c-1.793,1.227-5.171,1.906-5.823,0.844c-0.478-0.779-1.169-0.779-1.647,0 c-0.711,1.158-4.33-0.04-6.184-1.366c-0.521,0.026-0.012,0.176-0.422,0.538c2.423,2.08,7.159,4.911,7.416,4.821 c0,0,0.012,0.008,0.014,0.007l0.014-0.007c0.242,0.005,4.338-2.365,6.864-4.383C54.608,58.422,55.3,58.41,54.731,58.4z"/></g><g><path fill="#472b29" d="M58.476,32.905c0,0,2.184,0.443,2.119,2.595c-0.064,2.152-1.56,11.504-1.56,11.504l-3.064-9.606 L58.476,32.905L58.476,32.905z"/></g><g><path fill="#472b29" d="M46.916,26.893l-1.156-1.582c0,0,12.992-1.419,12.973,5.632 c-0.024,9.367-8.478,11.327-8.478,11.327l0.642-2.531l-5.073,2.658l0.642-1.519l-4.238,1.519l1.541-3.48l-3.789,1.392 c0,0-1.485,3.698-2.031,6.695c0,0-2.948-9.913-1.052-10.682l-0.706-0.38l0.899-1.772l-1.349-0.57l1.156-1.645l-0.514-0.696 l2.569-1.455l-1.349-0.696C37.603,29.108,41.906,25.564,46.916,26.893L46.916,26.893z"/></g><g><path fill="#66798f" d="M46.892 43.476c-1.991-2.426-9.496-.706-9.504-.707.138.548.257 1.089.366 1.624.557.058.59 1.31.646 1.768.27 2.212 1.75 3.843 4.867 3.766 3.123-.162 3.853-2.423 3.982-3.846C47.388 44.528 46.891 43.481 46.892 43.476zM46.536 46.194c-.161 1.983-1.378 3.143-3.346 3.238-.199.011-.393.012-.578.004-3.102-.006-3.632-2.72-3.693-4.437-.04-.983.662-1.824 1.652-1.922.569-.056 1.21-.056 1.951-.056 2.318 0 3.326.553 3.595.997C46.274 44.283 46.626 45.117 46.536 46.194zM49.09 46.081c.129 1.423.859 3.684 3.982 3.846 3.117.077 4.597-1.554 4.867-3.766.055-.458.088-1.71.646-1.768.108-.535.228-1.076.366-1.624-.008.001-7.513-1.72-9.504.707C49.446 43.481 48.949 44.528 49.09 46.081zM50.221 44.019c.268-.444 1.277-.997 3.595-.997.74 0 1.381 0 1.951.056.99.098 1.692.939 1.652 1.922-.061 1.717-.592 4.431-3.693 4.437-.185.008-.379.006-.578-.004-1.969-.095-3.185-1.256-3.346-3.238C49.712 45.117 50.063 44.283 50.221 44.019z"/><g><path fill="#66798f" d="M49.515,45.382c0,0-0.509-0.402-1.399-0.401c-0.834,0-1.294,0.401-1.294,0.401 c-0.136-0.376-0.272-0.752-0.409-1.127c1.17,0,2.34,0,3.51,0C49.787,44.631,49.651,45.006,49.515,45.382z"/></g></g></g><g><path fill="#fff" d="M66 75H76V85H66z"/></g><g><path fill="#afabd4" d="M68.083,91.117c-0.818-0.231-1.606-0.553-2.355-0.959c0.418-1.399,0.095-2.661-0.952-3.679 c-0.715-0.696-1.544-1.049-2.463-1.049c-0.382,0-0.778,0.063-1.183,0.188c-0.416-0.742-0.746-1.522-0.986-2.33 c1.323-0.703,1.999-1.843,1.964-3.329c-0.034-1.423-0.725-2.505-2.009-3.16c0.229-0.813,0.547-1.597,0.951-2.343 c0.421,0.135,0.832,0.203,1.228,0.203c0.944,0,1.791-0.375,2.517-1.112c1.028-1.046,1.316-2.324,0.849-3.726 c0.73-0.406,1.511-0.732,2.333-0.976c0.678,1.328,1.786,2.025,3.235,2.025c0.111,0,0.226-0.004,0.343-0.013 c1.347-0.1,2.362-0.797,2.968-2.028c0.808,0.232,1.59,0.556,2.336,0.965c-0.461,1.424-0.158,2.71,0.895,3.749 c0.722,0.713,1.557,1.075,2.483,1.075c0.404-0.001,0.823-0.071,1.249-0.213c0.323,0.597,0.76,1.64,0.961,2.334 c-1.341,0.699-2.028,1.844-1.997,3.339c0.029,1.406,0.708,2.485,1.974,3.154c-0.236,0.809-0.563,1.592-0.976,2.336 c-0.404-0.119-0.797-0.18-1.174-0.18c-1.046,0-1.958,0.445-2.711,1.322c-0.84,0.979-1.073,2.15-0.688,3.418 c-0.744,0.409-1.532,0.735-2.35,0.973c-0.657-1.225-1.844-1.941-3.254-1.941C69.916,89.179,68.728,89.931,68.083,91.117z M71.267,77.167c-1.543,0-2.804,1.251-2.811,2.788c-0.007,1.546,1.249,2.811,2.8,2.818c1.536-0.009,2.768-1.204,2.812-2.722 c0.022-0.761-0.256-1.48-0.783-2.027c-0.525-0.546-1.232-0.851-1.99-0.857C71.293,77.167,71.269,77.167,71.267,77.167z"/><path fill="#472b29" d="M74.848,69.667c0.406,0.14,0.804,0.305,1.192,0.493c-0.29,1.453,0.124,2.8,1.22,3.882 c0.846,0.835,1.874,1.276,2.975,1.276c0.289,0,0.582-0.03,0.879-0.09c0.172,0.372,0.352,0.811,0.492,1.198 c-1.24,0.841-1.891,2.109-1.859,3.667c0.031,1.459,0.674,2.65,1.84,3.451c-0.144,0.415-0.314,0.822-0.509,1.218 c-0.273-0.049-0.543-0.074-0.807-0.074c-1.241,0-2.362,0.542-3.242,1.567c-0.865,1.008-1.192,2.221-0.963,3.504 c-0.402,0.196-0.816,0.367-1.239,0.513c-0.818-1.139-2.105-1.812-3.557-1.812c-0.006,0-0.054,0-0.06,0 c-1.374,0.017-2.63,0.707-3.435,1.831c-0.425-0.142-0.838-0.31-1.242-0.506c0.251-1.429-0.181-2.75-1.27-3.809 c-0.839-0.816-1.859-1.247-2.951-1.247c-0.27,0-0.544,0.026-0.821,0.078c-0.197-0.394-0.367-0.796-0.513-1.209 c1.225-0.844,1.865-2.107,1.829-3.657c-0.035-1.478-0.691-2.674-1.877-3.466c0.138-0.41,0.301-0.812,0.488-1.203 c0.29,0.057,0.576,0.085,0.858,0.085c1.123,0,2.167-0.457,3.017-1.322c1.069-1.086,1.467-2.423,1.171-3.855 c0.385-0.188,0.783-0.354,1.193-0.498c0.817,1.227,2.044,1.888,3.555,1.888c0.128,0,0.259-0.005,0.394-0.015 C72.993,71.454,74.11,70.795,74.848,69.667 M71.258,83.473c0.003,0,0.006,0,0.009,0c1.908-0.011,3.446-1.505,3.5-3.401 c0.027-0.949-0.32-1.849-0.978-2.533c-0.657-0.682-1.54-1.063-2.521-1.072c-1.928,0-3.504,1.563-3.512,3.485 c-0.004,0.938,0.357,1.82,1.019,2.485c0.66,0.664,1.54,1.032,2.478,1.036C71.254,83.473,71.256,83.473,71.258,83.473 M74.109,68 c-0.436,1.268-1.281,2.063-2.607,2.161c-0.099,0.007-0.196,0.011-0.29,0.011c-1.407,0-2.333-0.798-2.838-2.159 c-1.289,0.315-2.49,0.813-3.605,1.511c0.613,1.295,0.534,2.506-0.474,3.531c-0.609,0.62-1.29,0.904-2.019,0.904 c-0.492,0-1.006-0.129-1.534-0.373c-0.683,1.124-1.174,2.327-1.468,3.615c1.311,0.48,2.101,1.379,2.134,2.774 c0.034,1.451-0.747,2.4-2.094,2.923c0.31,1.278,0.816,2.467,1.513,3.58c0.511-0.228,1.009-0.349,1.486-0.349 c0.71,0,1.376,0.268,1.975,0.851c1.021,0.993,1.145,2.193,0.58,3.49c1.125,0.684,2.321,1.173,3.602,1.468 c0.019-0.038,0.034-0.061,0.043-0.085c0.463-1.206,1.514-1.978,2.716-1.993c0.014,0,0.028,0,0.042,0 c1.267,0,2.314,0.715,2.801,1.926c0.036,0.09,0.076,0.118,0.133,0.118c0.028,0,0.06-0.007,0.097-0.016 c1.158-0.293,2.251-0.744,3.277-1.356c0.056-0.033,0.109-0.072,0.154-0.101c-0.522-1.176-0.474-2.292,0.36-3.264 c0.633-0.738,1.37-1.078,2.18-1.078c0.472,0,0.969,0.115,1.485,0.335c0.692-1.118,1.19-2.31,1.493-3.585 c-1.292-0.495-2.074-1.38-2.103-2.775c-0.031-1.471,0.765-2.403,2.099-2.919c-0.081-0.804-1.017-3.062-1.49-3.6 c-0.521,0.244-1.03,0.373-1.52,0.373c-0.714,0-1.387-0.275-1.992-0.873c-1.037-1.023-1.118-2.248-0.516-3.555 C76.604,68.799,75.398,68.299,74.109,68L74.109,68z M71.259,82.073c-1.168-0.005-2.109-0.952-2.103-2.115 c0.005-1.16,0.945-2.091,2.113-2.091c0.007,0,0.013,0,0.02,0c1.175,0.011,2.113,0.986,2.079,2.165 C73.337,81.128,72.445,82.066,71.259,82.073L71.259,82.073z"/><path fill="#7777ab" d="M78.642,78.092c-1.038-4.075-5.183-6.538-9.258-5.501c-4.075,1.038-6.538,5.183-5.501,9.258 c1.038,4.075,5.183,6.538,9.258,5.501C77.217,86.312,79.679,82.167,78.642,78.092z M72.763,85.863 c-3.255,0.829-6.565-1.138-7.393-4.393c-0.829-3.255,1.138-6.565,4.393-7.393c3.255-0.829,6.565,1.138,7.393,4.393 S76.017,85.035,72.763,85.863z"/><path fill="#472b29" d="M65.097 80.22c-.138 0-.25-.112-.25-.25 0-3.537 2.877-6.414 6.415-6.414.954 0 1.871.204 2.725.605.125.06.179.208.12.333-.059.126-.209.176-.333.12-.787-.371-1.632-.559-2.512-.559-3.261 0-5.915 2.653-5.915 5.914C65.347 80.107 65.235 80.22 65.097 80.22zM71.262 86.385c-2.818 0-5.278-1.806-6.122-4.492-.041-.132.032-.272.164-.313.132-.039.272.032.313.163.777 2.478 3.045 4.143 5.644 4.143 1.336 0 2.597-.435 3.645-1.257.108-.086.266-.065.351.042.085.108.066.266-.042.351C74.078 85.913 72.711 86.385 71.262 86.385zM76.08 84.066c-.055 0-.11-.018-.156-.055-.108-.086-.125-.243-.039-.352.845-1.058 1.292-2.334 1.292-3.69 0-.744-.136-1.469-.405-2.154-.05-.128.013-.273.142-.323.129-.049.274.013.324.142.291.743.439 1.529.439 2.336 0 1.472-.484 2.855-1.401 4.003C76.226 84.034 76.153 84.066 76.08 84.066z"/><g><path fill="#472b29" d="M76.34,76.725c-0.079,0-0.157-0.038-0.206-0.108c-0.319-0.463-0.703-0.879-1.142-1.235 c-0.107-0.088-0.124-0.245-0.036-0.353s0.246-0.121,0.352-0.036c0.476,0.387,0.892,0.838,1.238,1.341 c0.078,0.113,0.049,0.27-0.064,0.348C76.439,76.71,76.39,76.725,76.34,76.725z"/></g></g></svg>