<svg xmlns="http://www.w3.org/2000/svg" viewBox="0 0 100 100"><path fill="#78a0cf" d="M13 27A2 2 0 1 0 13 31A2 2 0 1 0 13 27Z"/><path fill="#f1bc19" d="M77 12A1 1 0 1 0 77 14A1 1 0 1 0 77 12Z"/><path fill="#cee1f4" d="M50 13A37 37 0 1 0 50 87A37 37 0 1 0 50 13Z"/><path fill="#f1bc19" d="M83 11A4 4 0 1 0 83 19A4 4 0 1 0 83 11Z"/><path fill="#78a0cf" d="M87 22A2 2 0 1 0 87 26A2 2 0 1 0 87 22Z"/><path fill="#fbcd59" d="M81 74A2 2 0 1 0 81 78 2 2 0 1 0 81 74zM15 59A4 4 0 1 0 15 67 4 4 0 1 0 15 59z"/><path fill="#78a0cf" d="M25 85A2 2 0 1 0 25 89A2 2 0 1 0 25 85Z"/><path fill="#fff" d="M18.5 51A2.5 2.5 0 1 0 18.5 56A2.5 2.5 0 1 0 18.5 51Z"/><path fill="#f1bc19" d="M21 66A1 1 0 1 0 21 68A1 1 0 1 0 21 66Z"/><path fill="#fff" d="M80 33A1 1 0 1 0 80 35A1 1 0 1 0 80 33Z"/><g><path fill="#fabf82" d="M64.119,47.321c-0.275-1.46-0.87-2.315-2.273-2.738c-0.061-0.018-0.143-0.048-0.235-0.083 c-0.106-0.046-0.241-0.1-0.398-0.162c-0.85-0.359-5.899-2.222-5.899-2.222c-0.416-0.106-0.687-0.402-0.844-0.736 c-0.259-0.552-0.159-1.982-0.159-1.982s-2.112,0.722-3.429,0.968c-1.292,0.126-4.07-1.545-4.07-1.545s-0.065,2.066-0.153,2.525 c-0.069,0.36-0.457,0.665-0.873,0.771l-4.845,1.757c-0.536,0.14-1.05,0.34-1.503,0.619c-1.219,0.753-1.837,1.883-2.151,2.83 c0,0-0.319,2.256-0.306,2.337c-0.03,0.316-0.062,0.663-0.093,1.028c5.281,3.576,9.523,4.577,16.8,4.259 c3.307-0.145,8.23-1.777,10.809-3.079C64.359,48.992,64.119,47.321,64.119,47.321z"/><path fill="#ee3e54" d="M61.846,44.61c-0.061-0.018-0.143-0.048-0.235-0.083c-0.106-0.046-0.241-0.1-0.398-0.162 c-0.525-0.222-2.656-1.019-4.206-1.595l-0.073-0.019c-1.711,0.877-4.146,2.194-6.383,2.194c-2.237,0-4.479-1.19-6.383-2.194 l-0.214,0.056l-3.014,1.093c-0.536,0.14-1.05,0.34-1.503,0.619c-1.219,0.753-1.837,1.883-2.151,2.83c0,0-0.319,2.256-0.306,2.337 c-0.03,0.316-0.062,3.703-0.093,4.068c5.281,3.576,9.523,4.577,16.8,4.259c3.307-0.145,8.23-1.777,10.809-3.079 c-0.136-2.873-0.377-7.584-0.377-7.584C63.843,45.889,63.248,45.034,61.846,44.61z"/><path fill="#fddbbc" d="M58.879,29.278c-0.079-0.005-0.161-0.006-0.245-0.006c-0.657-0.032-0.843,0.23-0.814-0.176 c0.053-0.721-0.048-3.646-0.048-3.794c0-3.031-3.165-5.503-7.119-5.64v-0.009c-0.027,0-0.053,0.004-0.079,0.004 c-0.027-0.001-0.053-0.004-0.079-0.004v0.009c-3.954,0.137-7.119,2.609-7.119,5.64c0,0.148-0.1,3.073-0.048,3.794 c0.03,0.406-0.157,0.144-0.814,0.176c-0.084,0-0.165,0.001-0.245,0.006c-0.72,0.048-1.302,0.506-1.426,1.073 c0.088,0.054,0.416,2.538,0.946,3.517c0.296,0.546,0.759,0.623,1.234,0.975c0.263,0.195,0.314,0.416,0.386,0.708 c0.267,1.082,1.007,2.001,1.819,2.786c0.401,0.387,3.06,3.222,5.345,3.079c2.296-0.086,4.944-2.691,5.345-3.079 c0.812-0.785,1.552-1.704,1.819-2.786c0.072-0.292,0.123-0.513,0.386-0.708c0.475-0.353,0.938-0.429,1.234-0.975 c0.531-0.979,0.858-3.463,0.946-3.517C60.181,29.784,59.599,29.326,58.879,29.278z"/><path fill="#512c2b" d="M50.616 34.079c.464 0 .915-.203 1.205-.542.029-.034.025-.086-.009-.115l0 0c-.034-.029-.085-.026-.115.008-.236.27-.63.425-1.081.425-.451 0-.845-.155-1.081-.425-.016-.018-.039-.028-.062-.028-.019 0-.038.006-.053.02-.034.029-.038.081-.009.115C49.701 33.876 50.151 34.079 50.616 34.079zM49.134 27.804l.295-.566c-1.246-.292-2.681-.245-3.865.122l.371.552C46.908 27.59 48.105 27.55 49.134 27.804zM55.372 27.804l.295-.566c-1.246-.292-2.68-.245-3.865.122l.371.552C53.147 27.59 54.344 27.55 55.372 27.804zM47.341 28.603c-.299 0-.562.198-.714.497.038-.012.077-.02.118-.02.245 0 .444.222.444.496 0 .274-.199.496-.444.496-.08 0-.155-.026-.22-.067.105.449.43.777.815.777.47 0 .851-.488.851-1.09C48.192 29.091 47.811 28.603 47.341 28.603zM53.855 28.603c-.255 0-.484.145-.64.373.049-.021.101-.033.156-.033.245 0 .444.222.444.496 0 .274-.199.496-.444.496-.152 0-.286-.086-.366-.216.011.589.387 1.063.85 1.063.47 0 .851-.488.851-1.09C54.706 29.091 54.325 28.603 53.855 28.603zM54.216 35.342c.035-.028.04-.08.012-.115l0 0c-.028-.035-.08-.041-.115-.012-.768.612-2.042.963-3.497.963-1.455 0-2.73-.351-3.497-.963-.015-.012-.033-.018-.051-.018-.024 0-.048.01-.064.03-.028.035-.023.086.012.115.867.708 2.212 1.131 3.6 1.131C52.003 36.473 53.349 36.05 54.216 35.342zM51.566 38.926c.042 0 .078-.049.078-.107 0-.058-.036-.107-.078-.107h-1.749c-.042 0-.078.049-.078.107 0 .058.036.107.078.107H51.566z"/><path fill="#472b29" d="M51.328,58.66c-6.091,0-10.023-1.219-14.722-4.4c-0.149-0.102-0.233-0.276-0.218-0.457 c0.006-0.072,0.009-0.315,0.014-0.668c0.022-1.492,0.068-4.596,0.401-5.824c0.46-1.696,1.131-2.359,2.371-3.124 c0.464-0.286,1.016-0.515,1.639-0.678l4.801-1.743c0.316-0.083,0.53-0.27,0.554-0.396c0.021-0.109,0.055-0.422,0.097-1.275 c-0.671-0.478-1.218-0.906-1.384-1.068c-1.084-1.06-1.705-2.031-1.955-3.058c-0.072-0.293-0.095-0.354-0.201-0.434 c-0.135-0.102-0.27-0.176-0.397-0.249c-0.332-0.187-0.708-0.399-0.978-0.901c-0.591-1.103-1.006-3.119-1.006-3.792 c0-0.035,0.004-0.071,0.012-0.105c0.174-0.808,0.947-1.416,1.88-1.479c0.094-0.006,0.185-0.007,0.279-0.007 c0.11-0.004,0.213-0.003,0.302,0.003c-0.015-0.863,0.029-2.432,0.051-3.167l0.009-0.351c0-3.305,3.29-6.015,7.508-6.2 c0.036-0.008,0.073-0.013,0.111-0.013h0.159c0.039,0,0.077,0.005,0.113,0.013c4.217,0.187,7.506,2.896,7.506,6.2l0.009,0.347 c0.021,0.744,0.065,2.338,0.051,3.172c0.099-0.007,0.206-0.011,0.325-0.003c0.078,0.003,0.164,0,0.252,0.006 c0.936,0.063,1.709,0.672,1.883,1.479c0.008,0.034,0.012,0.07,0.012,0.105c0,0.755-0.432,2.724-1.006,3.792 c-0.269,0.502-0.645,0.714-0.978,0.901c-0.128,0.073-0.263,0.147-0.397,0.249c-0.105,0.078-0.128,0.14-0.195,0.415 c-0.254,1.045-0.876,2.016-1.96,3.075c-0.164,0.161-0.731,0.629-1.477,1.17c0.003,0.602,0.066,0.956,0.13,1.092 c0.118,0.251,0.29,0.407,0.514,0.464c0.257,0.092,5.12,1.887,5.971,2.246c0.151,0.059,0.291,0.116,0.402,0.164 c0.06,0.022,0.131,0.048,0.184,0.063c1.508,0.456,2.291,1.391,2.618,3.124c0.004,0.022,0.007,0.045,0.008,0.067 c0,0,0.24,4.712,0.377,7.587c0.01,0.196-0.098,0.381-0.273,0.47c-2.766,1.396-7.763,2.99-11.014,3.133 C52.878,58.642,52.086,58.66,51.328,58.66z M37.396,53.585c4.976,3.316,9.12,4.344,16.27,4.021 c3.008-0.131,7.597-1.569,10.316-2.883c-0.132-2.739-0.339-6.807-0.36-7.222c-0.26-1.346-0.783-1.976-1.92-2.319 c-0.07-0.021-0.163-0.055-0.268-0.094c-0.123-0.053-0.251-0.104-0.403-0.164c-0.843-0.356-5.841-2.201-5.891-2.22 c-0.463-0.114-0.88-0.473-1.123-0.992c-0.165-0.352-0.24-0.952-0.223-1.785c0.003-0.158,0.081-0.305,0.21-0.396 c0.783-0.558,1.426-1.082,1.564-1.219c0.945-0.924,1.48-1.743,1.685-2.579c0.082-0.338,0.17-0.697,0.571-0.998 c0.172-0.129,0.343-0.227,0.506-0.318c0.274-0.155,0.456-0.258,0.588-0.504c0.487-0.907,0.862-2.647,0.886-3.262 c-0.104-0.346-0.497-0.613-0.959-0.645c-0.065-0.004-0.137-0.005-0.211-0.005c-0.215-0.012-0.354,0.013-0.467,0.03 c-0.175,0.028-0.434,0.068-0.651-0.131c-0.224-0.205-0.203-0.49-0.194-0.612c0.042-0.565-0.017-2.645-0.038-3.427 c-0.006-0.208-0.01-0.345-0.01-0.375c0-2.788-2.915-5.074-6.637-5.204c-0.021-0.001-0.042-0.003-0.063-0.007 c-0.021,0.004-0.041,0.006-0.062,0.007c-3.722,0.13-6.637,2.416-6.637,5.204c0,0.03-0.004,0.169-0.01,0.379 c-0.021,0.781-0.08,2.858-0.039,3.422c0.009,0.121,0.029,0.407-0.193,0.612c-0.219,0.201-0.479,0.16-0.652,0.132 c-0.111-0.018-0.243-0.037-0.442-0.031c-0.098,0.001-0.169,0.002-0.239,0.006c-0.458,0.031-0.852,0.299-0.955,0.645 c0.024,0.621,0.416,2.385,0.886,3.262c0.133,0.246,0.313,0.349,0.588,0.504c0.164,0.092,0.334,0.189,0.506,0.318 c0.402,0.301,0.49,0.662,0.568,0.981c0.208,0.854,0.742,1.672,1.687,2.595c0.106,0.104,0.669,0.555,1.484,1.123 c0.141,0.099,0.222,0.262,0.213,0.433c-0.043,0.939-0.082,1.462-0.126,1.693c-0.118,0.614-0.709,1.025-1.242,1.16l-4.797,1.742 c-0.571,0.152-1.031,0.342-1.411,0.576c-1.103,0.68-1.561,1.165-1.932,2.534c-0.3,1.107-0.347,4.239-0.366,5.577 C37.4,53.319,37.397,53.467,37.396,53.585z"/><path fill="#895d3d" d="M59.017 32.608l-.596-.066.117-1.046-.535.231-.238-.551 1.011-.438c.1-.042.212-.028.298.034.086.063.132.168.119.274L59.017 32.608zM42.354 32.375l-.176-1.56c-.013-.105.033-.211.119-.274.086-.064.199-.079.298-.034l1.012.438-.238.551-.536-.232.117 1.046L42.354 32.375z"/><path fill="#472b29" d="M43.36 35.45c-.001 0-.003 0-.004 0-.11-.002-.198-.094-.196-.204l.111-5.882c.002-.11.11-.191.204-.196.11.002.198.094.196.204l-.111 5.882C43.559 35.363 43.469 35.45 43.36 35.45zM57.901 35.45c-.108 0-.198-.087-.2-.196l-.111-5.882c-.002-.11.086-.202.196-.204.001 0 .003 0 .004 0 .108 0 .198.087.2.196l.111 5.882c.002.11-.086.202-.196.204C57.904 35.45 57.902 35.45 57.901 35.45z"/><g><path fill="#472b29" d="M50.654,41.665c-1.473,0-3.926-1.79-4.034-1.87c-0.111-0.082-0.135-0.238-0.053-0.35 c0.082-0.11,0.239-0.133,0.35-0.053c0.723,0.53,2.827,1.874,3.861,1.767c1.283-0.146,3.352-1.604,3.372-1.619 c0.113-0.08,0.269-0.053,0.349,0.06s0.053,0.269-0.06,0.349c-0.089,0.063-2.194,1.547-3.604,1.707 C50.776,41.662,50.717,41.665,50.654,41.665z"/></g><g><path fill="#512c2b" d="M42.206,22.311c0.24-0.646,1.081-0.695,1.081-0.695s-0.718-0.915-0.479-1.333 c0.239-0.418,2.811-3.382,9.061-2.726c6.25,0.656,7.025,4.717,7.025,4.717l-1.272,7.418c0,0-2.493-7.358-12.569-5.968 c0,0,0.439,0.936-1.69,4.652L42.206,22.311L42.206,22.311z"/></g></g><g><path fill="#fabf82" d="M49.848,59.101c-0.272-1.439-0.858-2.282-2.241-2.7c-0.06-0.018-0.141-0.047-0.232-0.082 c-0.105-0.045-0.237-0.099-0.393-0.16c-0.838-0.354-5.816-2.191-5.816-2.191c-0.41-0.104-0.677-0.397-0.832-0.726 c-0.255-0.544-0.156-1.954-0.156-1.954s-2.082,0.712-3.38,0.955c-1.274,0.124-4.013-1.524-4.013-1.524s-0.064,2.037-0.151,2.489 c-0.068,0.355-0.451,0.656-0.861,0.76l-4.777,1.732c-0.528,0.138-1.036,0.336-1.481,0.611c-1.202,0.742-1.811,1.857-2.121,2.79 c0,0-0.314,2.224-0.302,2.304c-0.03,0.311-0.061,0.654-0.092,1.014c5.207,3.525,9.389,4.513,16.563,4.199 c3.26-0.143,8.114-1.752,10.657-3.036C50.086,60.749,49.848,59.101,49.848,59.101z"/><path fill="#88cdd7" d="M47.607,56.429c-0.06-0.018-0.141-0.047-0.232-0.082c-0.105-0.045-0.237-0.099-0.393-0.16 c-0.518-0.219-2.619-1.005-4.147-1.573l-0.072-0.019c-1.687,0.865-4.088,2.164-6.293,2.164c-2.205,0-4.416-1.174-6.293-2.164 l-0.211,0.055l-2.971,1.077c-0.528,0.138-1.036,0.336-1.481,0.611c-1.202,0.742-1.811,1.857-2.121,2.79 c0,0-0.314,2.224-0.302,2.304c-0.03,0.311-0.061,3.651-0.092,4.011c5.207,3.525,9.389,4.513,16.563,4.199 c3.26-0.143,8.114-1.752,10.657-3.036c-0.134-2.833-0.372-7.478-0.372-7.478C49.577,57.689,48.99,56.846,47.607,56.429z"/><path fill="#be7841" d="M29.188,42.96c-0.107-0.235-2.605-5.812-0.696-9.626c0.795-1.589,2.229-2.632,4.265-3.1 c1.175-0.801,2.579-1.241,3.968-1.241c1.174,0,2.314,0.304,3.388,0.902c0.559,0.311,1.01,0.573,1.388,0.793 c1.198,0.696,1.56,0.907,2.226,0.907c0.075,0,0.154-0.003,0.238-0.008c0.19-0.012,0.293-0.019,0.39-0.019 c0.81,0,0.966,0.524,0.996,0.75c0.099,0.743-0.156,1.369-0.381,1.921c-0.183,0.45-0.342,0.84-0.244,1.159 c1.254,4.117-0.692,7.468-0.776,7.608l-0.941,1.586l0.012-1.844c0-0.032,0.01-2.96-0.66-4.937 c-0.942,0.485-2.063,0.74-3.279,0.74c-2.178,0-4.579-0.781-6.964-2.263c-1.971,1.684-1.972,6.41-1.972,6.459l0.011,2.331 L29.188,42.96z"/><path fill="#472b29" d="M36.725,29.493c1.014,0,2.085,0.248,3.145,0.839c2.37,1.322,2.81,1.764,3.857,1.764 c0.085,0,0.173-0.003,0.267-0.008c0.124-0.007,0.248-0.018,0.362-0.018c0.257,0,0.463,0.053,0.498,0.315 c0.164,1.235-0.903,2.19-0.608,3.16c1.204,3.954-0.728,7.209-0.728,7.209s0.023-3.609-0.908-5.666 c-0.961,0.635-2.167,0.966-3.532,0.966c-2.063,0-4.491-0.757-6.988-2.37c-2.477,1.648-2.448,7.07-2.448,7.07 s-4.692-10.3,3.319-12.052C33.98,29.984,35.296,29.493,36.725,29.493 M36.725,28.493l0,1L36.725,28.493 c-1.457,0-2.931,0.452-4.171,1.276c-2.139,0.513-3.655,1.636-4.509,3.341c-2.015,4.025,0.577,9.813,0.688,10.058l1.928,4.232 l-0.018-4.651c-0.005-1.225,0.278-4.403,1.545-5.829c2.354,1.398,4.723,2.134,6.891,2.134c1.071,0,2.077-0.187,2.966-0.547 c0.481,1.845,0.474,4.212,0.474,4.241l-0.021,3.686l1.881-3.17c0.088-0.148,2.141-3.685,0.824-8.011 c-0.045-0.149,0.101-0.508,0.23-0.824c0.236-0.58,0.529-1.3,0.413-2.176c-0.076-0.572-0.507-1.184-1.489-1.184 c-0.108,0-0.222,0.007-0.339,0.015l-0.083,0.005c-0.073,0.004-0.142,0.006-0.208,0.006c-0.514,0-0.784-0.146-1.975-0.839 c-0.38-0.221-0.834-0.485-1.394-0.798C39.207,28.818,37.985,28.493,36.725,28.493L36.725,28.493z"/><path fill="#00a5a5" d="M27.572 68.378c-.166 0-.3-.134-.3-.3V65.43c0-.166.134-.3.3-.3s.3.134.3.3v2.648C27.872 68.244 27.738 68.378 27.572 68.378zM45.229 68.844c-.166 0-.3-.134-.3-.3V65.43c0-.166.134-.3.3-.3s.3.134.3.3v3.114C45.528 68.71 45.395 68.844 45.229 68.844z"/><path fill="#fddbbc" d="M44.682,41.312c-0.078-0.005-0.158-0.006-0.241-0.006c-0.647-0.031-0.592,0.213-0.563-0.188 c0.052-0.711-0.286-3.581-0.286-3.726c0-2.988-3.12-5.426-7.019-5.561v-0.009c-0.026,0-0.052,0.004-0.078,0.004 c-0.026-0.001-0.052-0.004-0.078-0.004v0.009c-3.899,0.135-7.019,2.572-7.019,5.561c0,0.146-0.099,3.029-0.047,3.74 c0.029,0.401-0.155,0.142-0.802,0.174c-0.083,0-0.163,0.001-0.241,0.006c-0.71,0.047-1.284,0.499-1.406,1.058 c0.087,0.053,0.41,2.502,0.933,3.467c0.292,0.539,0.748,0.614,1.217,0.961c0.26,0.193,0.31,0.41,0.381,0.698 c0.263,1.066,0.993,1.973,1.793,2.747c0.395,0.382,3.017,3.177,5.269,3.036c2.263-0.085,4.874-2.654,5.269-3.036 c0.8-0.774,1.53-1.68,1.793-2.747c0.071-0.288,0.121-0.505,0.381-0.698c0.469-0.348,0.925-0.423,1.217-0.961 c0.523-0.965,0.846-3.414,0.933-3.467C45.966,41.811,45.392,41.36,44.682,41.312z"/><path fill="#512c2b" d="M36.535 46.046c.458 0 .902-.2 1.188-.535.029-.034.025-.084-.009-.113l0 0c-.033-.029-.084-.026-.113.008-.233.266-.621.419-1.066.419-.444 0-.833-.153-1.066-.419-.016-.018-.038-.027-.061-.027-.019 0-.037.006-.053.019-.033.029-.037.08-.009.113C35.633 45.846 36.077 46.046 36.535 46.046zM35.075 39.859l.291-.558c-1.229-.288-2.643-.242-3.81.12l.366.544C32.88 39.649 34.061 39.608 35.075 39.859zM41.225 39.859l.291-.558c-1.229-.288-2.643-.242-3.81.12l.366.544C39.031 39.649 40.211 39.608 41.225 39.859zM33.306 40.647c-.295 0-.554.195-.704.49.037-.012.076-.02.117-.02.242 0 .438.219.438.489s-.196.489-.438.489c-.079 0-.153-.025-.217-.066.104.443.424.766.804.766.464 0 .839-.481.839-1.074C34.146 41.128 33.77 40.647 33.306 40.647zM39.729 40.647c-.252 0-.477.143-.631.367.048-.02.1-.033.154-.033.242 0 .438.219.438.489 0 .27-.196.489-.438.489-.15 0-.282-.084-.361-.213.011.581.382 1.048.838 1.048.464 0 .839-.481.839-1.074C40.568 41.128 40.192 40.647 39.729 40.647zM40.085 47.291c.034-.028.039-.079.012-.113l0 0c-.028-.034-.079-.04-.113-.012-.757.603-2.013.949-3.448.949s-2.691-.346-3.448-.949c-.015-.012-.032-.018-.05-.018-.024 0-.047.01-.063.03-.028.034-.023.085.012.113.854.698 2.181 1.115 3.549 1.115C37.903 48.406 39.23 47.989 40.085 47.291zM37.472 50.825c.042 0 .077-.048.077-.105s-.035-.105-.077-.105h-1.724c-.042 0-.077.048-.077.105s.035.105.077.105H37.472z"/><path fill="#472b29" d="M37.235,70.287c-6.005,0-9.882-1.202-14.516-4.339c-0.149-0.102-0.233-0.277-0.218-0.457 c0.006-0.073,0.009-0.315,0.014-0.666c0.022-1.469,0.067-4.526,0.396-5.736c0.453-1.673,1.116-2.327,2.341-3.084 c0.458-0.283,1.003-0.508,1.618-0.668l4.732-1.719c0.31-0.081,0.518-0.263,0.541-0.385c0.015-0.073,0.05-0.339,0.095-1.253 c-0.663-0.472-1.2-0.894-1.362-1.053c-1.068-1.044-1.683-2.002-1.93-3.016c-0.069-0.288-0.092-0.349-0.194-0.425 c-0.133-0.101-0.266-0.174-0.393-0.245c-0.328-0.186-0.7-0.396-0.966-0.892c-0.583-1.089-0.992-3.078-0.992-3.742 c0-0.035,0.004-0.071,0.012-0.105c0.172-0.8,0.938-1.401,1.861-1.464c0.09-0.006,0.181-0.007,0.274-0.007 c0.105-0.005,0.203-0.004,0.29,0.003c-0.014-0.853,0.029-2.393,0.05-3.115l0.009-0.346c0-3.262,3.246-5.937,7.407-6.12 c0.036-0.008,0.073-0.013,0.111-0.013h0.157c0.039,0,0.077,0.005,0.113,0.013c4.16,0.185,7.405,2.858,7.405,6.12 c0.003,0.042,0.024,0.23,0.053,0.493c0.123,1.128,0.252,2.364,0.237,2.961c0.154,0.004,0.243,0.005,0.332,0.011 c0.925,0.063,1.689,0.664,1.863,1.463c0.008,0.035,0.012,0.07,0.012,0.106c0,0.744-0.427,2.687-0.993,3.742 c-0.266,0.496-0.638,0.706-0.966,0.892c-0.126,0.071-0.259,0.145-0.392,0.245c-0.103,0.076-0.124,0.137-0.19,0.407 c-0.251,1.028-0.864,1.987-1.934,3.033c-0.162,0.159-0.721,0.62-1.454,1.152c0.003,0.589,0.064,0.937,0.127,1.069 c0.115,0.246,0.284,0.398,0.502,0.454c0.254,0.091,5.05,1.86,5.889,2.216c0.147,0.056,0.286,0.112,0.397,0.161 c0.056,0.021,0.122,0.045,0.172,0.06c1.496,0.452,2.27,1.375,2.593,3.087c0.004,0.022,0.007,0.045,0.008,0.067 c0,0,0.237,4.646,0.371,7.48c0.01,0.197-0.098,0.381-0.273,0.47c-2.727,1.376-7.653,2.948-10.86,3.089 C38.766,70.269,37.983,70.287,37.235,70.287z M23.509,65.273c4.903,3.268,8.99,4.271,16.033,3.96 c2.964-0.129,7.482-1.546,10.163-2.839c-0.129-2.699-0.333-6.703-0.354-7.115c-0.256-1.322-0.77-1.942-1.888-2.28 c-0.066-0.019-0.16-0.053-0.268-0.095c-0.118-0.051-0.243-0.102-0.391-0.158c-0.834-0.353-5.762-2.171-5.812-2.189 c-0.458-0.113-0.87-0.468-1.111-0.982c-0.163-0.348-0.237-0.94-0.22-1.763c0.004-0.158,0.081-0.305,0.21-0.396 c0.771-0.55,1.404-1.066,1.542-1.201c0.931-0.91,1.457-1.717,1.658-2.539c0.081-0.333,0.168-0.69,0.566-0.988 c0.17-0.127,0.338-0.224,0.499-0.314c0.294-0.166,0.453-0.264,0.577-0.494c0.479-0.895,0.849-2.605,0.873-3.212 c-0.103-0.332-0.495-0.599-0.938-0.629c-0.066-0.004-0.136-0.005-0.208-0.005c-0.008,0-0.102-0.004-0.109-0.005 c-0.391-0.018-0.626-0.029-0.816-0.245c-0.178-0.203-0.158-0.433-0.144-0.617c0.043-0.57-0.136-2.204-0.222-2.989 c-0.036-0.33-0.059-0.56-0.059-0.602c0-2.745-2.871-4.996-6.536-5.124c-0.021-0.001-0.041-0.003-0.062-0.006 c-0.02,0.003-0.04,0.005-0.061,0.006c-3.665,0.128-6.536,2.379-6.536,5.124c0,0.029-0.004,0.167-0.01,0.374 c-0.021,0.771-0.078,2.817-0.038,3.372c0.009,0.122,0.029,0.406-0.193,0.611c-0.218,0.198-0.476,0.156-0.648,0.131 c-0.111-0.018-0.254-0.038-0.435-0.031c-0.097,0.001-0.166,0.002-0.234,0.006c-0.442,0.03-0.835,0.296-0.937,0.629 c0.024,0.613,0.41,2.349,0.872,3.212c0.123,0.23,0.283,0.327,0.577,0.493c0.161,0.092,0.33,0.188,0.5,0.315 c0.399,0.299,0.486,0.658,0.563,0.976c0.205,0.836,0.731,1.643,1.661,2.551c0.104,0.103,0.656,0.545,1.462,1.106 c0.141,0.098,0.221,0.262,0.213,0.433c-0.06,1.33-0.108,1.586-0.124,1.67c-0.117,0.608-0.701,1.017-1.229,1.15l-4.729,1.718 c-0.563,0.149-1.016,0.335-1.39,0.565c-1.086,0.671-1.536,1.148-1.901,2.495c-0.295,1.089-0.341,4.173-0.36,5.489 C23.514,65.009,23.511,65.155,23.509,65.273z"/><path fill="#895d3d" d="M44.822 44.597l-.596-.066.115-1.024-.521.226-.238-.551.996-.432c.099-.042.212-.029.298.034s.132.168.119.274L44.822 44.597zM28.386 44.366l-.173-1.538c-.013-.106.033-.211.119-.274.086-.064.199-.078.298-.034l.996.432-.238.551-.521-.226.114 1.023L28.386 44.366z"/><path fill="#472b29" d="M29.382 47.4c-.001 0-.003 0-.004 0-.11-.002-.198-.094-.196-.204l.11-5.799c.002-.11.09-.193.204-.196.11.002.198.094.196.204l-.11 5.799C29.58 47.313 29.49 47.4 29.382 47.4zM43.719 47.4c-.108 0-.198-.087-.2-.196l-.11-5.799c-.002-.11.086-.202.196-.204.115.019.202.086.204.196l.11 5.799c.002.11-.086.202-.196.204C43.722 47.4 43.72 47.4 43.719 47.4zM36.573 53.528c-1.453 0-3.872-1.767-3.979-1.845-.111-.082-.135-.238-.053-.35.082-.11.239-.134.35-.053.712.524 2.796 1.873 3.804 1.741 1.263-.144 3.303-1.58 3.323-1.595.112-.08.269-.052.349.06.08.112.053.269-.06.349-.088.063-2.165 1.525-3.556 1.683C36.694 53.525 36.635 53.528 36.573 53.528z"/><path fill="#be7841" d="M44.854,32.427c-0.05-0.379-0.458-0.322-0.86-0.298c-1.255,0.074-1.562-0.326-4.124-1.755 c-2.554-1.424-5.167-0.856-6.908,0.37c-8.01,1.751-3.319,12.052-3.319,12.052s-0.029-5.422,2.448-7.07 c4.148,2.68,8.106,2.998,10.52,1.404c0.931,2.057,0.908,5.666,0.908,5.666s1.931-3.255,0.728-7.209 C43.951,34.617,45.018,33.662,44.854,32.427L44.854,32.427z"/><g><path fill="#472b29" d="M43.897,42.768l-0.5-0.004c0-0.034,0.012-3.284-0.79-5.299c-2.651,1.527-6.658,0.976-10.583-1.469 c-2.248,1.657-2.249,6.717-2.249,6.769l-0.5,0.002c-0.001-0.227,0-5.576,2.605-7.279c0.08-0.055,0.187-0.057,0.271-0.002 c3.929,2.493,7.929,3.031,10.437,1.405c0.062-0.039,0.138-0.052,0.205-0.03c0.07,0.021,0.127,0.069,0.157,0.136 C43.911,39.079,43.898,42.618,43.897,42.768z"/></g></g><g><path fill="#d8ad8f" d="M75.728,57.295c-0.471-0.329-6.508-2.419-6.508-2.419c-0.384-0.102-0.597-0.412-0.666-0.759 c-0.083-0.418-0.125-1.088-0.147-1.75c1.625-0.892,2.899-2.2,3.895-3.82c0.165-0.269,0.295-0.754,0.298-1.069 c0.006-0.626,0.006-1.251,0.008-1.877c0.385-0.054,0.652-0.273,0.804-0.753c0.251-0.792,0.626-2.445,0.63-2.459 c0.337-1.026-0.163-1.556-1.139-1.537c0.122-0.075,0.495-0.457,0.643-0.751c0.023,0.001,0.046,0.004,0.07,0.004 c0.095,0,0.188-0.008,0.28-0.02c1.285,0.414,3.241,0.161,3.756-2.854c-0.472,0.606-1.256,0.862-1.913,0.803 c-0.005-0.274-0.065-0.535-0.172-0.773c0.38-0.356,0.617-0.852,0.617-1.402c0-1.082-0.915-1.959-2.043-1.959 c-0.008,0-0.016,0.001-0.024,0.001c0.079-0.24,0.122-0.495,0.122-0.76c0-1.39-1.175-2.518-2.625-2.518 c-0.249,0-0.49,0.035-0.718,0.098c0.001-0.033,0.005-0.065,0.005-0.098c0-1.648-1.467-2.983-3.277-2.983 c-1.046,0-1.976,0.448-2.576,1.142c-0.667-0.418-1.506-0.67-2.419-0.67c-2.171,0-3.93,1.407-3.93,3.143 c0,0.077,0.008,0.152,0.014,0.227c-0.51,0.245-0.903,0.642-1.076,1.156c-0.171,0.506,0.389,1.922,0.368,1.972l0,0 c-0.143,0.002-1.505,0.101-1.204,1.494c0.065,0.301,0.553,4.616,0.813,4.744c-0.976-0.019-1.473,0.514-1.136,1.54 c0.005,0.014,0.379,1.667,0.63,2.459c0.169,0.533,0.479,0.745,0.936,0.765c0.005,0.529,0.006,1.057-0.017,1.585 c-0.029,0.663,0.171,1.243,0.544,1.782c0.952,1.378,2.154,2.505,3.61,3.354c-0.022,0.663-0.065,1.341-0.146,1.784 c-0.064,0.348-0.282,0.657-0.666,0.759l-4.935,1.696c-0.494,0.135-0.969,0.328-1.386,0.598c-2.179,1.408-2.307,4.209-2.265,4.368 h12.512h12.512C77.848,61.378,77.753,58.71,75.728,57.295z"/><path fill="#efa21b" d="M68.507,37.789c0.432,0.861,1.366,1.459,2.454,1.459c0.266,0,0.523-0.037,0.766-0.104 c0.381,0.451,0.97,0.742,1.634,0.742c0.093,0,0.184-0.008,0.274-0.019c1.206,0.378,3.17,0.607,3.762-1.937 c-0.455,0.345-1.305,0.437-1.697,0.194c-0.005-0.27-0.069-0.718-0.176-0.952c0.378-0.35,0.613-0.838,0.613-1.378 c0-1.064-0.909-1.927-2.03-1.927c-0.008,0-0.016,0.001-0.024,0.001c0.079-0.236,0.122-0.487,0.122-0.748 c0-1.367-1.168-2.476-2.608-2.476c-0.248,0-0.486,0.035-0.713,0.096c0.001-0.032,0.005-0.064,0.005-0.096 c0-1.62-1.458-2.933-3.256-2.933c-1.039,0-1.963,0.44-2.559,1.123c-0.663-0.411-1.496-0.658-2.404-0.658 c-2.157,0-3.905,1.384-3.905,3.09c0,0.075,0.008,0.149,0.014,0.223c-0.507,0.24-0.897,0.631-1.069,1.137 c-0.012,0.034,0.312,1.712,0.359,1.901c0.348,0.452,0.883,0.826,1.544,1.025c0.677,0.204,1.361,0.186,1.936-0.003 c0.477,1.591,2.318,2.776,4.517,2.776C66.96,38.328,67.797,38.13,68.507,37.789z"/><path fill="#b2876b" d="M65.291,61.479h12.425c0.042-0.153-0.053-2.728-2.064-4.093c-0.467-0.317-6.463-2.334-6.463-2.334 c-0.381-0.098-0.629-0.375-0.773-0.685c-0.237-0.514-0.134-2.069-0.134-2.069s-1.481,0.896-2.687,1.125 c-1.183,0.117-3.218-1.03-3.218-1.03s-0.105,1.515-0.185,1.942c-0.063,0.335-0.419,0.619-0.8,0.718l-4.901,1.636 c-0.491,0.131-0.962,0.317-1.376,0.577c-2.164,1.358-2.291,4.061-2.249,4.214H65.291z"/><path fill="#00a5a5" d="M66.174,69.359c4.319,0,8.366-1.155,11.859-3.165c-0.134-4.872-0.001-8.109-2.397-8.844 c-0.525-0.161-2.501-1.113-2.501-1.113S68.018,59.1,65.8,59.552c-3.543,0.722-8.239,1.144-12.791,0.675 c-0.047,0.195-0.126,3.627-0.207,5.027C56.615,67.844,61.217,69.359,66.174,69.359z"/><path fill="#6d3c14" d="M58.258,34.864c-0.121,0.021-0.342,0.105-0.438,0.124c-0.766,0.149-0.699,0.796-0.699,0.796 l0.721,4.629c0.023-0.4,0.124-3.968,1.26-4.943C59.042,35.44,58.312,34.968,58.258,34.864z" opacity=".34"/><path fill="#472b29" d="M64.084 40.242c-1.272-.361-3.434-.453-4.72-.247-.073.012-.126.065-.125.126.001.061.054.113.127.124.026.004 3.239.387 4.249.686.017.005.035.007.052.007.05 0 .099-.02.128-.056l.366-.449c.027-.033.033-.074.018-.111C64.164 40.284 64.129 40.255 64.084 40.242zM66.622 40.242c1.272-.361 3.434-.453 4.72-.247.073.012.126.065.125.126-.001.061-.054.113-.127.124-.026.004-3.239.387-4.249.686-.017.005-.035.007-.052.007-.05 0-.099-.02-.128-.056l-.366-.449c-.027-.033-.034-.074-.018-.111C66.541 40.284 66.576 40.255 66.622 40.242zM61.841 41.679c-.32 0-.601.209-.763.525.04-.012.082-.021.126-.021.262 0 .475.234.475.524 0 .289-.213.524-.475.524-.086 0-.165-.027-.235-.071.112.474.46.82.871.82.503 0 .91-.515.91-1.15C62.751 42.194 62.344 41.679 61.841 41.679zM68.804 41.679c-.273 0-.517.153-.684.393.052-.022.108-.035.167-.035.262 0 .475.234.475.524 0 .289-.213.524-.475.524-.163 0-.306-.09-.392-.228.012.622.414 1.122.909 1.122.503 0 .91-.515.91-1.15C69.714 42.194 69.306 41.679 68.804 41.679z"/><path fill="#472b29" d="M65.305,47.602c0.532,0,1.048-0.23,1.381-0.615c0.075-0.087,0.064-0.218-0.024-0.292 c-0.088-0.074-0.22-0.064-0.295,0.021c-0.229,0.259-0.617,0.407-1.063,0.407c-0.446,0-0.834-0.148-1.063-0.407 c-0.073-0.082-0.208-0.093-0.295-0.02c-0.087,0.074-0.097,0.205-0.023,0.292C64.257,47.372,64.774,47.602,65.305,47.602z" opacity=".41"/><path fill="#472b29" d="M65.477,53.592c-1.279,0-3.316-1.142-3.407-1.192c-0.12-0.068-0.162-0.221-0.095-0.341 c0.067-0.121,0.22-0.16,0.341-0.095c0.021,0.012,2.207,1.237,3.299,1.121c1.119-0.113,2.759-1.132,2.775-1.142 c0.116-0.07,0.272-0.036,0.345,0.079c0.073,0.117,0.038,0.271-0.079,0.345c-0.071,0.045-1.755,1.09-2.99,1.216 C65.604,53.589,65.541,53.592,65.477,53.592z"/><path fill="#e2900e" d="M75.699,38.053c-0.005-0.268-0.069-0.713-0.176-0.945c0.378-0.347,0.613-0.832,0.613-1.369 c0-1.057-0.909-1.914-2.03-1.914c-0.008,0-0.016,0.001-0.024,0.001c0.079-0.234,0.122-0.484,0.122-0.742 c0-1.358-1.168-2.459-2.608-2.459c-0.248,0-0.486,0.035-0.713,0.095c0.001-0.032,0.005-0.063,0.005-0.095 c0-1.609-1.458-2.913-3.256-2.913c-0.809,0-1.546,0.267-2.115,0.705c0.266,0.27,0.091-0.037,0.266,0.27 c0.85-0.312,2.29-0.11,3.203,0.384c1.579,0.855,2.217,3.144,1.442,4.557c-0.016,0.028-0.034,0.054-0.051,0.081 c0.229,0.054,0.455,0.138,0.672,0.255c1.265,0.685,1.76,2.206,1.106,3.399c-0.125,0.227-0.282,0.426-0.464,0.594 c0.007,0.004,0.015,0.007,0.022,0.01c0.685,0.371,1.071,1.057,1.076,1.752c0.183,0.049,0.372,0.082,0.572,0.082 c0.093,0,0.184-0.008,0.274-0.019c1.206,0.375,3.17,0.603,3.762-1.923C76.941,38.203,76.09,38.294,75.699,38.053z"/><path fill="#472b29" d="M74.899,40.481c-0.5,0-0.991-0.121-1.278-0.317c-0.707,0.056-1.436-0.206-1.93-0.702 c-1.258,0.275-2.607-0.282-3.265-1.305c-0.716,0.299-1.518,0.455-2.334,0.455c-2.19,0-4.089-1.103-4.736-2.716 c-0.589,0.133-1.233,0.109-1.844-0.073c-0.787-0.235-1.438-0.699-1.833-1.306c-0.091-0.14-0.052-0.325,0.087-0.415 s0.325-0.053,0.415,0.087c0.313,0.481,0.861,0.867,1.503,1.06c0.596,0.178,1.224,0.179,1.769-0.001 c0.079-0.025,0.161-0.018,0.232,0.02s0.125,0.102,0.148,0.179c0.448,1.487,2.239,2.566,4.259,2.566 c0.826,0,1.632-0.177,2.33-0.511c0.146-0.072,0.325-0.011,0.397,0.136c0.495,0.981,1.759,1.514,2.892,1.202 c0.114-0.034,0.233,0.006,0.309,0.095c0.395,0.466,1.042,0.695,1.657,0.621c0.09-0.009,0.184,0.021,0.248,0.087 c0.202,0.204,1.155,0.377,1.742,0.088c0.15-0.072,0.329-0.013,0.402,0.135c0.074,0.148,0.014,0.328-0.135,0.402 C75.637,40.416,75.266,40.481,74.899,40.481z"/><path fill="#ba8964" d="M60.817 45.379999999999995A1.245 1.264 0 1 0 60.817 47.908 1.245 1.264 0 1 0 60.817 45.379999999999995zM70.394 45.379999999999995A1.245 1.264 0 1 0 70.394 47.908 1.245 1.264 0 1 0 70.394 45.379999999999995z" opacity=".8"/><path fill="#8e7469" d="M63.381 43.977A.141.143 0 1 0 63.381 44.263.141.143 0 1 0 63.381 43.977zM63.521 45.065A.141.143 0 1 0 63.521 45.351.141.143 0 1 0 63.521 45.065zM64.487 44.47A.141.143 0 1 0 64.487 44.756.141.143 0 1 0 64.487 44.47zM66.518 44.45A.141.143 0 1 0 66.518 44.736000000000004.141.143 0 1 0 66.518 44.45zM67.068 45.394A.141.143 0 1 0 67.068 45.68.141.143 0 1 0 67.068 45.394zM67.726 44.461999999999996A.141.143 0 1 0 67.726 44.748.141.143 0 1 0 67.726 44.461999999999996z" opacity=".8"/><path fill="#472b29" d="M58.243 45.906c-.153 0-.284-.117-.299-.272l-.44-4.799c-.015-.165.106-.311.271-.326.161-.017.311.107.326.271l.44 4.799c.015.165-.106.311-.271.326C58.262 45.906 58.252 45.906 58.243 45.906zM72.544 45.839c-.006 0-.012 0-.019 0-.165-.011-.291-.152-.281-.318l.286-4.683c.01-.165.123-.298.318-.281.165.011.291.152.281.318l-.286 4.683C72.834 45.717 72.701 45.839 72.544 45.839z"/><g><path fill="#472b29" d="M66.147,69.832c-4.901,0-9.63-1.445-13.675-4.179c-0.15-0.102-0.233-0.277-0.218-0.458 c0.056-0.628,0.111-1.702,0.164-2.714c0.087-1.68,0.125-2.292,0.172-2.541c0.005-0.039,0.015-0.077,0.029-0.113 c0.289-0.943,0.907-2.23,2.218-3.078c0.431-0.278,0.943-0.5,1.524-0.66l4.906-1.686c0.238-0.065,0.312-0.24,0.336-0.377 c0.057-0.309,0.1-0.784,0.127-1.417c-1.388-0.856-2.568-1.981-3.511-3.346c-0.457-0.663-0.664-1.347-0.633-2.088 c0.018-0.384,0.021-0.767,0.02-1.149c-0.439-0.151-0.746-0.495-0.915-1.028c-0.214-0.675-0.514-1.947-0.633-2.464 c-0.262-0.8-0.069-1.305,0.139-1.586c0.152-0.207,0.422-0.44,0.887-0.545c-0.082-0.473-0.206-1.209-0.361-2.137 c-0.167-0.995-0.321-1.92-0.351-2.056c-0.157-0.73,0.06-1.195,0.27-1.457c0.2-0.249,0.457-0.401,0.698-0.495 c-0.278-0.69-0.313-1.306-0.104-1.812c0.22-0.53,0.57-0.956,1.025-1.25c0.037-1.982,2.01-3.586,4.429-3.586 c0.832,0,1.63,0.188,2.33,0.545c0.705-0.651,1.655-1.018,2.665-1.018c1.902,0,3.48,1.304,3.74,2.993 c1.811-0.141,3.375,1.264,3.375,3.008c0,0.11-0.006,0.219-0.019,0.327c1.131,0.26,1.963,1.233,1.963,2.391 c0,0.559-0.19,1.087-0.542,1.519c0.014,0.048,0.026,0.096,0.037,0.145c0.386-0.057,0.804-0.244,1.079-0.599 c0.143-0.181,0.387-0.244,0.597-0.149c0.209,0.092,0.329,0.315,0.291,0.541c-0.295,1.727-0.736,2.754-2.219,3.238 c-0.729,0.194-1.362,0.182-1.799,0.14c0.109,0.084,0.192,0.174,0.256,0.26c0.208,0.281,0.399,0.785,0.134,1.593 c-0.271,1.172-0.479,1.983-0.628,2.454c-0.15,0.476-0.413,0.802-0.782,0.974c0,0.503-0.001,1.007-0.006,1.51 c-0.005,0.42-0.166,0.99-0.373,1.327c-1.019,1.658-2.299,2.95-3.81,3.842c0.033,0.763,0.086,1.163,0.127,1.368 c0.041,0.206,0.143,0.331,0.304,0.374c1.464,0.51,6.161,2.159,6.654,2.485c2.096,1.379,2.182,2.795,2.238,3.732l0.008,0.122 l0.229,5.414c0.008,0.187-0.089,0.362-0.251,0.455C74.604,68.715,70.405,69.832,66.147,69.832z M53.275,64.986 c3.824,2.517,8.269,3.846,12.872,3.846c3.982,0,7.91-1.019,11.38-2.949l-0.222-5.212c-0.053-0.869-0.112-1.854-1.79-2.958 c-0.335-0.203-3.547-1.37-6.398-2.365c-0.493-0.13-0.877-0.559-0.99-1.135c-0.077-0.389-0.13-1.005-0.157-1.83 c-0.006-0.188,0.095-0.364,0.26-0.455c1.474-0.81,2.722-2.035,3.709-3.644c0.112-0.184,0.222-0.578,0.225-0.813 c0.005-0.533,0.006-1.068,0.007-1.603V45.6c0-0.249,0.184-0.459,0.43-0.494c0.153-0.021,0.29-0.067,0.398-0.41 c0.097-0.306,0.279-0.96,0.6-2.338c0.004-0.016,0.027-0.113,0.032-0.128c0.103-0.312,0.106-0.555,0.012-0.684 c-0.097-0.13-0.341-0.199-0.666-0.195c-0.004,0-0.007,0-0.01,0c-0.222,0-0.417-0.146-0.479-0.359 c-0.063-0.216,0.025-0.448,0.217-0.566c0.077-0.056,0.361-0.355,0.458-0.549c0.089-0.176,0.275-0.256,0.468-0.276 c0.078,0.004,0.147,0.011,0.251,0.031c0.263,0.052,0.962,0.194,1.824-0.038c0.613-0.2,0.969-0.521,1.22-1.216 c-0.369,0.133-0.771,0.189-1.168,0.153c-0.255-0.023-0.45-0.234-0.455-0.489c-0.004-0.201-0.047-0.395-0.128-0.576 c-0.088-0.195-0.042-0.424,0.114-0.569c0.295-0.277,0.458-0.646,0.458-1.038c0-0.805-0.692-1.459-1.543-1.459 c-0.161,0-0.324-0.077-0.418-0.207c-0.094-0.131-0.132-0.298-0.081-0.451c0.065-0.192,0.098-0.395,0.098-0.601 c0-1.298-1.363-2.311-2.71-1.938c-0.153,0.04-0.317,0.007-0.441-0.089c-0.125-0.099-0.196-0.25-0.191-0.408 c0.005-1.452-1.241-2.566-2.772-2.566c-0.864,0-1.665,0.354-2.196,0.97c-0.163,0.187-0.438,0.227-0.645,0.097 c-0.62-0.389-1.365-0.594-2.154-0.594c-1.892,0-3.43,1.186-3.43,2.643c0,0.062,0.006,0.122,0.012,0.183 c0.019,0.208-0.094,0.405-0.282,0.496c-0.379,0.182-0.658,0.483-0.83,0.896c-0.14,0.339-0.023,0.884,0.319,1.493 c0.079,0.14,0.108,0.352,0.041,0.498c-0.081,0.176-0.257,0.289-0.45,0.29c-0.093,0.002-0.477,0.054-0.649,0.271 c-0.106,0.135-0.13,0.342-0.07,0.617c0.029,0.139,0.188,1.084,0.359,2.102c0.185,1.103,0.414,2.474,0.452,2.634 c0.034,0.149-0.002,0.308-0.099,0.428c-0.097,0.119-0.216,0.206-0.398,0.186c-0.292,0.014-0.565,0.065-0.663,0.194 c-0.096,0.13-0.091,0.375,0.012,0.689c0.137,0.582,0.429,1.824,0.632,2.464c0.108,0.342,0.241,0.406,0.481,0.418 c0.266,0.012,0.475,0.229,0.478,0.494c0.005,0.537,0.007,1.075-0.018,1.612c-0.021,0.522,0.123,0.992,0.457,1.477 c0.916,1.326,2.077,2.404,3.45,3.205c0.159,0.092,0.254,0.265,0.248,0.448c-0.028,0.842-0.079,1.449-0.153,1.856 c-0.105,0.578-0.49,1.009-1.029,1.153l-4.902,1.685c-0.513,0.143-0.932,0.322-1.276,0.545c-1.071,0.692-1.577,1.773-1.813,2.559 c0,0.002,0,0.003-0.001,0.004c-0.034,0.175-0.098,1.398-0.148,2.382C53.372,63.413,53.323,64.34,53.275,64.986z"/></g><g opacity=".49"><path fill="#472b29" d="M69.048,48.64c-0.033-0.04-0.079-0.065-0.131-0.071c-0.052-0.006-0.103,0.009-0.142,0.041 c-0.74,0.583-1.977,0.917-3.392,0.917c-1.415,0-2.652-0.334-3.392-0.917c-0.08-0.065-0.21-0.05-0.274,0.029 c-0.067,0.082-0.055,0.203,0.028,0.27c0.878,0.709,2.238,1.132,3.637,1.132c1.399,0,2.759-0.423,3.637-1.132 C69.102,48.843,69.115,48.721,69.048,48.64z"/></g></g><g><path fill="#ce9065" d="M64.966,66.404c-0.282-1.495-0.892-2.37-2.328-2.804c-0.062-0.019-0.146-0.049-0.241-0.085 c-0.109-0.047-0.247-0.103-0.408-0.166c-0.87-0.368-6.042-2.276-6.042-2.276c-0.426-0.108-0.704-0.412-0.864-0.754 c-0.265-0.565-0.163-2.03-0.163-2.03s-2.163,0.74-3.512,0.992c-1.323,0.129-4.168-1.583-4.168-1.583s-0.067,2.116-0.157,2.586 c-0.071,0.369-0.468,0.681-0.895,0.789l-4.962,1.799c-0.549,0.144-1.076,0.349-1.539,0.634c-1.249,0.771-1.881,1.929-2.203,2.898 c0,0-0.327,2.31-0.314,2.393c-0.031,0.323-0.063,0.679-0.095,1.053c5.409,3.662,9.753,4.688,17.206,4.362 c3.386-0.148,8.428-1.82,11.07-3.154C65.212,68.116,64.966,66.404,64.966,66.404z"/><path fill="#88ae45" d="M64.966,66.432c-0.282-1.495-0.892-2.37-2.328-2.804c-0.062-0.019-0.146-0.049-0.241-0.085 c-0.109-0.047-0.247-0.103-0.408-0.166c-0.471-0.199-5.104-1.816-6.593-2.371c-2.032,1.432-2.946,1.983-4.302,1.983 c-1.445,0-2.802-0.631-4.29-2.09l-2.255,0.833c-0.006-0.003-0.011-0.006-0.017-0.009l-0.219,0.058L41.227,62.9 c-0.549,0.144-1.076,0.349-1.539,0.634c-1.249,0.771-1.881,1.929-2.203,2.898c0,0-0.327,2.31-0.314,2.393 c-0.031,0.323-0.063,3.792-0.095,4.166c5.409,3.662,9.753,4.688,17.206,4.362c3.386-0.148,8.428-1.82,11.07-3.154 C65.212,71.257,64.966,66.432,64.966,66.432z"/><path fill="#fdfcef" d="M55.898,68.262c-0.511-0.642-0.868-1.387-1.387-2.022c-0.125-0.153-0.135-0.341,0-0.493 c0.292-0.329,0.699-0.496,1.097-0.661c0.439-0.181,0.864-0.379,1.307-0.543c-0.28-1.162-0.833-2.214-1.523-3.185 c-0.092-0.129-0.073-0.254-0.003-0.348c-2.027,1.428-2.941,1.979-4.295,1.979c-1.382,0-2.759-0.555-4.041-1.935 c-0.17,1.06-1.132,2.49-0.42,3.531c0.282,0.411,0.86,0.553,1.047,1.06c0.266,0.718-0.132,1.752-0.151,2.482 c-0.039,1.484,0.37,2.597,0.924,3.935c0.024,0.059,0.028,0.111,0.022,0.16c0.444,0.881,0.944,1.791,1.278,2.705 c0.293,0.801,0.513,1.607,0.713,2.433c0.357,0.012,0.65-0.006,1.022-0.003c0.332-1.594,1.273-3.09,1.905-4.581 C54.088,71.141,54.739,69.611,55.898,68.262z"/><path fill="#d5e27b" d="M52.369,67.515L52,75.949l-0.572,1.382l-0.416,0.07l-0.437-0.01L49.78,75.73l0.093-8.214 C50.428,66.367,51.814,66.367,52.369,67.515z"/><path fill="#d5e27b" d="M49.967,66.228l-1.151-2.867h4.61l-1.151,2.867C51.762,67.241,50.48,67.241,49.967,66.228z"/><path fill="#e1e0d8" d="M46.932,60.699l-0.978,0.785l2.562,5.532l2.754-3.968C51.27,63.048,47.136,61.811,46.932,60.699 z"/><path fill="#e1e0d8" d="M55.125,60.699l1.127,0.679l-2.712,5.638l-2.754-3.968 C50.787,63.048,54.922,61.811,55.125,60.699z"/><g opacity=".59"><path fill="#6f913d" d="M41.826 76.14c-.166 0-.3-.134-.3-.3v-2.126c0-.166.134-.3.3-.3s.3.134.3.3v2.126C42.126 76.006 41.992 76.14 41.826 76.14zM60.166 76.514c-.166 0-.3-.134-.3-.3v-2.5c0-.166.134-.3.3-.3s.3.134.3.3v2.5C60.466 76.38 60.332 76.514 60.166 76.514z"/></g><path fill="#6f913d" d="M54.945 60.362c0 0 1.647.7 2.845 4.549l-2.845 1.05 1.834 2.1-5.42 9.445C51.359 77.506 53.974 67.867 54.945 60.362zM47.083 60.362c0 0-1.646.7-2.845 4.549l2.845 1.05-1.833 2.1 5.327 9.445C50.576 77.506 48.054 67.867 47.083 60.362z"/><path fill="#db9e71" d="M59.6,47.925c-0.081-0.005-0.165-0.006-0.251-0.006c-0.673-0.033-0.864,0.236-0.833-0.18 c0.054-0.739-0.049-3.734-0.049-3.886c0-3.104-3.241-5.636-7.291-5.777v-0.009c-0.027,0-0.054,0.004-0.081,0.005 c-0.027-0.001-0.054-0.004-0.081-0.005v0.009c-4.05,0.14-7.291,2.672-7.291,5.777c0,0.151-0.103,3.147-0.049,3.886 c0.03,0.416-0.161,0.148-0.833,0.18c-0.086,0-0.169,0.001-0.251,0.006c-0.737,0.049-1.334,0.518-1.461,1.099 c0.09,0.055,0.426,2.599,0.969,3.601c0.303,0.56,0.777,0.638,1.264,0.999c0.27,0.2,0.322,0.426,0.395,0.725 c0.273,1.108,1.032,2.049,1.863,2.853c0.41,0.397,3.134,3.3,5.474,3.153c2.351-0.088,5.063-2.756,5.474-3.153 c0.831-0.804,1.59-1.745,1.863-2.853c0.074-0.299,0.126-0.525,0.395-0.725c0.487-0.361,0.961-0.439,1.264-0.999 c0.543-1.002,0.879-3.546,0.969-3.601C60.933,48.444,60.337,47.975,59.6,47.925z"/><path fill="#512c2b" d="M51.137 52.843c.476 0 .937-.208 1.234-.555.03-.035.026-.088-.009-.118l0 0c-.035-.03-.087-.027-.118.008-.242.277-.645.435-1.107.435-.462 0-.865-.159-1.107-.435-.017-.019-.04-.028-.063-.028-.019 0-.039.007-.055.02-.035.03-.039.083-.009.118C50.2 52.635 50.661 52.843 51.137 52.843zM49.619 46.416l.302-.58c-1.276-.299-2.745-.251-3.958.125l.38.565C47.34 46.197 48.566 46.155 49.619 46.416zM56.008 46.416l.302-.58c-1.276-.299-2.745-.251-3.958.125l.38.565C53.729 46.197 54.955 46.155 56.008 46.416zM47.783 47.234c-.306 0-.576.203-.731.509.039-.012.079-.02.121-.02.251 0 .455.228.455.508s-.204.508-.455.508c-.082 0-.158-.026-.225-.069.108.46.44.796.835.796.482 0 .872-.5.872-1.116C48.654 47.734 48.264 47.234 47.783 47.234zM54.454 47.234c-.262 0-.496.148-.655.382.05-.021.103-.034.16-.034.251 0 .455.228.455.508 0 .281-.204.508-.455.508-.156 0-.293-.088-.375-.221.011.604.396 1.089.871 1.089.482 0 .872-.5.872-1.116C55.326 47.734 54.935 47.234 54.454 47.234z"/><path fill="#472b29" d="M51.872,78.005c-6.24,0-10.267-1.247-15.076-4.504c-0.15-0.102-0.233-0.276-0.218-0.457 c0.006-0.074,0.009-0.325,0.015-0.689c0.022-1.525,0.069-4.701,0.41-5.958c0.47-1.733,1.155-2.41,2.423-3.192 c0.475-0.293,1.038-0.526,1.675-0.692l4.919-1.785c0.33-0.087,0.548-0.278,0.573-0.413c0.019-0.096,0.055-0.391,0.1-1.315 c-0.689-0.491-1.25-0.932-1.42-1.097c-1.109-1.084-1.744-2.077-2-3.126c-0.073-0.303-0.098-0.367-0.21-0.451 c-0.14-0.104-0.277-0.182-0.409-0.256c-0.339-0.191-0.723-0.408-0.995-0.918c-0.604-1.127-1.029-3.19-1.029-3.879 c0-0.035,0.004-0.071,0.012-0.105c0.178-0.822,0.965-1.44,1.915-1.505c0.095-0.006,0.188-0.007,0.284-0.007 c0.117-0.006,0.226-0.003,0.322,0.004c-0.017-0.882,0.029-2.502,0.05-3.26l0.01-0.356c0-3.378,3.366-6.148,7.68-6.338 c0.036-0.008,0.073-0.013,0.111-0.013c0.01,0,0.092,0.005,0.102,0.005c0.026,0,0.053,0.002,0.079,0.006V37.7 c4.359,0.153,7.773,2.939,7.773,6.342l0.01,0.358c0.021,0.765,0.067,2.41,0.052,3.259c0.104-0.008,0.217-0.012,0.345-0.004 c0.069,0,0.164-0.001,0.257,0.006c0.952,0.064,1.74,0.683,1.919,1.504c0.008,0.035,0.012,0.07,0.012,0.106 c0,0.771-0.441,2.782-1.029,3.879c-0.273,0.51-0.657,0.727-0.995,0.918c-0.132,0.074-0.27,0.151-0.409,0.255 c-0.112,0.085-0.136,0.148-0.206,0.438c-0.259,1.062-0.895,2.055-2.003,3.14c-0.17,0.166-0.754,0.646-1.517,1.2 c0.004,0.785,0.102,1.061,0.135,1.13c0.122,0.26,0.303,0.422,0.534,0.481c0.262,0.094,5.243,1.932,6.114,2.3 c0.153,0.06,0.296,0.117,0.41,0.166c0.062,0.023,0.132,0.051,0.186,0.066c1.542,0.466,2.343,1.42,2.677,3.19 c0.004,0.022,0.007,0.045,0.008,0.067c0,0,0.246,4.826,0.386,7.77c0.01,0.196-0.098,0.381-0.273,0.47 c-2.829,1.429-7.943,3.062-11.273,3.208C53.456,77.985,52.646,78.005,51.872,78.005z M37.585,72.826 c5.1,3.4,9.343,4.441,16.676,4.123c3.087-0.135,7.792-1.611,10.576-2.958c-0.135-2.806-0.348-6.983-0.369-7.404 c-0.268-1.384-0.806-2.031-1.975-2.385c-0.069-0.021-0.165-0.056-0.273-0.098c-0.124-0.052-0.257-0.105-0.411-0.166 c-0.863-0.365-5.982-2.254-6.034-2.273c-0.471-0.116-0.895-0.48-1.144-1.01c-0.063-0.133-0.251-0.536-0.228-1.821 c0.003-0.159,0.081-0.307,0.21-0.398c0.801-0.57,1.461-1.109,1.605-1.25c0.969-0.948,1.518-1.79,1.728-2.646 c0.082-0.339,0.171-0.709,0.582-1.016c0.175-0.132,0.349-0.231,0.516-0.326c0.283-0.159,0.47-0.265,0.606-0.52 c0.5-0.935,0.885-2.72,0.909-3.349c-0.107-0.359-0.516-0.638-0.994-0.67c-0.067-0.004-0.142-0.005-0.217-0.005 c-0.216-0.014-0.364,0.012-0.479,0.031c-0.175,0.028-0.438,0.069-0.657-0.132c-0.225-0.205-0.204-0.494-0.195-0.618 c0.043-0.578-0.018-2.706-0.04-3.507c-0.006-0.215-0.01-0.356-0.01-0.387c0-2.861-2.99-5.208-6.809-5.342 c-0.021-0.001-0.043-0.003-0.064-0.007c-0.021,0.004-0.042,0.006-0.063,0.007c-3.818,0.134-6.809,2.48-6.809,5.342 c0,0.03-0.004,0.172-0.01,0.385c-0.022,0.802-0.082,2.93-0.039,3.509c0.009,0.124,0.029,0.413-0.195,0.618 c-0.218,0.201-0.48,0.16-0.657,0.132c-0.115-0.02-0.257-0.038-0.456-0.032c-0.1,0.001-0.173,0.002-0.244,0.006 c-0.476,0.032-0.884,0.311-0.99,0.669c0.024,0.638,0.427,2.45,0.909,3.35c0.137,0.255,0.323,0.36,0.605,0.52 c0.168,0.095,0.342,0.194,0.518,0.327c0.41,0.307,0.5,0.678,0.579,1.005c0.212,0.868,0.761,1.709,1.729,2.656 c0.109,0.106,0.685,0.568,1.521,1.151c0.141,0.099,0.221,0.262,0.213,0.433c-0.056,1.242-0.101,1.584-0.129,1.733 c-0.119,0.622-0.72,1.04-1.263,1.178l-4.915,1.784c-0.584,0.155-1.057,0.35-1.446,0.591c-1.132,0.698-1.602,1.196-1.983,2.603 C37.66,67.793,37.612,71,37.593,72.37C37.59,72.549,37.587,72.703,37.585,72.826z"/><g><path fill="#895d3d" d="M59.733,51.335l-0.596-0.066l0.121-1.083l-0.56,0.242l-0.238-0.551l1.035-0.448 c0.099-0.042,0.212-0.028,0.298,0.034c0.086,0.063,0.132,0.168,0.119,0.274L59.733,51.335z"/></g><g><path fill="#895d3d" d="M42.683,51.097l-0.18-1.598c-0.013-0.106,0.033-0.211,0.119-0.274 c0.086-0.064,0.199-0.078,0.298-0.034l1.035,0.448l-0.238,0.551l-0.56-0.242l0.121,1.083L42.683,51.097z"/></g><g><path fill="#472b29" d="M43.706,54.242c-0.001,0-0.003,0-0.004,0c-0.11-0.002-0.198-0.094-0.196-0.204l0.114-6.024 c0.002-0.109,0.092-0.196,0.2-0.196c0.001,0,0.003,0,0.004,0c0.11,0.002,0.198,0.094,0.196,0.204l-0.114,6.024 C43.904,54.155,43.814,54.242,43.706,54.242z"/></g><g><path fill="#472b29" d="M58.599,54.242c-0.108,0-0.198-0.087-0.2-0.196l-0.114-6.024c-0.002-0.11,0.086-0.202,0.196-0.204 c0.001,0,0.003,0,0.004,0c0.108,0,0.198,0.087,0.2,0.196l0.114,6.024c0.002,0.11-0.086,0.202-0.196,0.204 C58.602,54.242,58.6,54.242,58.599,54.242z"/></g><g><path fill="#6d1b18" d="M48.711,55.081c-0.028,0.108-0.044,0.219-0.044,0.332c0,0.973,1.076,1.762,2.404,1.762 s2.404-0.789,2.404-1.762c0-0.114-0.016-0.225-0.044-0.332H48.711z"/><path fill="#ee3e54" d="M52.341,56.904c-0.211-0.246-0.7-0.419-1.27-0.419s-1.059,0.173-1.27,0.419 c0.369,0.169,0.802,0.271,1.27,0.271C51.539,57.175,51.972,57.073,52.341,56.904z"/><path fill="#fdfcef" d="M49.4,55.081c-0.001,0.01-0.005,0.02-0.005,0.031v0.298c0,0.26,0.343,0.474,0.763,0.474h1.827 c0.42,0,0.763-0.213,0.763-0.474v-0.298c0-0.011-0.004-0.021-0.005-0.031H49.4z"/><g><path fill="#472b29" d="M51.071,57.375c-1.436,0-2.604-0.88-2.604-1.962c0-0.127,0.018-0.256,0.051-0.383 c0.023-0.088,0.103-0.149,0.193-0.149h4.721c0.091,0,0.17,0.062,0.193,0.149c0.033,0.127,0.051,0.256,0.051,0.383 C53.676,56.495,52.507,57.375,51.071,57.375z M48.875,55.281c-0.005,0.044-0.008,0.088-0.008,0.132 c0,0.861,0.988,1.562,2.204,1.562s2.204-0.7,2.204-1.562c0-0.044-0.003-0.088-0.008-0.132H48.875z"/></g></g><g><path fill="#512c2b" d="M58.634,52.288c-0.51,1.476-1.041,2.797-1.433,3.683c-0.165,0.374-0.721,0.398-0.918,0.038 c-0.334-0.614-0.909-1.27-1.684-1.628c-1.881-0.867-3.343,0.2-3.343,0.2c0.783,0.022,1.8,0.181,2.229,0.889 c1.507,2.487-2.142,2.891-2.284,2.759c-0.142,0.133-3.791-0.272-2.284-2.759c0.429-0.708,1.446-0.868,2.229-0.889 c0,0-1.463-1.067-3.343-0.2c-0.775,0.358-1.35,1.014-1.684,1.628c-0.197,0.361-0.753,0.337-0.918-0.038 c-0.359-0.812-0.834-1.992-1.303-3.317c-0.067,0.798-0.19,1.59-0.258,2.388c0.022,0.103,0.044,0.206,0.068,0.307 c0.401,1.709,0.912,5.806,6.355,7.603c0.619,0.205,1.645,0.206,2.265,0.004c5.15-1.677,5.884-5.363,6.285-7.236 C58.553,54.579,58.583,53.437,58.634,52.288z"/></g></g></svg>