<svg xmlns="http://www.w3.org/2000/svg" viewBox="0 0 100 100"><path fill="#ee3e54" d="M13 27A2 2 0 1 0 13 31A2 2 0 1 0 13 27Z"/><path fill="#f1bc19" d="M77 12A1 1 0 1 0 77 14A1 1 0 1 0 77 12Z"/><path fill="#fce0a2" d="M50 13A37 37 0 1 0 50 87A37 37 0 1 0 50 13Z"/><path fill="#f1bc19" d="M83 11A4 4 0 1 0 83 19A4 4 0 1 0 83 11Z"/><path fill="#ee3e54" d="M87 22A2 2 0 1 0 87 26A2 2 0 1 0 87 22Z"/><path fill="#fbcd59" d="M81 74A2 2 0 1 0 81 78 2 2 0 1 0 81 74zM15 59A4 4 0 1 0 15 67 4 4 0 1 0 15 59z"/><path fill="#ee3e54" d="M25 85A2 2 0 1 0 25 89A2 2 0 1 0 25 85Z"/><path fill="#fff" d="M18.5 51A2.5 2.5 0 1 0 18.5 56A2.5 2.5 0 1 0 18.5 51Z"/><path fill="#f1bc19" d="M21 66A1 1 0 1 0 21 68A1 1 0 1 0 21 66Z"/><path fill="#fff" d="M80 33A1 1 0 1 0 80 35A1 1 0 1 0 80 33Z"/><g><path fill="#472b29" d="M66.491,69.053H43.737c-3.957,0-5.713-3.729-6.126-5.932c-0.04-0.242-3.637-22.541-4.356-27.907 c-0.482-3.593-2.619-3.636-4.336-3.67l-0.438-0.012l-4.409,0.001c-0.387,0-0.7-0.313-0.7-0.7s0.313-0.7,0.7-0.7l4.875,0.012 c1.641,0.032,5.054,0.101,5.695,4.884c0.719,5.348,4.313,27.628,4.349,27.853c0.033,0.178,0.939,4.771,4.747,4.771h22.754 c0.387,0,0.7,0.313,0.7,0.7S66.878,69.053,66.491,69.053z"/></g><g><path fill="#eba272" d="M45.825,77.237c-1.413,0-2.563-1.149-2.563-2.563c0-1.414,1.149-2.563,2.563-2.563 c1.414,0,2.563,1.149,2.563,2.563C48.389,76.088,47.239,77.237,45.825,77.237z"/><path fill="#472b29" d="M45.825,72.811c1.027,0,1.863,0.836,1.863,1.863s-0.836,1.863-1.863,1.863 s-1.863-0.836-1.863-1.863S44.798,72.811,45.825,72.811 M45.825,71.411c-1.802,0-3.263,1.461-3.263,3.263s1.461,3.263,3.263,3.263 s3.263-1.461,3.263-3.263S47.628,71.411,45.825,71.411L45.825,71.411z"/></g><g><path fill="#eba272" d="M61.053,77.237c-1.413,0-2.563-1.149-2.563-2.563c0-1.414,1.149-2.563,2.563-2.563 c1.414,0,2.563,1.149,2.563,2.563C63.616,76.088,62.467,77.237,61.053,77.237z"/><path fill="#472b29" d="M61.053,72.811c1.027,0,1.863,0.836,1.863,1.863s-0.836,1.863-1.863,1.863 s-1.863-0.836-1.863-1.863S60.026,72.811,61.053,72.811 M61.053,71.411c-1.802,0-3.263,1.461-3.263,3.263s1.461,3.263,3.263,3.263 s3.263-1.461,3.263-3.263S62.855,71.411,61.053,71.411L61.053,71.411z"/></g><g><path fill="#78cdd4" d="M49.088,39.833H34.687l3.188,20.417h26.634c1.351,0,4.478-0.61,5.263-4.334 c0.875-4.15,2.267-11.524,2.866-14.664c0.141-0.739-0.427-1.419-1.18-1.419H59.687"/><path fill="#472b29" d="M64.509,60.95H37.875c-0.345,0-0.639-0.251-0.691-0.592l-3.188-20.417 c-0.032-0.202,0.026-0.408,0.159-0.563c0.134-0.155,0.328-0.245,0.532-0.245h14.401c0.387,0,0.7,0.313,0.7,0.7s-0.313,0.7-0.7,0.7 H35.505l2.97,19.017h26.034c0.632,0,3.82-0.182,4.579-3.778c0.795-3.775,2.024-10.246,2.686-13.722l0.177-0.929 c0.038-0.199-0.049-0.34-0.104-0.407s-0.181-0.181-0.388-0.181H59.688c-0.387,0-0.7-0.313-0.7-0.7s0.313-0.7,0.7-0.7h11.771 c0.569,0,1.104,0.251,1.467,0.688c0.36,0.436,0.507,1.005,0.4,1.562l-0.177,0.929c-0.661,3.48-1.893,9.959-2.691,13.749 C69.696,59.67,66.777,60.95,64.509,60.95z"/></g><g><path fill="#fffef4" d="M52.836,54.922c0.781,0.771,2.047,0.771,2.828,0l8.804-7.705c0.931-0.918,0.753-2.52-0.536-3.176 c-0.777-0.396-1.737-0.165-2.355,0.445l-5.175,4.122V26.157c0-0.863-0.515-1.695-1.348-1.956c-1.381-0.433-2.652,0.574-2.652,1.873 v22.531l-5.162-3.805c-0.672-0.663-1.738-0.862-2.541-0.361c-0.633,0.395-0.949,1.039-0.949,1.682c0,0.505,0.195,1.011,0.586,1.396 L52.836,54.922z"/><path fill="#472b29" d="M54.257,56.001c-0.635,0-1.272-0.236-1.761-0.712l-8.488-7.396 c-0.497-0.489-0.758-1.111-0.758-1.773c0-0.855,0.442-1.643,1.184-2.105c0.967-0.602,2.294-0.425,3.157,0.429l4.311,3.172V26.073 c0-0.779,0.378-1.522,1.012-1.988c0.654-0.482,1.489-0.612,2.29-0.362c1,0.313,1.698,1.314,1.698,2.435v21.414l4.364-3.477 c0.757-0.751,1.964-0.976,2.893-0.499c0.745,0.379,1.243,1.053,1.366,1.849c0.12,0.778-0.144,1.574-0.705,2.129l-8.826,7.725 C55.52,55.766,54.89,56.001,54.257,56.001z M45.692,44.659c-0.26,0-0.511,0.067-0.729,0.203c-0.446,0.279-0.713,0.749-0.713,1.258 c0,0.393,0.155,0.763,0.438,1.041l8.477,7.384c0.008,0.007,0.016,0.014,0.023,0.021c0.586,0.578,1.539,0.579,2.125-0.001 l8.826-7.725c0.317-0.314,0.47-0.775,0.397-1.243c-0.073-0.475-0.377-0.879-0.831-1.111c-0.551-0.279-1.28-0.136-1.776,0.355 L56.713,49c-0.149,0.119-0.357,0.141-0.528,0.059c-0.173-0.083-0.283-0.258-0.283-0.45V26.157c0-0.688-0.41-1.296-0.997-1.479 c-0.494-0.157-1.004-0.078-1.399,0.213c-0.384,0.282-0.604,0.713-0.604,1.183v22.531c0,0.188-0.106,0.361-0.274,0.446 c-0.167,0.086-0.369,0.069-0.522-0.044l-5.162-3.806C46.574,44.842,46.121,44.659,45.692,44.659z"/></g><g><path fill="#472b29" d="M43.438,56.938H38c-0.138,0-0.25-0.112-0.25-0.25s0.112-0.25,0.25-0.25h5.438 c0.138,0,0.25,0.112,0.25,0.25S43.575,56.938,43.438,56.938z"/></g><g><path fill="#472b29" d="M69.438,56.938H64c-0.138,0-0.25-0.112-0.25-0.25s0.112-0.25,0.25-0.25h5.438 c0.138,0,0.25,0.112,0.25,0.25S69.575,56.938,69.438,56.938z"/></g><g><path fill="#472b29" d="M49.5,56.938H46c-0.138,0-0.25-0.112-0.25-0.25s0.112-0.25,0.25-0.25h3.5 c0.138,0,0.25,0.112,0.25,0.25S49.638,56.938,49.5,56.938z"/></g><g><path fill="#472b29" d="M61.5,56.938H58c-0.138,0-0.25-0.112-0.25-0.25s0.112-0.25,0.25-0.25h3.5 c0.138,0,0.25,0.112,0.25,0.25S61.638,56.938,61.5,56.938z"/></g></svg>